<?xml version="1.0" encoding="utf-8"?>
<!-- Generator: Adobe Illustrator 27.5.0, SVG Export Plug-In . SVG Version: 6.00 Build 0)  -->
<svg version="1.1" xmlns="http://www.w3.org/2000/svg" xmlns:xlink="http://www.w3.org/1999/xlink" x="0px" y="0px"
	 viewBox="0 0 500 500" style="enable-background:new 0 0 500 500;" xml:space="preserve">
<g id="Background_Complete">
	<g>
		<rect y="382.398" style="fill:#EBEBEB;" width="500" height="0.25"/>
		<rect x="416.779" y="398.494" style="fill:#EBEBEB;" width="33.122" height="0.25"/>
		<rect x="322.527" y="401.208" style="fill:#EBEBEB;" width="8.693" height="0.25"/>
		<rect x="396.586" y="389.208" style="fill:#EBEBEB;" width="19.192" height="0.25"/>
		<rect x="52.459" y="390.888" style="fill:#EBEBEB;" width="43.193" height="0.25"/>
		<rect x="104.556" y="390.888" style="fill:#EBEBEB;" width="6.333" height="0.25"/>
		<rect x="131.471" y="395.111" style="fill:#EBEBEB;" width="93.676" height="0.25"/>
		<path style="fill:#EBEBEB;" d="M237.014,337.8H43.915c-3.147,0-5.708-2.561-5.708-5.708V60.66c0-3.147,2.561-5.708,5.708-5.708
			h193.099c3.146,0,5.707,2.561,5.707,5.708v271.432C242.721,335.239,240.16,337.8,237.014,337.8z M43.915,55.203
			c-3.01,0-5.458,2.448-5.458,5.458v271.432c0,3.01,2.448,5.458,5.458,5.458h193.099c3.009,0,5.457-2.448,5.457-5.458V60.66
			c0-3.009-2.448-5.458-5.457-5.458H43.915z"/>
		<path style="fill:#EBEBEB;" d="M453.31,337.8H260.212c-3.147,0-5.707-2.561-5.707-5.708V60.66c0-3.147,2.561-5.708,5.707-5.708
			H453.31c3.148,0,5.708,2.561,5.708,5.708v271.432C459.019,335.239,456.458,337.8,453.31,337.8z M260.212,55.203
			c-3.009,0-5.457,2.448-5.457,5.458v271.432c0,3.01,2.448,5.458,5.457,5.458H453.31c3.01,0,5.458-2.448,5.458-5.458V60.66
			c0-3.009-2.448-5.458-5.458-5.458H260.212z"/>
	</g>
	<g>
		<g>
			<path style="fill:#F0F0F0;" d="M353.927,98.135c0-2.701-2.189-4.89-4.89-4.89c-0.488,0-0.959,0.074-1.404,0.207
				c0.071-0.49,0.11-0.991,0.11-1.501c0-5.719-4.636-10.355-10.355-10.355c-0.652,0-1.289,0.063-1.907,0.178
				c-1.592-2.605-4.453-4.349-7.728-4.349c-4.958,0-8.98,3.984-9.054,8.925c-0.051-0.001-0.1-0.008-0.151-0.008
				c-4.607,0-8.342,3.735-8.342,8.342s3.735,8.342,8.342,8.342h30.634l-0.006-0.007C351.811,102.945,353.927,100.789,353.927,98.135
				z"/>
			<polygon style="fill:#E0E0E0;" points="335.954,105.453 335.954,95.92 328.178,95.92 328.178,105.453 321.847,105.453 
				332.066,114.088 342.285,105.453 			"/>
		</g>
		<g>
			<path style="fill:#F0F0F0;" d="M200.681,112.556c0-5.735-4.65-10.385-10.385-10.385c-1.037,0-2.037,0.157-2.982,0.44
				c0.151-1.041,0.233-2.105,0.233-3.189c0-12.146-9.846-21.992-21.992-21.992c-1.384,0-2.737,0.134-4.051,0.379
				c-3.38-5.532-9.457-9.237-16.414-9.237c-10.53,0-19.072,8.461-19.229,18.954c-0.108-0.002-0.212-0.016-0.32-0.016
				c-9.784,0-17.716,7.932-17.716,17.716c0,9.784,7.932,17.716,17.716,17.716h65.06l-0.013-0.015
				C196.187,122.771,200.681,118.193,200.681,112.556z"/>
			<polygon style="fill:#E0E0E0;" points="145.996,113.363 145.996,133.608 162.51,133.608 162.51,113.363 175.956,113.363 
				154.253,95.023 132.549,113.363 			"/>
		</g>
		<g>
			<polyline style="fill:none;stroke:#E6E6E6;stroke-miterlimit:10;" points="208.971,163.132 208.971,135.904 292.354,135.904 
				292.354,162.857 			"/>
			<line style="fill:none;stroke:#E6E6E6;stroke-miterlimit:10;" x1="251.895" y1="110.244" x2="251.895" y2="163.057"/>
			<g>
				<path style="fill:#F0F0F0;" d="M266.077,99.87h-28.364c-0.655,0-1.187,0.531-1.187,1.187v16.881
					c0,0.655,0.531,1.187,1.187,1.187h28.364c0.655,0,1.187-0.531,1.187-1.187v-16.881C267.263,100.401,266.732,99.87,266.077,99.87
					z"/>
				<path style="fill:#E0E0E0;" d="M265.781,118.355h-27.772c-0.233,0-0.421-0.188-0.421-0.421v-15.381
					c0-0.233,0.189-0.421,0.421-0.421h27.772c0.233,0,0.421,0.189,0.421,0.421v15.381
					C266.202,118.167,266.013,118.355,265.781,118.355z"/>
			</g>
			<g>
				<path style="fill:#F0F0F0;" d="M223.152,160.663h-28.364c-0.656,0-1.187,0.531-1.187,1.187v16.881
					c0,0.655,0.531,1.187,1.187,1.187h28.364c0.656,0,1.187-0.531,1.187-1.187v-16.881
					C224.339,161.194,223.808,160.663,223.152,160.663z"/>
				<path style="fill:#E0E0E0;" d="M222.857,179.148h-27.772c-0.233,0-0.421-0.188-0.421-0.421v-15.381
					c0-0.233,0.188-0.421,0.421-0.421h27.772c0.233,0,0.421,0.189,0.421,0.421v15.381
					C223.278,178.96,223.089,179.148,222.857,179.148z"/>
			</g>
			<g>
				<path style="fill:#F0F0F0;" d="M266.077,160.663h-28.364c-0.655,0-1.187,0.531-1.187,1.187v16.881
					c0,0.655,0.531,1.187,1.187,1.187h28.364c0.655,0,1.187-0.531,1.187-1.187v-16.881
					C267.263,161.194,266.732,160.663,266.077,160.663z"/>
				<path style="fill:#E0E0E0;" d="M265.781,179.148h-27.772c-0.233,0-0.421-0.188-0.421-0.421v-15.381
					c0-0.233,0.189-0.421,0.421-0.421h27.772c0.233,0,0.421,0.189,0.421,0.421v15.381
					C266.202,178.96,266.013,179.148,265.781,179.148z"/>
			</g>
			<g>
				<path style="fill:#F0F0F0;" d="M306.602,160.663h-28.364c-0.655,0-1.187,0.531-1.187,1.187v16.881
					c0,0.655,0.531,1.187,1.187,1.187h28.364c0.655,0,1.187-0.531,1.187-1.187v-16.881
					C307.789,161.194,307.258,160.663,306.602,160.663z"/>
				<path style="fill:#E0E0E0;" d="M306.306,179.148h-27.772c-0.233,0-0.421-0.188-0.421-0.421v-15.381
					c0-0.233,0.189-0.421,0.421-0.421h27.772c0.233,0,0.421,0.189,0.421,0.421v15.381
					C306.728,178.96,306.539,179.148,306.306,179.148z"/>
			</g>
			<path style="fill:#E0E0E0;enable-background:new    ;" d="M251.325,127.648l-7.687,7.687c-0.315,0.315-0.315,0.825,0,1.139
				l7.687,7.687c0.315,0.315,0.825,0.315,1.139,0l7.687-7.687c0.315-0.314,0.315-0.824,0-1.139l-7.687-7.687
				C252.15,127.333,251.639,127.333,251.325,127.648z"/>
		</g>
		<g>
			<path style="opacity:0.8;fill:#E0E0E0;" d="M89.084,135.684H69.077c-0.481,0-0.871-0.39-0.871-0.871v-11.292
				c0-0.481,0.39-0.871,0.871-0.871h20.007c0.481,0,0.871,0.39,0.871,0.871v11.292C89.955,135.294,89.565,135.684,89.084,135.684z"
				/>
			<path style="fill:#E0E0E0;" d="M73.821,160.634H57.973c-0.481,0-0.871-0.39-0.871-0.871v-8.207c0-0.481,0.39-0.871,0.871-0.871
				h15.848c0.481,0,0.871,0.39,0.871,0.871v8.207C74.692,160.244,74.302,160.634,73.821,160.634z"/>
			<path style="fill:#E0E0E0;" d="M100.51,160.634H84.662c-0.481,0-0.871-0.39-0.871-0.871v-8.207c0-0.481,0.39-0.871,0.871-0.871
				h15.848c0.481,0,0.871,0.39,0.871,0.871v8.207C101.382,160.244,100.992,160.634,100.51,160.634z"/>
			<g>
				<path style="fill:#E0E0E0;" d="M84.1,180.238h-7.49c-0.481,0-0.871-0.39-0.871-0.871v-6.756c0-0.481,0.39-0.871,0.871-0.871
					h7.49c0.481,0,0.871,0.39,0.871,0.871v6.756C84.971,179.848,84.581,180.238,84.1,180.238z"/>
				<path style="fill:#E0E0E0;" d="M95.826,180.238h-7.49c-0.481,0-0.871-0.39-0.871-0.871v-6.756c0-0.481,0.39-0.871,0.871-0.871
					h7.49c0.481,0,0.871,0.39,0.871,0.871v6.756C96.697,179.848,96.307,180.238,95.826,180.238z"/>
				<path style="fill:#E0E0E0;" d="M107.551,180.238h-7.49c-0.481,0-0.871-0.39-0.871-0.871v-6.756c0-0.481,0.39-0.871,0.871-0.871
					h7.49c0.481,0,0.871,0.39,0.871,0.871v6.756C108.423,179.848,108.033,180.238,107.551,180.238z"/>
			</g>
			<path style="fill:#E0E0E0;" d="M56.968,180.238h-7.49c-0.481,0-0.871-0.39-0.871-0.871v-6.756c0-0.481,0.39-0.871,0.871-0.871
				h7.49c0.481,0,0.871,0.39,0.871,0.871v6.756C57.839,179.848,57.449,180.238,56.968,180.238z"/>
			<path style="fill:#E0E0E0;" d="M69.694,180.238h-7.49c-0.481,0-0.871-0.39-0.871-0.871v-6.756c0-0.481,0.39-0.871,0.871-0.871
				h7.49c0.481,0,0.871,0.39,0.871,0.871v6.756C70.565,179.848,70.175,180.238,69.694,180.238z"/>
			<g>
				<polygon style="fill:#E0E0E0;" points="91.58,150.684 92.58,150.684 92.58,143.684 79.58,143.684 79.58,135.684 78.58,135.684 
					78.58,143.684 65.58,143.684 65.58,150.684 66.58,150.684 66.58,144.684 91.58,144.684 				"/>
				<polygon style="fill:#E0E0E0;" points="65.58,166.684 52.58,166.684 52.58,171.684 53.58,171.684 53.58,167.684 65.58,167.684 
					65.58,171.684 66.58,171.684 66.58,160.684 65.58,160.684 				"/>
				<polygon style="fill:#E0E0E0;" points="92.58,167.684 92.58,160.684 91.58,160.684 91.58,167.684 79.58,167.684 79.58,171.684 
					80.58,171.684 80.58,168.684 91.58,168.684 91.58,171.684 92.58,171.684 92.58,168.684 103.58,168.684 103.58,171.684 
					104.58,171.684 104.58,167.684 				"/>
			</g>
		</g>
		<g>
			<path style="fill:#F5F5F5;" d="M380.993,125.78v7.184l3.699,0.348c0.499,2.408,1.454,4.647,2.759,6.635l-2.376,2.87l5.079,5.08
				l2.87-2.376c1.988,1.305,4.227,2.26,6.635,2.759l0.348,3.699h7.184l0.348-3.699c2.408-0.499,4.647-1.454,6.635-2.759l2.87,2.376
				l5.08-5.08l-2.376-2.87c1.305-1.989,2.259-4.227,2.759-6.635l3.699-0.348v-7.184l-3.699-0.348
				c-0.499-2.408-1.454-4.647-2.759-6.635l2.376-2.87l-5.08-5.08l-2.87,2.376c-1.988-1.305-4.227-2.259-6.635-2.758l-0.348-3.699
				h-7.184l-0.348,3.699c-2.408,0.499-4.647,1.454-6.635,2.758l-2.87-2.376l-5.079,5.08l2.376,2.87
				c-1.305,1.988-2.259,4.227-2.759,6.636L380.993,125.78z M403.6,119.646c5.371,0,9.725,4.354,9.725,9.725
				c0,5.371-4.354,9.725-9.725,9.725c-5.371,0-9.725-4.354-9.725-9.725C393.875,124,398.229,119.646,403.6,119.646z"/>
			<path style="fill:#F5F5F5;" d="M385.633,178.196c1.887-0.391,3.641-1.139,5.2-2.162l2.249,1.862l3.981-3.98l-1.862-2.249
				c1.022-1.558,1.771-3.313,2.162-5.2l2.898-0.273v-5.629l-2.898-0.273c-0.391-1.887-1.139-3.641-2.162-5.2l1.862-2.249
				l-3.981-3.98l-2.249,1.862c-1.559-1.022-3.313-1.77-5.2-2.162l-0.273-2.898h-5.63l-0.273,2.898
				c-1.887,0.391-3.641,1.139-5.199,2.162l-2.249-1.862l-3.981,3.98l1.862,2.249c-1.022,1.558-1.77,3.313-2.162,5.2l-2.898,0.273
				v5.629l2.898,0.273c0.391,1.887,1.139,3.642,2.162,5.2l-1.862,2.249l3.981,3.98l2.249-1.862c1.558,1.023,3.312,1.771,5.199,2.162
				l0.273,2.898h5.63L385.633,178.196z M374.924,163.379c0-4.208,3.412-7.621,7.621-7.621c4.209,0,7.621,3.412,7.621,7.621
				c0,4.209-3.412,7.621-7.621,7.621C378.336,171,374.924,167.588,374.924,163.379z"/>
			<path style="fill:#F5F5F5;" d="M373.074,147.728l1.889,1.564l3.344-3.344l-1.564-1.889c0.859-1.309,1.487-2.783,1.815-4.367
				l2.435-0.229v-4.728l-2.435-0.23c-0.329-1.585-0.957-3.059-1.816-4.367l1.564-1.889l-3.344-3.344l-1.889,1.564
				c-1.309-0.859-2.783-1.487-4.367-1.816l-0.229-2.435l-4.728,0l-0.229,2.434c-1.585,0.329-3.059,0.957-4.367,1.816l-1.889-1.564
				l-3.344,3.344l1.564,1.889c-0.859,1.309-1.487,2.782-1.816,4.367l-2.434,0.23v4.728l2.434,0.229
				c0.329,1.585,0.957,3.059,1.816,4.367l-1.564,1.889l3.344,3.344l1.889-1.564c1.309,0.859,2.782,1.487,4.367,1.816l0.229,2.435
				h4.728l0.229-2.435C370.291,149.215,371.765,148.587,373.074,147.728z M359.712,137.099c0-3.535,2.866-6.401,6.401-6.401
				c3.535,0,6.401,2.866,6.401,6.401c0,3.535-2.866,6.401-6.401,6.401C362.578,143.5,359.712,140.634,359.712,137.099z"/>
		</g>
		<g>
			<g>
				<rect x="372.236" y="324.031" style="fill:#F5F5F5;" width="67.148" height="43.674"/>
			</g>
			<rect x="374.692" y="332.22" style="fill:#E0E0E0;" width="62.235" height="33.301"/>
			<g>
				<rect x="379.764" y="337.195" style="fill:#F5F5F5;" width="46.037" height="1.433"/>
				<rect x="379.764" y="341.583" style="fill:#F5F5F5;" width="22.088" height="1.433"/>
				<rect x="379.764" y="345.97" style="fill:#F5F5F5;" width="27.82" height="1.433"/>
				<rect x="379.764" y="350.358" style="fill:#F5F5F5;" width="9.805" height="1.433"/>
				<rect x="379.764" y="354.745" style="fill:#F5F5F5;" width="6.349" height="1.433"/>
			</g>
		</g>
		<g>
			
				<rect x="47.879" y="323.893" transform="matrix(1 -0.0046 0.0046 1 -1.5428 0.3307)" style="fill:#EBEBEB;" width="47.781" height="29.471"/>
			<g>
				<g>
					<path style="fill:#FAFAFA;" d="M66.142,346.063c-0.205,0-0.411-0.063-0.589-0.192l-8.718-6.369
						c-0.256-0.188-0.409-0.485-0.41-0.803c-0.001-0.318,0.148-0.617,0.403-0.807l8.66-6.447c0.443-0.33,1.07-0.237,1.399,0.204
						c0.33,0.443,0.238,1.07-0.205,1.399l-7.572,5.638l7.623,5.569c0.446,0.326,0.543,0.951,0.218,1.398
						C66.755,345.921,66.451,346.063,66.142,346.063z"/>
				</g>
				<g>
					<path style="fill:#FAFAFA;" d="M77.455,346.011c-0.305,0-0.607-0.139-0.803-0.402c-0.33-0.443-0.238-1.07,0.205-1.4
						l7.572-5.639l-7.623-5.568c-0.446-0.326-0.543-0.951-0.218-1.397c0.326-0.446,0.952-0.544,1.397-0.218l8.718,6.368
						c0.256,0.188,0.409,0.485,0.41,0.803c0.001,0.317-0.148,0.617-0.403,0.807l-8.659,6.448
						C77.872,345.946,77.663,346.011,77.455,346.011z"/>
				</g>
				<g>
					<path style="fill:#FAFAFA;" d="M69.524,346.047c-0.109,0-0.221-0.018-0.33-0.056c-0.521-0.183-0.796-0.753-0.614-1.274
						l4.491-12.838c0.182-0.521,0.753-0.797,1.274-0.614c0.521,0.183,0.796,0.753,0.614,1.274l-4.491,12.838
						C70.324,345.789,69.937,346.047,69.524,346.047z"/>
				</g>
			</g>
		</g>
	</g>
</g>
<g id="Background_Simple" style="display:none;">
	<g style="display:inline;">
		<path style="fill:#407BFF;" d="M152.922,93.352c19.942-11.216,42.317-18.281,65.132-18.435
			c26.758-0.181,54.024,9.774,72.272,29.345c7.372,7.907,13.163,17.163,20.401,25.193c7.238,8.029,16.482,15.024,27.217,16.299
			c11.539,1.37,22.796-4.012,34.393-4.743c27.014-1.703,45.94,23.231,47.619,48.118c1.995,29.578-19.846,60.343-39.547,80.092
			c-23.894,23.951-51.856,43.201-78.68,63.628c-26.126,19.896-49.802,43.421-78.659,59.492
			c-12.562,6.996-26.359,12.597-40.738,12.742c-21.818,0.221-38.737-12.928-42.59-34.452c-2.392-13.363-0.068-26.938-2.273-40.341
			c-5.443-33.079-35.97-55.945-49.595-86.576c-11.371-25.564-10.066-55.836,0.826-81.608s30.762-47.168,54.113-62.582
			C146.102,97.352,149.476,95.29,152.922,93.352z"/>
		<path style="opacity:0.9;fill:#FFFFFF;" d="M152.922,93.352c19.942-11.216,42.317-18.281,65.132-18.435
			c26.758-0.181,54.024,9.774,72.272,29.345c7.372,7.907,13.163,17.163,20.401,25.193c7.238,8.029,16.482,15.024,27.217,16.299
			c11.539,1.37,22.796-4.012,34.393-4.743c27.014-1.703,45.94,23.231,47.619,48.118c1.995,29.578-19.846,60.343-39.547,80.092
			c-23.894,23.951-51.856,43.201-78.68,63.628c-26.126,19.896-49.802,43.421-78.659,59.492
			c-12.562,6.996-26.359,12.597-40.738,12.742c-21.818,0.221-38.737-12.928-42.59-34.452c-2.392-13.363-0.068-26.938-2.273-40.341
			c-5.443-33.079-35.97-55.945-49.595-86.576c-11.371-25.564-10.066-55.836,0.826-81.608s30.762-47.168,54.113-62.582
			C146.102,97.352,149.476,95.29,152.922,93.352z"/>
	</g>
</g>
<g id="Shadow_1_">
	<ellipse id="_x3C_Path_x3E__359_" style="fill:#F5F5F5;" cx="250" cy="416.238" rx="193.889" ry="11.323"/>
</g>
<g id="Ladder">
	<g>
		<g>
			<polygon style="fill:#263238;" points="334.385,416.24 341.725,416.24 351.725,360.998 344.385,360.998 			"/>
			<polygon style="opacity:0.2;fill:#FFFFFF;" points="334.385,416.24 341.725,416.24 351.725,360.998 344.385,360.998 			"/>
			<polygon style="opacity:0.2;fill:#FFFFFF;" points="334.385,416.24 339.725,416.24 349.725,360.998 344.385,360.998 			"/>
		</g>
		<path style="fill:#263238;" d="M313.688,377.432h29.393c0.896,0,1.622-0.726,1.622-1.622l0,0c0-0.896-0.726-1.622-1.622-1.622
			h-29.393c-0.896,0-1.622,0.726-1.622,1.622l0,0C312.066,376.705,312.792,377.432,313.688,377.432z"/>
		<path style="fill:#263238;" d="M310.425,395.926h29.393c0.896,0,1.622-0.726,1.622-1.622l0,0c0-0.896-0.726-1.622-1.622-1.622
			h-29.393c-0.896,0-1.622,0.726-1.622,1.622l0,0C308.802,395.2,309.529,395.926,310.425,395.926z"/>
		<g>
			<polygon style="fill:#263238;" points="304.385,416.24 311.725,416.24 321.725,360.998 314.385,360.998 			"/>
			<polygon style="opacity:0.2;fill:#FFFFFF;" points="304.385,416.24 311.725,416.24 321.725,360.998 314.385,360.998 			"/>
			<polygon style="opacity:0.2;fill:#FFFFFF;" points="304.385,416.24 309.725,416.24 319.725,360.998 314.385,360.998 			"/>
		</g>
		<g>
			<polygon style="fill:#263238;" points="372.725,416.24 365.385,416.24 355.385,360.998 362.725,360.998 			"/>
			<polygon style="opacity:0.4;fill:#FFFFFF;" points="372.725,416.24 365.385,416.24 355.385,360.998 362.725,360.998 			"/>
			<polygon style="opacity:0.2;fill:#FFFFFF;" points="370.725,416.24 365.385,416.24 355.385,360.998 360.725,360.998 			"/>
		</g>
		<path style="fill:#263238;" d="M359.817,377.432h-29.393c-0.896,0-1.622-0.726-1.622-1.622l0,0c0-0.896,0.726-1.622,1.622-1.622
			h29.393c0.896,0,1.622,0.726,1.622,1.622l0,0C361.44,376.705,360.713,377.432,359.817,377.432z"/>
		<path style="fill:#263238;" d="M363.081,395.926h-29.393c-0.896,0-1.622-0.726-1.622-1.622l0,0c0-0.896,0.726-1.622,1.622-1.622
			h29.393c0.896,0,1.622,0.726,1.622,1.622l0,0C364.703,395.2,363.977,395.926,363.081,395.926z"/>
		<path style="opacity:0.2;fill:#FFFFFF;" d="M359.817,377.432h-29.393c-0.896,0-1.622-0.726-1.622-1.622l0,0
			c0-0.896,0.726-1.622,1.622-1.622h29.393c0.896,0,1.622,0.726,1.622,1.622l0,0C361.44,376.705,360.713,377.432,359.817,377.432z"
			/>
		<path style="opacity:0.2;fill:#FFFFFF;" d="M363.081,395.926h-29.393c-0.896,0-1.622-0.726-1.622-1.622l0,0
			c0-0.896,0.726-1.622,1.622-1.622h29.393c0.896,0,1.622,0.726,1.622,1.622l0,0C364.703,395.2,363.977,395.926,363.081,395.926z"/>
		<g>
			<polygon style="fill:#263238;" points="342.725,416.24 335.385,416.24 325.385,360.998 332.725,360.998 			"/>
			<polygon style="opacity:0.4;fill:#FFFFFF;" points="342.725,416.24 335.385,416.24 325.385,360.998 332.725,360.998 			"/>
			<polygon style="opacity:0.2;fill:#FFFFFF;" points="340.725,416.24 335.385,416.24 325.385,360.998 330.725,360.998 			"/>
		</g>
		<g>
			<path style="fill:#263238;" d="M365.593,363.633h-53.099c-0.656,0-1.187-0.531-1.187-1.187v-2.897
				c0-0.655,0.531-1.187,1.187-1.187h53.099c0.655,0,1.187,0.531,1.187,1.187v2.897C366.78,363.102,366.249,363.633,365.593,363.633
				z"/>
			<path style="opacity:0.2;fill:#FFFFFF;" d="M332.681,363.633h-20.186c-0.656,0-1.187-0.531-1.187-1.187v-2.897
				c0-0.655,0.531-1.187,1.187-1.187h20.186c0.655,0,1.187,0.531,1.187,1.187v2.897
				C333.868,363.102,333.336,363.633,332.681,363.633z"/>
		</g>
	</g>
</g>
<g id="interface">
	<g>
		<g>
			<rect x="127.203" y="371.847" style="fill:#407BFF;" width="67.148" height="43.674"/>
			<rect x="127.203" y="371.847" style="opacity:0.6;fill:#FFFFFF;enable-background:new    ;" width="67.148" height="43.674"/>
		</g>
		<rect x="129.66" y="380.036" style="fill:#407BFF;" width="62.235" height="33.301"/>
		<g>
			<rect x="134.731" y="385.012" style="fill:#FFFFFF;" width="46.037" height="1.433"/>
			<rect x="134.731" y="389.399" style="fill:#FFFFFF;" width="22.088" height="1.433"/>
			<rect x="134.731" y="393.787" style="fill:#FFFFFF;" width="27.82" height="1.433"/>
			<rect x="134.731" y="398.174" style="fill:#FFFFFF;" width="9.805" height="1.433"/>
			<rect x="134.731" y="402.561" style="fill:#FFFFFF;" width="6.35" height="1.433"/>
		</g>
	</g>
</g>
<g id="Monitor">
	<g>
		<g>
			<polygon style="fill:#407BFF;" points="277.333,416.238 222.667,416.238 231.924,343.57 268.076,343.57 			"/>
			<polygon style="opacity:0.6;fill:#FFFFFF;" points="277.33,416.24 222.668,416.24 229.003,366.523 231.925,343.57 
				268.073,343.57 272.388,377.432 			"/>
			<polygon style="opacity:0.1;enable-background:new    ;" points="272.388,377.432 229.003,366.523 231.925,343.57 
				268.073,343.57 			"/>
		</g>
		<g>
			<path style="fill:#407BFF;" d="M378.866,164.382h-5.463H126.596h-5.463c-3.643,0-6.595,2.953-6.595,6.595v174.481
				c0,3.642,2.953,6.595,6.595,6.595h5.463h246.808h5.463c3.643,0,6.596-2.953,6.596-6.595V170.977
				C385.462,167.335,382.509,164.382,378.866,164.382z"/>
			<path style="opacity:0.7;fill:#FFFFFF;" d="M378.866,164.382h-5.463H126.596h-5.463c-3.643,0-6.595,2.953-6.595,6.595v174.481
				c0,3.642,2.953,6.595,6.595,6.595h5.463h246.808h5.463c3.643,0,6.596-2.953,6.596-6.595V170.977
				C385.462,167.335,382.509,164.382,378.866,164.382z"/>
		</g>
		<rect x="123.217" y="170.841" style="fill:#407BFF;" width="253.57" height="168.25"/>
		<g>
			<path style="fill:#407BFF;" d="M295.908,410.778h-91.817c-0.572,0-1.037,0.464-1.037,1.037v3.299
				c0,0.573,0.464,1.037,1.037,1.037h91.817c0.573,0,1.037-0.464,1.037-1.037v-3.299
				C296.945,411.242,296.481,410.778,295.908,410.778z"/>
			<path style="opacity:0.7;fill:#FFFFFF;" d="M295.908,410.778h-91.817c-0.572,0-1.037,0.464-1.037,1.037v3.299
				c0,0.573,0.464,1.037,1.037,1.037h91.817c0.573,0,1.037-0.464,1.037-1.037v-3.299
				C296.945,411.242,296.481,410.778,295.908,410.778z"/>
		</g>
		<g>
			<rect x="123.217" y="171.001" style="opacity:0.2;enable-background:new    ;" width="253.57" height="25.078"/>
			<rect x="123.217" y="196.376" style="opacity:0.4;fill:#FFFFFF;" width="108.662" height="142.715"/>
			<g>
				<g>
					<g>
						<polyline style="fill:none;stroke:#FFFFFF;stroke-miterlimit:10;" points="337.762,232.781 337.762,235.281 335.262,235.281 
													"/>
						
							<line style="fill:none;stroke:#FFFFFF;stroke-miterlimit:10;stroke-dasharray:5.2837,5.2837;" x1="329.978" y1="235.281" x2="248.08" y2="235.281"/>
						<polyline style="fill:none;stroke:#FFFFFF;stroke-miterlimit:10;" points="245.439,235.281 242.939,235.281 242.939,232.781 
													"/>
						
							<line style="fill:none;stroke:#FFFFFF;stroke-miterlimit:10;stroke-dasharray:4.5294,4.5294;" x1="242.939" y1="228.252" x2="242.939" y2="185.222"/>
						<polyline style="fill:none;stroke:#FFFFFF;stroke-miterlimit:10;" points="242.939,182.958 242.939,180.458 245.439,180.458 
													"/>
						
							<line style="fill:none;stroke:#FFFFFF;stroke-miterlimit:10;stroke-dasharray:5.2837,5.2837;" x1="250.722" y1="180.458" x2="332.62" y2="180.458"/>
						<polyline style="fill:none;stroke:#FFFFFF;stroke-miterlimit:10;" points="335.262,180.458 337.762,180.458 337.762,182.958 
													"/>
						
							<line style="fill:none;stroke:#FFFFFF;stroke-miterlimit:10;stroke-dasharray:4.5294,4.5294;" x1="337.762" y1="187.487" x2="337.762" y2="230.516"/>
					</g>
				</g>
				<g>
					<rect x="336.177" y="178.873" style="fill:#407BFF;stroke:#FFFFFF;stroke-miterlimit:10;" width="3.17" height="3.17"/>
					<rect x="336.177" y="233.696" style="fill:#407BFF;stroke:#FFFFFF;stroke-miterlimit:10;" width="3.17" height="3.17"/>
					<rect x="241.353" y="178.873" style="fill:#407BFF;stroke:#FFFFFF;stroke-miterlimit:10;" width="3.17" height="3.17"/>
					<rect x="241.353" y="233.696" style="fill:#407BFF;stroke:#FFFFFF;stroke-miterlimit:10;" width="3.17" height="3.17"/>
				</g>
				<g>
					<rect x="288.765" y="178.873" style="fill:#407BFF;stroke:#FFFFFF;stroke-miterlimit:10;" width="3.17" height="3.17"/>
					<rect x="288.765" y="233.696" style="fill:#407BFF;stroke:#FFFFFF;stroke-miterlimit:10;" width="3.17" height="3.17"/>
				</g>
				<g>
					<rect x="336.177" y="206.284" style="fill:#407BFF;stroke:#FFFFFF;stroke-miterlimit:10;" width="3.17" height="3.17"/>
					<rect x="241.353" y="206.284" style="fill:#407BFF;stroke:#FFFFFF;stroke-miterlimit:10;" width="3.17" height="3.17"/>
				</g>
			</g>
			<path style="opacity:0.7;fill:#FFFFFF;" d="M329.15,208.858h-23.202c-1.046,0-1.894-0.848-1.894-1.893v-6.199
				c0-1.046,0.848-1.893,1.894-1.893h23.202c1.046,0,1.894,0.848,1.894,1.893v6.199C331.044,208.01,330.196,208.858,329.15,208.858z
				"/>
			<path style="opacity:0.7;fill:#FFFFFF;" d="M289.15,208.858h-23.202c-1.046,0-1.894-0.848-1.894-1.893v-6.199
				c0-1.046,0.848-1.893,1.894-1.893h23.202c1.046,0,1.894,0.848,1.894,1.893v6.199C291.044,208.01,290.196,208.858,289.15,208.858z
				"/>
			<path style="opacity:0.7;fill:#FFFFFF;" d="M237.652,330.447H214.45c-1.046,0-1.894-0.848-1.894-1.894v-6.199
				c0-1.046,0.848-1.893,1.894-1.893h23.202c1.046,0,1.894,0.848,1.894,1.893v6.199
				C239.546,329.599,238.698,330.447,237.652,330.447z"/>
			<g>
				
					<line style="fill:none;stroke:#FFFFFF;stroke-width:1.5;stroke-linecap:round;stroke-linejoin:round;stroke-miterlimit:10;" x1="360.055" y1="179.918" x2="368.495" y2="179.918"/>
				
					<line style="fill:none;stroke:#FFFFFF;stroke-width:1.5;stroke-linecap:round;stroke-linejoin:round;stroke-miterlimit:10;" x1="360.055" y1="183.918" x2="368.495" y2="183.918"/>
				
					<line style="fill:none;stroke:#FFFFFF;stroke-width:1.5;stroke-linecap:round;stroke-linejoin:round;stroke-miterlimit:10;" x1="360.055" y1="187.918" x2="368.495" y2="187.918"/>
			</g>
			<rect x="140.407" y="218.498" style="opacity:0.5;fill:#FFFFFF;" width="85.053" height="85.053"/>
			<g>
				<line style="fill:none;stroke:#407BFF;stroke-miterlimit:10;" x1="176.011" y1="225.455" x2="176.011" y2="298.815"/>
				<path style="fill:none;stroke:#407BFF;stroke-miterlimit:10;" d="M212.691,298.815L212.691,298.815
					c-20.258,0-36.68-16.422-36.68-36.68v0c0-20.258,16.422-36.68,36.68-36.68l0,0"/>
				<rect x="211.106" y="223.87" style="fill:#FFFFFF;stroke:#407BFF;stroke-miterlimit:10;" width="3.17" height="3.17"/>
				<rect x="211.106" y="297.23" style="fill:#FFFFFF;stroke:#407BFF;stroke-miterlimit:10;" width="3.17" height="3.17"/>
				<rect x="174.426" y="260.55" style="fill:#FFFFFF;stroke:#407BFF;stroke-miterlimit:10;" width="3.17" height="3.17"/>
				<path style="fill:#FFFFFF;stroke:#407BFF;stroke-miterlimit:10;" d="M176.833,225.455c0,0.454-0.368,0.822-0.822,0.822
					s-0.822-0.368-0.822-0.822c0-0.454,0.368-0.822,0.822-0.822S176.833,225.001,176.833,225.455z"/>
				<path style="fill:#FFFFFF;stroke:#407BFF;stroke-miterlimit:10;" d="M176.833,298.815c0,0.454-0.368,0.822-0.822,0.822
					s-0.822-0.368-0.822-0.822c0-0.454,0.368-0.822,0.822-0.822S176.833,298.361,176.833,298.815z"/>
			</g>
			<path style="opacity:0.7;fill:#FFFFFF;" d="M316.928,321.669h-25.746c-4.109,0-7.44-3.331-7.44-7.44l0,0
				c0-4.109,3.331-7.44,7.44-7.44h25.746c4.109,0,7.44,3.331,7.44,7.44l0,0C324.368,318.338,321.037,321.669,316.928,321.669z"/>
			<path style="opacity:0.7;fill:#FFFFFF;" d="M339.551,258.218h-79.54c-0.898,0-1.626-0.728-1.626-1.626l0,0
				c0-0.898,0.728-1.626,1.626-1.626h79.54c0.898,0,1.626,0.728,1.626,1.626l0,0C341.177,257.49,340.449,258.218,339.551,258.218z"
				/>
			<path style="opacity:0.7;fill:#FFFFFF;" d="M339.551,270.095h-79.54c-0.898,0-1.626-0.728-1.626-1.626l0,0
				c0-0.898,0.728-1.626,1.626-1.626h79.54c0.898,0,1.626,0.728,1.626,1.626l0,0C341.177,269.367,340.449,270.095,339.551,270.095z"
				/>
			<path style="opacity:0.7;fill:#FFFFFF;" d="M339.551,281.971h-49.54c-0.898,0-1.626-0.728-1.626-1.626l0,0
				c0-0.898,0.728-1.626,1.626-1.626h49.54c0.898,0,1.626,0.728,1.626,1.626l0,0C341.177,281.243,340.449,281.971,339.551,281.971z"
				/>
			<g>
				<rect x="131.225" y="177.953" style="opacity:0.4;enable-background:new    ;" width="5.619" height="5.619"/>
				<path style="opacity:0.4;enable-background:new    ;" d="M146.33,183.572h-2.74c-0.795,0-1.44-0.645-1.44-1.439v-2.74
					c0-0.795,0.645-1.439,1.44-1.439h2.74c0.795,0,1.44,0.645,1.44,1.439v2.74C147.77,182.927,147.125,183.572,146.33,183.572z"/>
				<path style="opacity:0.4;enable-background:new    ;" d="M156.124,183.572h-0.476c-1.42,0-2.571-1.151-2.571-2.571v-0.476
					c0-1.42,1.151-2.571,2.571-2.571h0.476c1.42,0,2.572,1.151,2.572,2.571V181C158.695,182.42,157.544,183.572,156.124,183.572z"/>
			</g>
			<g>
				<g>
					<path style="opacity:0.9;fill:#FFFFFF;" d="M148.455,316.502v-2.19l-1.128-0.106c-0.152-0.734-0.443-1.416-0.841-2.023
						l0.724-0.875l-1.548-1.548l-0.875,0.724c-0.606-0.398-1.288-0.689-2.022-0.841l-0.106-1.128h-2.19l-0.106,1.128
						c-0.734,0.152-1.416,0.443-2.023,0.841l-0.875-0.724l-1.548,1.548l0.724,0.875c-0.398,0.606-0.689,1.289-0.841,2.023
						l-1.128,0.106v2.19l1.128,0.106c0.152,0.734,0.443,1.417,0.841,2.023l-0.724,0.875l1.548,1.548l0.875-0.724
						c0.606,0.398,1.289,0.689,2.023,0.841l0.106,1.128h2.19l0.106-1.128c0.734-0.152,1.416-0.443,2.023-0.841l0.875,0.724
						l1.548-1.548l-0.724-0.875c0.398-0.606,0.689-1.289,0.841-2.023L148.455,316.502z M141.564,318.371
						c-1.637,0-2.964-1.327-2.964-2.964s1.327-2.964,2.964-2.964c1.637,0,2.964,1.327,2.964,2.964S143.201,318.371,141.564,318.371z
						"/>
					<path style="opacity:0.6;fill:#FFFFFF;" d="M157.33,322.683v-1.716l-0.883-0.083c-0.119-0.575-0.347-1.11-0.659-1.585
						l0.568-0.685l-1.213-1.213l-0.686,0.568c-0.475-0.312-1.01-0.54-1.585-0.659l-0.083-0.883h-1.716l-0.083,0.883
						c-0.575,0.119-1.11,0.347-1.585,0.659l-0.685-0.568l-1.213,1.213l0.568,0.685c-0.312,0.475-0.54,1.01-0.659,1.585l-0.883,0.083
						v1.716l0.883,0.083c0.119,0.575,0.347,1.11,0.659,1.585l-0.568,0.685l1.213,1.213l0.685-0.568
						c0.475,0.312,1.01,0.54,1.585,0.659l0.083,0.884h1.716l0.083-0.884c0.575-0.119,1.11-0.347,1.585-0.659l0.686,0.568
						l1.213-1.213l-0.568-0.685c0.312-0.475,0.54-1.01,0.659-1.585L157.33,322.683z M151.93,324.148
						c-1.283,0-2.323-1.04-2.323-2.323c0-1.283,1.04-2.323,2.323-2.323s2.323,1.04,2.323,2.323
						C154.253,323.108,153.213,324.148,151.93,324.148z"/>
					<path style="opacity:0.4;fill:#FFFFFF;" d="M148.455,327.554v-1.441l-0.742-0.07c-0.1-0.483-0.292-0.932-0.553-1.331
						l0.477-0.576l-1.019-1.019l-0.576,0.477c-0.399-0.262-0.848-0.453-1.331-0.553l-0.07-0.742h-1.441l-0.07,0.742
						c-0.483,0.1-0.932,0.292-1.331,0.553l-0.576-0.477l-1.019,1.019l0.477,0.576c-0.262,0.399-0.453,0.848-0.553,1.331l-0.742,0.07
						l0,1.441l0.742,0.07c0.1,0.483,0.292,0.932,0.553,1.331l-0.477,0.576l1.019,1.019l0.576-0.477
						c0.399,0.262,0.848,0.453,1.331,0.553l0.07,0.742h1.441l0.07-0.742c0.483-0.1,0.932-0.292,1.331-0.553l0.576,0.477l1.019-1.019
						l-0.477-0.576c0.262-0.399,0.453-0.848,0.554-1.331L148.455,327.554z M143.919,328.785c-1.078,0-1.951-0.874-1.951-1.951
						c0-1.077,0.874-1.951,1.951-1.951c1.077,0,1.951,0.874,1.951,1.951C145.87,327.911,144.997,328.785,143.919,328.785z"/>
				</g>
			</g>
		</g>
		<g>
			<g>
				<polygon style="fill:#407BFF;" points="337.177,179.892 341.419,191.23 348.515,184.135 				"/>
				
					<rect x="343.849" y="185.198" transform="matrix(0.7071 -0.7071 0.7071 0.7071 -31.673 298.8996)" style="fill:#407BFF;" width="2.236" height="4.968"/>
			</g>
			<polygon style="opacity:0.4;fill:#FFFFFF;" points="348.515,184.135 337.177,179.892 341.419,191.23 344.177,188.473 
				345.933,190.229 347.514,188.648 345.758,186.892 			"/>
		</g>
		<g>
			<path style="fill:#263238;" d="M163.462,220.417l10.668,3.992l-5.593-5.593c-0.42,0.234-0.953,0.19-1.31-0.167
				c-0.431-0.431-0.431-1.131,0-1.562c0.431-0.431,1.13-0.431,1.562,0c0.357,0.357,0.401,0.889,0.167,1.31l5.593,5.594
				l-3.992-10.668l-3.533,0.784l-0.138-1.276l-0.669-0.669l-3.916,3.916l0.669,0.669l1.276,0.138L163.462,220.417z"/>
			<path style="opacity:0.2;fill:#FFFFFF;" d="M163.462,220.417l10.668,3.992l-5.593-5.593c-0.42,0.234-0.953,0.19-1.31-0.167
				c-0.431-0.431-0.431-1.131,0-1.562c0.431-0.431,1.13-0.431,1.562,0c0.357,0.357,0.401,0.889,0.167,1.31l5.593,5.594
				l-3.992-10.668l-3.533,0.784l-0.138-1.276l-0.669-0.669l-3.916,3.916l0.669,0.669l1.276,0.138L163.462,220.417z"/>
		</g>
		<g style="opacity:0.1;">
			<polygon style="fill:#FFFFFF;" points="160.3,170.841 122.72,311.261 122.72,170.841 			"/>
			<polygon style="fill:#FFFFFF;" points="202.71,170.841 157.68,339.091 126.66,339.091 171.68,170.841 			"/>
			<polygon style="fill:#FFFFFF;" points="247.81,170.841 202.78,339.091 188.75,339.091 233.78,170.841 			"/>
			<polygon style="fill:#FFFFFF;" points="289.34,170.841 244.31,339.091 239.29,339.091 284.32,170.841 			"/>
		</g>
	</g>
</g>
<g id="Character_2">
	<g>
		<g>
			<path style="fill:#263238;" d="M441.902,207.958c3.548,4.097,21.607,38.886,18.116,47.008
				c-3.491,8.122-32.428-1.241-32.428-1.241l1.729-11.462c0,0,11.245,0.396,12.321-0.67c1.076-1.066-15.211-17.333-15.211-17.333
				L441.902,207.958z"/>
			<g style="opacity:0.2;enable-background:new    ;">
				<path style="fill:#FFFFFF;" d="M460.02,254.97c-0.4,0.93-1.13,1.63-2.11,2.14c-0.01,0-0.02,0.01-0.03,0.02
					c-0.18,0.09-0.38,0.18-0.58,0.26c-0.02,0.01-0.05,0.02-0.08,0.03c-0.17,0.07-0.36,0.14-0.55,0.19c-0.75,0.25-1.59,0.42-2.5,0.52
					c-0.24,0.03-0.48,0.05-0.73,0.07c-0.36,0.03-0.72,0.05-1.09,0.06c-0.31,0.01-0.63,0.02-0.95,0.02
					c-9.7,0.01-23.81-4.55-23.81-4.55l1.73-11.47c0,0,11.24,0.4,12.32-0.67c0.26-0.26-0.51-1.42-1.82-3.03
					c-0.01-0.01-0.01-0.01-0.02-0.02c-3.18-3.91-9.55-10.42-12.18-13.08c-0.74-0.75-1.19-1.2-1.19-1.2l15.47-16.3
					C445.45,212.05,463.51,246.84,460.02,254.97z"/>
			</g>
		</g>
		<path style="opacity:0.2;enable-background:new    ;" d="M457.91,257.11c-0.01,0-0.02,0.01-0.03,0.02
			c-0.18,0.09-0.38,0.18-0.58,0.26c-0.02,0.01-0.05,0.02-0.08,0.03c-0.17,0.07-0.36,0.14-0.55,0.19c-0.75,0.25-1.59,0.42-2.5,0.52
			c-0.24,0.03-0.48,0.05-0.73,0.07c-0.36,0.03-0.72,0.05-1.09,0.06c-0.31,0.01-0.63,0.02-0.95,0.02c-9.7,0.01-23.81-4.55-23.81-4.55
			l1.73-11.47c0,0,12.66,1.07,13.74,0c0.02-0.02,0.02-0.03,0.03-0.05c0.2-0.42-1.2-1.84-3.27-3.65c-0.01-0.01-0.01-0.01-0.02-0.02
			c-3.18-3.91-9.55-10.42-12.18-13.08l7.32-7.82l5.57-0.6C440.51,217.04,452.81,236.95,457.91,257.11z"/>
		<g>
			<path style="fill:#263238;" d="M405.415,206.817c-2.005,1.454-2.991,3.514-2.202,4.6l52.842,72.854
				c0.788,1.087,3.052,0.789,5.057-0.664c2.004-1.454,2.99-3.514,2.202-4.6l-52.842-72.854
				C409.683,205.066,407.419,205.364,405.415,206.817z"/>
			<path style="opacity:0.7;fill:#FFFFFF;" d="M410.469,206.154l52.842,72.854c0.787,1.085-0.2,3.147-2.2,4.597
				c-2.008,1.456-4.267,1.748-5.053,0.663l-52.842-72.854c-0.435-0.599-0.328-1.491,0.193-2.425
				c0.241-0.434,0.578-0.889,1.003-1.308c0.291-0.298,0.632-0.594,1.004-0.864C407.415,205.367,409.682,205.069,410.469,206.154z"/>
			<path style="opacity:0.3;enable-background:new    ;" d="M463.311,279.008c0.787,1.085-0.2,3.147-2.2,4.597
				c-2.008,1.456-4.267,1.748-5.053,0.663c-0.434-0.599,0.656-1.504,1.29-2.818l-53.939-72.461c0.241-0.434,0.578-0.889,1.003-1.308
				l52.848,72.862c0.299-0.303,0.626-0.602,0.998-0.872C460.257,278.221,462.524,277.923,463.311,279.008z"/>
		</g>
		<g>
			<path style="fill:#407BFF;" d="M398.87,204.796c-1.692,1.808-2.27,4.017-1.29,4.935l65.7,61.51
				c0.98,0.918,3.147,0.196,4.839-1.612c1.692-1.807,2.27-4.017,1.289-4.934l-65.7-61.51
				C402.729,202.267,400.563,202.988,398.87,204.796z"/>
			<path style="opacity:0.7;fill:#FFFFFF;" d="M403.707,203.186l65.7,61.51c0.978,0.916,0.4,3.128-1.288,4.931
				c-1.695,1.81-3.857,2.525-4.836,1.61l-65.7-61.51c-0.54-0.506-0.605-1.402-0.271-2.418c0.154-0.472,0.399-0.983,0.737-1.475
				c0.229-0.347,0.507-0.703,0.822-1.039C400.559,202.992,402.729,202.27,403.707,203.186z"/>
			<path style="opacity:0.3;enable-background:new    ;" d="M469.407,264.695c0.978,0.916,0.4,3.128-1.288,4.931
				c-1.695,1.81-3.857,2.525-4.836,1.61c-0.54-0.506,0.359-1.601,0.732-3.011l-66.703-60.916c0.154-0.472,0.399-0.983,0.737-1.475
				l65.707,61.517c0.236-0.354,0.5-0.71,0.815-1.046C466.26,264.502,468.429,263.78,469.407,264.695z"/>
		</g>
		<path style="fill:#EBB376;" d="M414.66,401.1l-5.01,0.08c-5.09-23.91-8.69-53.5-10.93-75.82c-0.35-3.5-0.67-6.81-0.95-9.9
			c-0.13-1.47-0.26-2.88-0.38-4.24c-0.6-6.71-1.01-12.03-1.26-15.32c-0.18-2.4-0.27-3.72-0.27-3.72h18.1l-0.17,4.61l-0.56,15.22
			l-0.06,1.74l-0.38,10.05l-0.63,17.11C418.37,365,414.66,401.1,414.66,401.1z"/>
		<path style="fill:#EBB376;" d="M455.26,399.82l-4.93,0.93c-9.87-24.67-19.14-56.26-25.17-78.33c-0.93-3.42-1.79-6.62-2.56-9.52
			c-0.04-0.15-0.07-0.29-0.11-0.43c-1.52-5.76-2.69-10.35-3.42-13.26c-0.56-2.28-0.87-3.53-0.87-3.53l17.84-3.08l1.01,7.5
			l1.49,11.02l0.29,2.16l1.01,7.51l2.71,20.14C452.77,363.61,455.26,399.82,455.26,399.82z"/>
		<path style="opacity:0.2;enable-background:new    ;" d="M438.54,311.12l-15.94,1.78c-0.04-0.15-0.07-0.29-0.11-0.43
			c-1.52-5.76-2.69-10.35-3.42-13.26l17.98,0.89L438.54,311.12z"/>
		<path style="opacity:0.2;enable-background:new    ;" d="M413.79,296.79l-0.56,15.22l-0.06,1.74l-15.4,1.71
			c-0.13-1.47-0.26-2.88-0.38-4.24c-0.6-6.71-1.01-12.03-1.26-15.32L413.79,296.79z"/>
		<path style="fill:#263238;" d="M399.869,417.72c0.932-0.755,1.995-1.333,3.135-1.705l0,0c0,0,3.41-3.383,5.051-13.567l4.464-1.164
			c1.552-0.376,3.174,0.257,4.061,1.586c0.124,0.18,0.22,0.378,0.284,0.587c0.23,1.092,0.389,2.197,0.477,3.309
			c0.449,3.447,0.064,11.183,0.064,11.183h-0.807l-0.321-7.022c-0.119-2.383-1.943,0.413-2.466,2.979s-1.632,5.298-6.857,5.427
			C400.859,419.452,398.329,419.214,399.869,417.72z"/>
		<path style="fill:#263238;" d="M416.736,402.952c0.293-2.383,0.385-6.527,0.385-6.527l-9.918,1.1c0,0,1.201,4.712,0.211,8.25
			C412.409,404.465,416.736,402.952,416.736,402.952z"/>
		<path style="fill:#263238;" d="M440.228,417.72c0.932-0.755,1.995-1.333,3.135-1.705l0,0c0,0,3.41-3.383,5.051-13.567l4.464-1.164
			c1.552-0.376,3.174,0.257,4.061,1.586c0.124,0.18,0.22,0.378,0.284,0.587c0.23,1.092,0.389,2.197,0.477,3.309
			c0.449,3.447,0.064,11.183,0.064,11.183h-0.807l-0.321-7.022c-0.119-2.383-1.943,0.413-2.466,2.979s-1.632,5.298-6.857,5.427
			C441.218,419.452,438.688,419.214,440.228,417.72z"/>
		<path style="fill:#263238;" d="M457.095,402.952c0.293-2.383,0.385-6.527,0.385-6.527l-9.918,1.1c0,0,1.201,4.712,0.211,8.25
			C452.768,404.465,457.095,402.952,457.095,402.952z"/>
		<path style="fill:#407BFF;" d="M440.26,306.21l-18.87,2.41l-0.73,0.09l-3.88-14.22l-1.02,15.24l-20.22-1.06
			c-9.01-52.87,6.39-65.36,6.39-65.36l27.43,5.52c12.423,21.115,9.467,45.661,9.467,45.661L440.26,306.21z"/>
		<g>
			<path style="fill:none;stroke:#263238;stroke-width:0.5;stroke-linecap:round;stroke-linejoin:round;stroke-miterlimit:10;" d="
				M414.284,177.44c0,2.076-0.921,3.758-2.057,3.758c-1.136,0-2.057-1.683-2.057-3.758c0-2.076,0.921-3.758,2.057-3.758
				C413.363,173.681,414.284,175.364,414.284,177.44z"/>
			<path style="fill:#EBB376;" d="M427.829,190.033c-0.073,0.064-0.156,0.128-0.238,0.174c-1.109,0.788-2.383,1.545-3.832,1.875
				c-4.052,0.935-6.82,0.38-8.626-1.453c-0.009,0-0.009,0-0.009,0c-2.53-2.75-3.163-7.622-2.805-13.498
				c0.156-2.695,0.541-5.039,1.284-6.864c0.009-0.018,0.009-0.086,0.018-0.104c0.037-0.073,0.064-0.176,0.101-0.249
				c1.109-2.548,2.952-4.199,5.894-4.896c1.017-0.238,2.172-0.372,3.474-0.39C434.548,164.509,436.611,183.488,427.829,190.033z"/>
			<path style="opacity:0.2;enable-background:new    ;" d="M427.591,190.208c-1.109,0.788-2.383,1.384-3.832,1.714
				c-4.052,0.935-6.82,0.247-8.626-1.613c1.989,0.44,4.666,0.605,7.269-0.596C424.043,188.961,425.867,189.346,427.591,190.208z"/>
			<path style="fill:#EBB376;" d="M428.755,200.557c0.706,3.263-3.52,4.593-3.52,4.593c-6.912-2.952-8.195-6.628-8.195-6.628
				c5.766-3.007,4.097-11.513,4.097-11.513l1.173,0.577l8.234,1.611c0,0-2.285,4.384-2.587,5.383c0,0.009-0.009,0.018-0.009,0.028
				C426.399,199.833,428.755,200.557,428.755,200.557z"/>
			<path style="fill:#263238;" d="M413.598,170.192c0,0-0.632,8.036,6.983,11.487c0,0,3.27,8.347,8.083,8.465
				c6.563,0.161,12.346-9.178,10.073-18.688C435.789,159.122,417.104,158.119,413.598,170.192z"/>
			<path style="fill:#EBB376;" d="M416.725,179.372c0.003-1.253,1.01-3.359,2.959-3.073c2.016,0.296,3.134,5.267-1.822,6.378
				C417.151,182.836,416.719,181.987,416.725,179.372z"/>
			<path style="fill:#263238;" d="M427.591,161.652c0,0-7.666-1.939-11.903,1.144c-4.948,3.6-6.825,7.323-0.966,13.103
				c0,0,12.871-4.172,17.15-3.289c4.279,0.883,7.339,2.131,7.339,2.131C440.111,166.241,431.871,159.914,427.591,161.652z"/>
			<path style="fill:#263238;" d="M416.725,177.436c0,0,2.048,9.267-1.141,17.159c0,0,18.198,6.314,24.527,2.885
				c6.33-3.429,0.527-14.944,0.264-21.582c-0.264-6.638-3.15-16.449-12.784-14.247C417.957,163.854,416.725,177.436,416.725,177.436
				z"/>
			
				<line style="fill:none;stroke:#263238;stroke-width:0.5;stroke-linecap:round;stroke-linejoin:round;stroke-miterlimit:10;" x1="410.17" y1="176.846" x2="417.859" y2="176.846"/>
		</g>
		<path style="opacity:0.2;enable-background:new    ;" d="M421.39,308.62l-0.73,0.09l-3.88-14.22c0,0,8.32-14.21,5.72-21.61
			C422.87,273.4,431.83,286.69,421.39,308.62z"/>
		<g>
			<path style="fill:#263238;" d="M405.81,199.839c0,0,9.15-3.264,22.945,0.717c13.795,3.982,14.301,9.858,14.301,9.858
				s-8.74,19.808-10.115,42.234l-35.943-1.343C396.999,251.305,392.712,219.655,405.81,199.839z"/>
			<path style="opacity:0.2;fill:#FFFFFF;enable-background:new    ;" d="M443.06,210.41c0,0-8.74,19.81-10.12,42.24L397,251.31
				c0,0-0.6-4.41-0.66-10.96c-0.05-4.57,0.16-10.19,1-16.09c1.2-8.3,3.67-17.16,8.47-24.42c0,0,9.15-3.26,22.94,0.72
				C442.55,204.54,443.06,210.41,443.06,210.41z"/>
		</g>
		<path style="opacity:0.2;enable-background:new    ;" d="M405.31,225.61c0,0-1.49,9.12-8.97,14.74c-0.05-4.57,0.16-10.19,1-16.09
			L405.31,225.61z"/>
		<path style="fill:#EBB376;" d="M365.604,199.213l-4.531-6.722c0,0-0.697-2.919-1.569-3.586c-0.871-0.667-9.585-4.361-10.631-4.344
			c-1.046,0.017-1.046,6.78,0,7.93c1.046,1.15,6.535,3.613,7.973,3.863c1.438,0.25,0.741,0,0.741,0l4.008,7.992L365.604,199.213z"/>
		<g>
			<path style="fill:#263238;" d="M405.81,199.839c0,0-12.611,4.963-28.023,14.457l-14.622-19.95c0,0-3.949,1.225-5.403,8.082
				c0,0,7.513,28.615,17.271,31.451c9.758,2.835,30.277-8.265,30.277-8.265S411.269,210.701,405.81,199.839z"/>
			<path style="opacity:0.2;fill:#FFFFFF;enable-background:new    ;" d="M405.81,199.839c0,0-12.611,4.963-28.023,14.457
				l-14.622-19.95c0,0-3.949,1.225-5.403,8.082c0,0,7.513,28.615,17.271,31.451c9.758,2.835,30.277-8.265,30.277-8.265
				S411.269,210.701,405.81,199.839z"/>
		</g>
		<g>
			<path style="fill:#263238;" d="M415.06,198.583c0,0,3.191,22.836,13.303,23.758c10.112,0.922,14.637-15.947,12.923-17.995
				C439.571,202.297,426.549,198.43,415.06,198.583z"/>
			<path style="opacity:0.3;fill:#FFFFFF;enable-background:new    ;" d="M415.06,198.583c0,0,3.191,22.836,13.303,23.758
				c10.112,0.922,14.637-15.947,12.923-17.995C439.571,202.297,426.549,198.43,415.06,198.583z"/>
		</g>
	</g>
</g>
<g id="Character_1">
	<g id="_x3C_Group_x3E__81_">
		<polygon style="fill:#B97964;" points="55.362,408.666 62.767,408.666 63.379,391.513 55.965,391.513 		"/>
		<path style="fill:#263238;" d="M63.793,407.809h-8.996c-0.303,0.002-0.565,0.213-0.631,0.509l-1.46,6.594
			c-0.125,0.59,0.252,1.17,0.843,1.295c0.079,0.017,0.16,0.025,0.24,0.024c2.911-0.047,5.03-0.226,8.685-0.226
			c2.251,0,9.043,0.236,12.152,0.236c3.109,0,3.514-3.071,2.242-3.353c-5.709-1.243-10.004-2.967-11.832-4.606
			C64.698,407.969,64.253,407.801,63.793,407.809z"/>
		<path style="fill:#407BFF;" d="M64.302,408.836c-0.071-0.019-0.123-0.078-0.132-0.151c-0.012-0.069,0.023-0.138,0.085-0.169
			c0.264-0.17,2.657-1.639,3.476-1.215c0.188,0.089,0.307,0.281,0.301,0.49c0.049,0.356-0.09,0.713-0.368,0.942
			c-0.417,0.284-0.919,0.417-1.422,0.377C65.588,409.09,64.937,408.998,64.302,408.836z M64.811,408.591
			c0.864,0.292,1.807,0.245,2.638-0.132c0.177-0.159,0.265-0.395,0.235-0.631c-0.009-0.141-0.066-0.207-0.113-0.207
			c-0.069-0.037-0.148-0.054-0.226-0.047C66.443,407.748,65.583,408.093,64.811,408.591z"/>
		<path style="fill:#407BFF;" d="M64.255,408.874c-0.054-0.035-0.086-0.096-0.085-0.16c0.009-0.104,0.188-2.233,1.046-2.93
			c0.204-0.179,0.475-0.262,0.744-0.226c0.275-0.001,0.511,0.193,0.565,0.462c0.151,0.782-1.328,2.411-2.091,2.826h-0.085
			C64.322,408.864,64.289,408.874,64.255,408.874z M65.442,405.991c-0.521,0.665-0.826,1.474-0.876,2.317
			c0.763-0.575,1.705-1.809,1.611-2.289c-0.009-0.047-0.028-0.179-0.254-0.179h-0.085C65.692,405.841,65.551,405.895,65.442,405.991
			z"/>
		<polygon style="opacity:0.2;enable-background:new    ;" points="55.965,391.522 63.379,391.522 63.059,400.367 55.645,400.367 		
			"/>
		<polygon style="fill:#B97964;" points="93.494,409.223 101.136,410.03 102.57,393.549 94.928,392.741 		"/>
		<path style="fill:#263238;" d="M101.944,407.574h-8.996c-0.303,0.001-0.565,0.213-0.631,0.509l-1.46,6.594
			c-0.125,0.59,0.252,1.17,0.843,1.295c0.079,0.017,0.16,0.025,0.241,0.024c2.911-0.047,5.03-0.226,8.685-0.226
			c2.251,0,9.043,0.235,12.152,0.235c3.109,0,3.514-3.071,2.242-3.353c-5.709-1.243-10.004-2.967-11.832-4.606
			C102.849,407.734,102.404,407.565,101.944,407.574z"/>
		<path style="fill:#407BFF;" d="M102.453,408.6c-0.071-0.019-0.123-0.078-0.132-0.151c-0.012-0.069,0.022-0.138,0.085-0.17
			c0.264-0.169,2.656-1.639,3.476-1.215c0.188,0.089,0.307,0.281,0.301,0.49c0.049,0.356-0.09,0.713-0.367,0.942
			c-0.417,0.284-0.919,0.417-1.422,0.377C103.739,408.854,103.088,408.763,102.453,408.6z M102.962,408.355
			c0.864,0.292,1.807,0.245,2.638-0.132c0.177-0.159,0.265-0.395,0.236-0.631c-0.009-0.141-0.066-0.207-0.113-0.207
			c-0.069-0.037-0.148-0.054-0.226-0.047C104.594,407.512,103.734,407.858,102.962,408.355z"/>
		<path style="fill:#407BFF;" d="M102.406,408.638c-0.054-0.035-0.086-0.096-0.085-0.16c0.009-0.104,0.188-2.233,1.046-2.93
			c0.204-0.179,0.475-0.262,0.744-0.226c0.274-0.001,0.511,0.192,0.565,0.462c0.151,0.782-1.328,2.411-2.091,2.826H102.5
			C102.473,408.629,102.439,408.639,102.406,408.638z M103.593,405.756c-0.521,0.665-0.827,1.474-0.876,2.317
			c0.763-0.575,1.705-1.809,1.611-2.289c-0.009-0.047-0.028-0.179-0.254-0.179h-0.085
			C103.843,405.605,103.702,405.659,103.593,405.756z"/>
		<polygon style="opacity:0.2;enable-background:new    ;" points="94.928,392.741 102.57,393.549 101.824,402.05 94.182,401.242 		
			"/>
		<path style="fill:#263238;" d="M59.023,241.05h39.304c3.737,20.407,15.435,92.621,7.042,156.964l-13.306-1.65
			c0,0,1.232-85.418-10.516-116.996c-1.351,16.9-2.956,34.882-4.349,44.45c-3.419,23.55-10.739,75.017-10.739,75.017H52.913
			c0,0,2.77-49.263,4.05-72.408C58.364,301.299,58.969,246.21,59.023,241.05z"/>
		<g>
			<polygon style="fill:#407BFF;" points="106.891,401.113 90.422,398.663 90.926,394.103 108.057,396.351 			"/>
		</g>
		<g>
			<polygon style="fill:#407BFF;" points="68.089,398.945 52.112,398.945 52.112,394.169 68.692,393.858 			"/>
		</g>
		<path style="opacity:0.2;enable-background:new    ;" d="M81.55,279.37c1.733,4.654,3.175,10.466,4.39,17.003
			c1.099-15.039-3.297-30.989-3.297-30.989L81.55,279.37z"/>
		<path style="fill:#407BFF;" d="M57.912,247.89l-0.898,4.747c0,0,27.502,3.56,44.612,3.462l-0.593-3.264L57.912,247.89z"/>
		<path style="fill:#B97964;" d="M113.737,206.759c0,0,9.516,29.991,16.02,31.952c6.504,1.961,23.048-22.788,23.048-22.788
			s14.826-0.143,15.49-1.156c0.664-1.012-3.853-11.452-4.937-11.471c-1.084-0.019-13.992,4.858-14.493,5.671
			c-0.501,0.814-15.314,14.98-16.037,14.581c-0.723-0.399-6.323-18.245-6.323-18.245L113.737,206.759z"/>
		<path style="fill:#B97964;" d="M154.697,214.35c0.128-0.027,0.246-0.055,0.356-0.091c-0.064-0.036-0.119-0.073-0.174-0.11
			C154.825,214.222,154.77,214.286,154.697,214.35z"/>
		<g>
			<path style="fill:#407BFF;" d="M108.338,203.297l1.16,2.137l5.416,10.01l1.123,2.064l15.188-5.279c0,0-6.311-23.581-8.503-25.992
				L108.338,203.297z"/>
			<path style="opacity:0.4;fill:#FFFFFF;enable-background:new    ;" d="M108.338,203.297l1.16,2.137l5.416,10.01l1.123,2.064
				l15.188-5.279c0,0-6.311-23.581-8.503-25.992L108.338,203.297z"/>
		</g>
		<path style="opacity:0.2;enable-background:new    ;" d="M109.498,205.434l5.416,10.01c3.342-6.576,2.374-15.572,2.374-15.572
			L109.498,205.434z"/>
		<g>
			<path style="fill:#407BFF;" d="M122.72,186.235c0,0-7.986-10.404-22.875-11.103c-14.89-0.699-19.564,0.782-25.006,5.639
				c-7.949,7.095-17.824,68.246-17.824,68.246s20.796,6.43,44.618,4.854c0,0,0.179-16.973,5.549-28.415
				C117.626,203.202,122.72,186.235,122.72,186.235z"/>
			<path style="opacity:0.4;fill:#FFFFFF;enable-background:new    ;" d="M57.011,249.017c0,0,20.796,6.43,44.624,4.859
				c0,0,0.018-2.091,0.283-5.306c0.119-1.516,0.301-3.297,0.557-5.215c0.256-1.982,0.603-4.119,1.05-6.293
				c0.238-1.169,0.511-2.347,0.813-3.525c0.731-2.804,1.662-5.58,2.84-8.083c0.658-1.406,1.297-2.795,1.918-4.155
				c1.078-2.375,2.091-4.685,3.041-6.896c1.991-4.649,3.699-8.905,5.124-12.622c1.023-2.667,1.9-5.06,2.63-7.115
				c0.813-2.283,1.452-4.165,1.918-5.562c0.612-1.854,0.913-2.868,0.913-2.868s-0.539-0.703-1.607-1.763
				c-2.968-2.95-10.037-8.649-20.777-9.306c-0.164-0.018-0.329-0.027-0.493-0.037c-11.343-0.53-16.759,0.201-21.097,2.731
				c-1.361,0.785-2.612,1.754-3.909,2.913c-0.886,0.795-1.808,2.265-2.722,4.256c-1.516,3.27-3.059,7.927-4.539,13.261
				c-0.219,0.795-0.438,1.607-0.658,2.429c-0.977,3.708-1.936,7.663-2.84,11.663c-0.256,1.133-0.511,2.274-0.758,3.407
				c-0.374,1.735-0.74,3.471-1.096,5.178c-0.895,4.311-1.708,8.494-2.42,12.247c-1.014,5.407-1.808,9.928-2.283,12.731
				C57.193,247.902,57.011,249.017,57.011,249.017z M100.712,175.716c1.05,0.037,2.073,0.119,2.977,0.237
				c4.037,0.539,10.147,3.745,9.991,5.27c-0.164,1.525-2.493,5.398-8.466,4.457c-2.064-0.32-4.055-1.26-5.799-2.42
				c-3.306-2.183-5.708-5.133-5.945-6.092C93.187,176.035,97.068,175.606,100.712,175.716z"/>
			<path style="fill:#407BFF;" d="M87.879,196.079c0,0-7.912,19.075-9.494,34.899l21.302,2.718c0,0,9.566-25.765,11.539-33.824
				C111.226,199.872,94.209,198.169,87.879,196.079z"/>
			<polygon style="opacity:0.4;fill:#FFFFFF;enable-background:new    ;" points="107.066,200.615 110.033,200.912 107.857,202.593 
							"/>
		</g>
		<path style="fill:#B97964;" d="M95.467,177.198c1.609,4.602,7.6,6.7,10.743,6.966c4.41,0.373,5.696-3.087,5.696-3.087
			s-3.584-1.783-3.23-3.799c0.208-1.173,0.764-2.318,1.479-3.42c0.369-0.582,0.793-1.145,1.228-1.692l-5.749-12.322
			C104.347,165.223,100.418,175.478,95.467,177.198z"/>
		<path style="opacity:0.2;enable-background:new    ;" d="M105.402,165.57c-2.744,5.97,1.131,10.129,3.274,11.709
			c0.208-1.173,0.764-2.318,1.479-3.42L105.402,165.57z"/>
		<g>
			<g>
				<path style="fill:#B97964;" d="M124.685,149.559c0,0,1.84,10.157-3.464,14.234c-5.303,4.077-5.841-14.913-5.841-14.913
					L124.685,149.559z"/>
				<path style="opacity:0.4;enable-background:new    ;" d="M124.685,149.559c0,0,1.84,10.157-3.464,14.234
					c-5.303,4.077-5.841-14.913-5.841-14.913L124.685,149.559z"/>
			</g>
			<path style="fill:#B97964;" d="M105.732,172.345c2.734,3.702,7.046,4.569,10.732,3.287c2.371-0.821,4.48-2.539,5.75-4.959
				c0.17-0.316,0.321-0.65,0.462-0.993c2.488-6.309,3.05-21.712-3.68-21.137c-5.513,0.471-10.919-1.236-13.734,3.536
				c-0.81,1.352-1.275,2.882-1.382,4.459C103.277,163.848,102.577,168.118,105.732,172.345z"/>
			<path style="fill:#263238;" d="M114.615,160.13c-0.124,0.58,0.157,1.112,0.55,1.167c0.393,0.055,0.766-0.385,0.854-0.973
				c0.087-0.588-0.166-1.114-0.55-1.167C115.085,159.104,114.704,159.533,114.615,160.13z"/>
			<path style="fill:#263238;" d="M121.3,161.078c-0.124,0.58,0.166,1.114,0.55,1.168c0.384,0.053,0.766-0.385,0.854-0.973
				c0.087-0.588-0.166-1.114-0.55-1.167C121.77,160.052,121.381,160.518,121.3,161.078z"/>
			<path style="fill:#A24E3F;" d="M119.134,161.068c0.448,1.908,1.157,3.746,2.108,5.46c-0.906,0.471-1.974,0.518-2.917,0.128
				L119.134,161.068z"/>
			<path style="fill:#263238;" d="M112.848,157.672c0.126,0.036,0.261,0.003,0.356-0.088c0.618-0.643,1.502-0.958,2.387-0.848
				c0.188,0.041,0.373-0.079,0.414-0.267c0.041-0.188-0.079-0.374-0.267-0.414c0,0-0.001,0-0.002,0
				c-1.115-0.167-2.242,0.216-3.023,1.03c-0.141,0.132-0.148,0.352-0.016,0.493c0.002,0.002,0.004,0.004,0.006,0.006
				C112.746,157.62,112.795,157.65,112.848,157.672z"/>
			<path style="fill:#263238;" d="M124.499,159.18c0.061,0.035,0.132,0.05,0.203,0.043c0.184-0.056,0.288-0.251,0.232-0.435
				c-0.001-0.002-0.001-0.005-0.002-0.007c-0.322-1.085-1.151-1.945-2.224-2.306c-0.186-0.051-0.377,0.059-0.428,0.245l0,0.001
				c-0.046,0.186,0.063,0.374,0.245,0.428l0,0c0.838,0.309,1.48,0.997,1.732,1.854C124.308,159.095,124.396,159.16,124.499,159.18z"
				/>
			<path style="fill:none;stroke:#263238;stroke-width:0.5;stroke-linecap:round;stroke-linejoin:round;stroke-miterlimit:10;" d="
				M113.684,166.918c0,0,1.23,2.643,3.735,2.544"/>
			<g>
				<path style="fill:#B97964;" d="M110.493,148.233l0.092,3.256c-1.108,0.464-1.856,1.596-1.488,2.909
					c0.786,2.805-1.142,6.861-3.376,8.341c0,0,0.045-1.179-0.97-0.994c-1.016,0.186-1.313,6.32,0.345,9.414
					c0,0-3.54-3.253-4.59-9.82c-0.971-6.073-0.803-9.922,0.059-12.826L110.493,148.233z"/>
				<path style="opacity:0.4;enable-background:new    ;" d="M110.493,148.233l0.092,3.256c-1.108,0.464-1.856,1.596-1.488,2.909
					c0.786,2.805-1.142,6.861-3.376,8.341c0,0,0.045-1.179-0.97-0.994c-1.016,0.186-1.313,6.32,0.345,9.414
					c0,0-3.54-3.253-4.59-9.82c-0.971-6.073-0.803-9.922,0.059-12.826L110.493,148.233z"/>
			</g>
			<path style="fill:#263238;" d="M99.92,152.143c0,0,4.161,0.64,10.666-0.654c10.08-2.005,14.364,1.704,14.364,1.704
				s2.392-2.056,2.095-4.959s-4.324-3.398-4.324-3.398s-1.215-3.264-3.885-4.253c-2.67-0.989-5.347,1.484-5.347,1.484
				s-3.333-3.214-7.21-2.301c-4.763,1.122-4.652,5.664-4.652,5.664s-4.55,0.466-4.451,2.804S99.92,152.143,99.92,152.143z"/>
			
				<ellipse style="fill:none;stroke:#263238;stroke-width:0.5;stroke-linecap:round;stroke-linejoin:round;stroke-miterlimit:10;" cx="115.388" cy="160.617" rx="3.266" ry="3.765"/>
			<path style="fill:none;stroke:#263238;stroke-width:0.5;stroke-linecap:round;stroke-linejoin:round;stroke-miterlimit:10;" d="
				M126.875,161.175c0,2.08-1.462,3.766-3.266,3.766c-1.804,0-3.266-1.686-3.266-3.766c0-2.079,1.462-3.765,3.266-3.765
				C125.413,157.41,126.875,159.096,126.875,161.175z"/>
			<path style="fill:none;stroke:#263238;stroke-width:0.5;stroke-linecap:round;stroke-linejoin:round;stroke-miterlimit:10;" d="
				M118.654,161.068c0,0,1.053-0.663,1.688,0.107"/>
			<path style="fill:none;stroke:#263238;stroke-width:0.5;stroke-linecap:round;stroke-linejoin:round;stroke-miterlimit:10;" d="
				M112.122,160.617l-5.736-0.764c-0.749-0.1-1.507,0.105-2.103,0.57l-0.25,0.195"/>
			<path style="fill:#B97964;" d="M99.863,162.042c0.573,1.757,1.819,3.216,3.465,4.056c2.188,1.097,3.748-0.75,3.536-3.061
				c-0.208-2.052-1.575-5.159-3.967-5.272C100.505,157.652,99.188,159.876,99.863,162.042z"/>
		</g>
		<path style="opacity:0.2;enable-background:new    ;" d="M63.322,215.791c9.434-3.918,16.896-20.111,16.896-20.111l-5.361-3.242
			l-7.279,5.854c-0.219,0.795-0.438,1.607-0.658,2.429c-0.977,3.708-1.936,7.663-2.84,11.663
			C63.824,213.517,63.568,214.658,63.322,215.791z"/>
		<polygon style="fill:#407BFF;" points="115.308,217.508 131.593,211.527 132.055,212.912 115.769,218.714 		"/>
		<g>
			
				<rect x="23.316" y="254.741" transform="matrix(0.9877 0.1567 -0.1567 0.9877 42.7985 -4.0681)" style="fill:#407BFF;" width="47.781" height="29.471"/>
			<g>
				
					<polyline style="fill:none;stroke:#FFFFFF;stroke-width:2;stroke-linecap:round;stroke-linejoin:round;stroke-miterlimit:10;" points="
					42.625,262.261 33.04,267.229 40.617,274.92 				"/>
				
					<polyline style="fill:none;stroke:#FFFFFF;stroke-width:2;stroke-linecap:round;stroke-linejoin:round;stroke-miterlimit:10;" points="
					51.789,276.692 61.374,271.724 53.796,264.033 				"/>
				
					<line style="fill:none;stroke:#FFFFFF;stroke-width:2;stroke-linecap:round;stroke-linejoin:round;stroke-miterlimit:10;" x1="43.956" y1="275.449" x2="50.457" y2="263.503"/>
			</g>
		</g>
		<path style="fill:#B97964;" d="M69.205,183.375c0,0-17.782,17.853-20.212,21.326c-2.43,3.473-7.064,41.936-7.064,41.936
			s-0.977,0.339-1.062,1.171s-0.156,11.634,0,12.134c0.156,0.5,8.346,5.551,9.55,4.35c1.204-1.201,2.89-13.435,2.89-13.435
			l-4.315-4.221c0,0,5.024-28.331,8.162-32.915c3.138-4.585,16.098-14.409,16.098-14.409L69.205,183.375z"/>
		<g>
			<path style="fill:#407BFF;" d="M82.878,176.188c2.592,5.489,0.621,17.048-4.155,21.127c-7.226,6.172-15.988,11.471-15.988,11.471
				l-8.738-11.423c0,0,9.28-9.061,14.9-14.281C75.732,176.733,82.878,176.188,82.878,176.188z"/>
			<path style="opacity:0.4;fill:#FFFFFF;enable-background:new    ;" d="M82.878,176.188c2.592,5.489,0.621,17.048-4.155,21.127
				c-7.226,6.172-15.988,11.471-15.988,11.471l-8.738-11.423c0,0,9.28-9.061,14.9-14.281
				C75.732,176.733,82.878,176.188,82.878,176.188z"/>
		</g>
		<polygon style="fill:#407BFF;" points="53.997,196.626 52.917,198.098 62.033,210.011 63.322,209.088 		"/>
	</g>
</g>
</svg>
