<?xml version="1.0" encoding="utf-8"?>
<!-- Generator: Adobe Illustrator 27.5.0, SVG Export Plug-In . SVG Version: 6.00 Build 0)  -->
<svg version="1.1" xmlns="http://www.w3.org/2000/svg" xmlns:xlink="http://www.w3.org/1999/xlink" x="0px" y="0px"
	 viewBox="0 0 500 500" style="enable-background:new 0 0 500 500;" xml:space="preserve">
<g id="Background_Complete">
	<g>
		<g>
			<g>
				<rect y="382.398" style="fill:#E0E0E0;" width="500" height="0.25"/>
				<rect x="388.343" y="398.083" style="fill:#E0E0E0;" width="44.861" height="0.25"/>
				<rect x="373.066" y="398.083" style="fill:#E0E0E0;" width="8.693" height="0.25"/>
				<rect x="279.963" y="394.625" style="fill:#E0E0E0;" width="19.359" height="0.25"/>
				<rect x="80.932" y="394.5" style="fill:#E0E0E0;" width="43.193" height="0.25"/>
				<rect x="65.696" y="394.5" style="fill:#E0E0E0;" width="6.333" height="0.25"/>
				<rect x="189.296" y="388.583" style="fill:#E0E0E0;" width="93.676" height="0.25"/>
				<path style="fill:#E0E0E0;" d="M237.014,337.8H43.915c-3.147,0-5.708-2.561-5.708-5.708V60.66c0-3.147,2.561-5.708,5.708-5.708
					h193.099c3.146,0,5.707,2.561,5.707,5.708v271.432C242.721,335.239,240.16,337.8,237.014,337.8z M43.915,55.203
					c-3.01,0-5.458,2.448-5.458,5.458v271.432c0,3.01,2.448,5.458,5.458,5.458h193.099c3.009,0,5.457-2.448,5.457-5.458V60.66
					c0-3.009-2.448-5.458-5.457-5.458H43.915z"/>
				<path style="fill:#E0E0E0;" d="M453.31,337.8H260.212c-3.146,0-5.707-2.561-5.707-5.708V60.66c0-3.147,2.561-5.708,5.707-5.708
					H453.31c3.148,0,5.708,2.561,5.708,5.708v271.432C459.019,335.239,456.458,337.8,453.31,337.8z M260.212,55.203
					c-3.009,0-5.457,2.448-5.457,5.458v271.432c0,3.01,2.448,5.458,5.457,5.458H453.31c3.01,0,5.458-2.448,5.458-5.458V60.66
					c0-3.009-2.448-5.458-5.458-5.458H260.212z"/>
			</g>
		</g>
		<g>
			<g>
				<rect x="115.494" y="118.111" style="fill:#E6E6E6;" width="119.555" height="264.412"/>
				<rect x="121.16" y="118.111" style="fill:#F0F0F0;" width="113.889" height="264.412"/>
				
					<rect x="51.899" y="199.373" transform="matrix(-1.836970e-16 1 -1 -1.836970e-16 428.4222 72.2125)" style="fill:#EBEBEB;" width="252.412" height="101.89"/>
				
					<rect x="102.066" y="249.539" transform="matrix(-1.836970e-16 1 -1 -1.836970e-16 478.5891 22.0456)" style="fill:#E6E6E6;" width="252.412" height="1.556"/>
				<circle style="fill:#E6E6E6;" cx="215.443" cy="239.389" r="5.111"/>
				<circle style="fill:#FAFAFA;" cx="217.443" cy="238.333" r="5.111"/>
			</g>
			<g>
				<g>
					<g>
						<rect x="287.559" y="85.564" style="fill:#E0E0E0;" width="135.699" height="203.103"/>
						<rect x="290.574" y="85.564" style="fill:#F0F0F0;" width="135.699" height="203.103"/>
						
							<rect x="262.953" y="124.679" transform="matrix(-1.836970e-16 1 -1 -1.836970e-16 545.5391 -171.3085)" style="fill:#FAFAFA;" width="190.942" height="124.873"/>
						
							<rect x="324.249" y="185.975" transform="matrix(-1.836970e-16 1 -1 -1.836970e-16 606.8358 -232.6053)" style="fill:#E0E0E0;" width="190.942" height="2.28"/>
						<rect x="292.813" y="151.173" style="fill:#F0F0F0;" width="131.221" height="8.163"/>
					</g>
					<g>
						<path style="fill:#E0E0E0;" d="M432.175,75.5H281.658c-0.458,0-0.833,0.375-0.833,0.833l0,0c0,0.458,0.375,0.833,0.833,0.833
							h150.516c0.458,0,0.833-0.375,0.833-0.833l0,0C433.008,75.875,432.633,75.5,432.175,75.5z"/>
						<path style="fill:#E0E0E0;" d="M437.175,76.333c0,2.301-1.865,4.167-4.167,4.167c-2.301,0-4.167-1.866-4.167-4.167
							c0-2.301,1.866-4.167,4.167-4.167C435.309,72.167,437.175,74.032,437.175,76.333z"/>
						<path style="fill:#E0E0E0;" d="M288.684,81L288.684,81c-0.619,0-1.125-0.506-1.125-1.125v-2.417
							c0-0.619,0.506-1.125,1.125-1.125l0,0c0.619,0,1.125,0.506,1.125,1.125v2.417C289.809,80.494,289.303,81,288.684,81z"/>
						<path style="fill:#E0E0E0;" d="M419.607,81L419.607,81c-0.619,0-1.125-0.506-1.125-1.125v-2.417
							c0-0.619,0.506-1.125,1.125-1.125l0,0c0.619,0,1.125,0.506,1.125,1.125v2.417C420.732,80.494,420.226,81,419.607,81z"/>
					</g>
				</g>
				<rect x="292.813" y="76.333" style="opacity:0.4;fill:#E0E0E0;" width="139.095" height="58.333"/>
				<path style="fill:#E0E0E0;" d="M306.251,76.333c0,2.301-1.865,4.167-4.167,4.167c-2.301,0-4.167-1.866-4.167-4.167
					c0-2.301,1.866-4.167,4.167-4.167C304.386,72.167,306.251,74.032,306.251,76.333z"/>
			</g>
			<g>
				<g>
					<rect x="281.982" y="319.25" style="fill:#E6E6E6;" width="26.785" height="59.386"/>
					<rect x="287.125" y="378.636" style="fill:#E6E6E6;" width="132.09" height="3.763"/>
					
						<rect x="308.767" y="319.25" transform="matrix(-1 -1.224647e-16 1.224647e-16 -1 733.125 697.8855)" style="fill:#F0F0F0;" width="115.591" height="59.386"/>
					
						<rect x="319.297" y="326.559" transform="matrix(-1 -1.224647e-16 1.224647e-16 -1 733.1249 672.5951)" style="fill:#E6E6E6;" width="94.53" height="19.476"/>
					
						<rect x="319.297" y="351.849" transform="matrix(-1 -1.224647e-16 1.224647e-16 -1 733.1249 723.175)" style="fill:#E6E6E6;" width="94.53" height="19.476"/>
					<path style="fill:#F0F0F0;" d="M378.607,337.633h-24.089c-0.649,0-1.18-0.531-1.18-1.18v-0.311c0-0.649,0.531-1.18,1.18-1.18
						h24.089c0.649,0,1.18,0.531,1.18,1.18v0.311C379.787,337.102,379.256,337.633,378.607,337.633z"/>
					<path style="fill:#F0F0F0;" d="M378.607,362.923h-24.089c-0.649,0-1.18-0.531-1.18-1.18v-0.311c0-0.649,0.531-1.18,1.18-1.18
						h24.089c0.649,0,1.18,0.531,1.18,1.18v0.311C379.787,362.392,379.256,362.923,378.607,362.923z"/>
				</g>
				<g>
					<circle style="fill:#F0F0F0;" cx="342.119" cy="304.594" r="5.901"/>
					<circle style="fill:#F0F0F0;" cx="351.4" cy="303.485" r="5.901"/>
					<path style="fill:#F0F0F0;" d="M385.849,306.208c0,3.259-2.642,5.901-5.901,5.901c-3.259,0-5.901-2.642-5.901-5.901
						c0-3.259,2.642-5.901,5.901-5.901C383.207,300.307,385.849,302.949,385.849,306.208z"/>
					<path style="fill:#F0F0F0;" d="M370.617,308.932c0,3.259-2.642,5.901-5.901,5.901c-3.259,0-5.901-2.642-5.901-5.901
						c0-3.259,2.642-5.901,5.901-5.901C367.975,303.031,370.617,305.673,370.617,308.932z"/>
				</g>
				<path style="fill:#E6E6E6;" d="M324.961,305.667c0,0,0.956,13.583,37.601,13.583s37.601-13.583,37.601-13.583H324.961z"/>
			</g>
			<g>
				<g>
					<rect x="43.569" y="298.333" style="fill:#E6E6E6;" width="18.229" height="79.056"/>
					<rect x="47.069" y="377.389" style="fill:#E6E6E6;" width="89.895" height="5.009"/>
					
						<rect x="61.797" y="298.333" transform="matrix(-1 -1.224647e-16 1.224647e-16 -1 202.261 675.7225)" style="fill:#F0F0F0;" width="78.667" height="79.056"/>
					
						<rect x="68.964" y="308.064" transform="matrix(-1 -1.224647e-16 1.224647e-16 -1 202.261 642.0554)" style="fill:#E6E6E6;" width="64.333" height="25.927"/>
					
						<rect x="68.964" y="341.731" transform="matrix(-1 -1.224647e-16 1.224647e-16 -1 202.261 709.3886)" style="fill:#E6E6E6;" width="64.333" height="25.927"/>
					<path style="fill:#F0F0F0;" d="M108.353,322.805H93.908c-0.978,0-1.778-0.8-1.778-1.778l0,0c0-0.978,0.8-1.778,1.778-1.778
						h14.444c0.978,0,1.778,0.8,1.778,1.778l0,0C110.13,322.005,109.33,322.805,108.353,322.805z"/>
					<path style="fill:#F0F0F0;" d="M108.353,356.472H93.908c-0.978,0-1.778-0.8-1.778-1.778l0,0c0-0.978,0.8-1.778,1.778-1.778
						h14.444c0.978,0,1.778,0.8,1.778,1.778l0,0C110.13,355.672,109.33,356.472,108.353,356.472z"/>
				</g>
				<g>
					<path style="fill:#F0F0F0;" d="M97.362,283.131c0,0-15.033-25.915,5.823-46.544c0,0,5.444,3.548,5.36,8.318
						c-0.083,4.77-5.829,5.976-4.595,9.957s6.66,7.886,3.099,11.176c-3.561,3.291,0.574,6.22,0.333,10.251
						C107.141,280.321,97.362,283.131,97.362,283.131z"/>
					<path style="fill:#E6E6E6;" d="M75.468,279c0,0,0.5,19.333,19.667,19.333c19.167,0,19.667-19.333,19.667-19.333H75.468z"/>
					<path style="fill:#E6E6E6;" d="M98.503,285.5c0,0,6.094-29.333-20.203-42.333c0,0-4.047,5.083-2.464,9.583
						c1.583,4.5,7.417,3.833,7.5,8c0.083,4.167-3.833,9.583,0.583,11.583c4.417,2,1.417,6.083,2.917,9.833
						S98.503,285.5,98.503,285.5z"/>
				</g>
			</g>
			<rect x="59.421" y="140.89" style="fill:#E0E0E0;" width="30.008" height="75.489"/>
			<rect x="63.646" y="140.89" style="fill:#F0F0F0;" width="31.854" height="75.489"/>
			
				<rect x="46.679" y="167.558" transform="matrix(-1.836970e-16 1 -1 -1.836970e-16 258.2073 99.0609)" style="fill:#FAFAFA;" width="65.788" height="22.153"/>
		</g>
	</g>
</g>
<g id="Background_Simple" style="display:none;">
	<path style="display:inline;fill:#407BFF;" d="M99.406,262.433c49.844,91.974,115.925-37.306,171.338-37.885
		c46.296-0.483,39.658,59.58,98.545,25.522c26.793-15.497,40.153-67.587,35.026-94.194
		C370.025-22.086,14.024,104.882,99.406,262.433z"/>
	<path style="display:inline;opacity:0.9;fill:#FFFFFF;" d="M99.406,262.433c49.844,91.974,115.925-37.306,171.338-37.885
		c46.296-0.483,39.658,59.58,98.545,25.522c26.793-15.497,40.153-67.587,35.026-94.194
		C370.025-22.086,14.024,104.882,99.406,262.433z"/>
</g>
<g id="Shadow">
	<ellipse style="fill:#F5F5F5;" cx="250" cy="416.238" rx="193.889" ry="11.323"/>
</g>
<g id="Character_1_">
	<g>
		<g>
			<g>
				<path style="fill:#E58A7B;" d="M366.659,195.389c-0.162,2.809-0.5,5.394-0.879,8.067c-0.399,2.649-0.925,5.28-1.514,7.904
					c-1.183,5.274-2.862,10.379-5.258,15.512c-0.952,1.866-2.132,3.042-3.295,4.06c-1.172,1.005-2.362,1.827-3.559,2.581
					c-2.394,1.495-4.838,2.675-7.295,3.761c-4.946,2.111-9.907,3.818-15.073,5.14l-1.247-3.716c2.303-1.037,4.658-2.111,6.939-3.242
					c2.299-1.104,4.562-2.267,6.746-3.509c2.189-1.221,4.315-2.527,6.232-3.924c0.952-0.699,1.848-1.432,2.594-2.177
					c0.738-0.734,1.34-1.517,1.515-2c0.858-2.14,1.694-4.524,2.339-6.885c0.637-2.389,1.229-4.803,1.727-7.254
					c0.499-2.45,0.899-4.928,1.259-7.413c0.371-2.461,0.652-5.033,0.873-7.4L366.659,195.389z"/>
				<g>
					<path style="fill:#407BFF;" d="M361.272,185.958c-3.19,0.812-5.421,13.938-5.421,13.938l8.79,5.978
						c0,0,8.427-13.242,5.974-16.749C368.059,185.473,365.927,184.773,361.272,185.958z"/>
					<path style="opacity:0.5;" d="M361.272,185.958c-3.19,0.812-5.421,13.938-5.421,13.938l8.79,5.978
						c0,0,8.427-13.242,5.974-16.749C368.059,185.473,365.927,184.773,361.272,185.958z"/>
				</g>
				<g>
					<polygon style="fill:#407BFF;" points="361.56,188.89 359.11,202.12 364.05,205.47 					"/>
					<polygon style="opacity:0.7;" points="361.56,188.89 359.11,202.12 364.05,205.47 					"/>
				</g>
				<path style="fill:#E58A7B;" d="M330.336,238.505l-5.49-5.564l-0.721,7.837c0,0,4.115,2.785,6.963,1.288L330.336,238.505z"/>
				<polygon style="fill:#E58A7B;" points="318.393,232.109 318.144,238.703 324.125,240.778 324.846,232.941 				"/>
				<polygon style="fill:#E58A7B;" points="378.529,406.885 370.79,406.885 370.273,388.963 378.012,388.963 				"/>
				<polygon style="fill:#E58A7B;" points="446.82,370.937 440.922,375.947 427.423,363.899 433.321,358.888 				"/>
				<path style="fill:#263238;" d="M439.305,375.346l5.72-6.548c0.208-0.238,0.543-0.287,0.804-0.117l5.832,3.78
					c0.605,0.392,0.71,1.298,0.22,1.84c-2.034,2.248-3.129,3.231-5.644,6.111c-1.548,1.771-3.625,4.52-5.762,6.966
					c-2.09,2.393-4.67,0.463-3.999-0.747c3.008-5.426,2.284-7.33,2.336-9.998C438.822,376.152,439.001,375.695,439.305,375.346z"/>
				<path style="fill:#263238;" d="M370.525,405.989h8.695c0.316,0,0.573,0.22,0.618,0.529l0.991,6.879
					c0.103,0.714-0.511,1.389-1.241,1.376c-3.031-0.052-4.492-0.23-8.315-0.23c-2.352,0-7.218,0.244-10.466,0.244
					c-3.177,0-3.421-3.212-2.069-3.503c6.065-1.304,8.452-3.103,10.495-4.819C369.6,406.155,370.062,405.989,370.525,405.989z"/>
				<g>
					<polygon style="fill:#CF6F64;" points="370.275,388.968 370.54,398.206 378.282,398.206 378.017,388.968 					"/>
					<polygon style="fill:#CF6F64;" points="433.326,358.89 427.425,363.903 434.386,370.111 440.287,365.098 					"/>
				</g>
				<g>
					<path style="fill:#407BFF;" d="M361.272,185.958c0,0-3.687,1.299,3.698,46.709c12.472,0,25.362,0,31.431,0
						c-0.528-12.792-0.542-20.68,5.572-46.933c0,0-6.586-1.433-13.347-1.758c-5.289-0.255-9.623-0.424-14.272,0.001
						C368.224,184.536,361.272,185.958,361.272,185.958z"/>
					<path style="opacity:0.5;" d="M361.272,185.958c0,0-3.687,1.299,3.698,46.709c12.472,0,25.362,0,31.431,0
						c-0.528-12.792-0.542-20.68,5.572-46.933c0,0-6.586-1.433-13.347-1.758c-5.289-0.255-9.623-0.424-14.272,0.001
						C368.224,184.536,361.272,185.958,361.272,185.958z"/>
				</g>
				<g>
					<path style="fill:#407BFF;" d="M378.993,187.259l2.836,5.797c0,0,11.91-3.636,10.347-8.871l-3.958-0.467L378.993,187.259z"/>
					<path style="opacity:0.6;fill:#FAFAFA;" d="M378.993,187.259l2.836,5.797c0,0,11.91-3.636,10.347-8.871l-3.958-0.467
						L378.993,187.259z"/>
				</g>
				<g>
					<path style="fill:#407BFF;" d="M378.783,186.722l-4.01,5.917c0,0-8.479-3.681-2.637-8.626l2.498-0.295L378.783,186.722z"/>
					<path style="opacity:0.6;fill:#FAFAFA;" d="M378.783,186.722l-4.01,5.917c0,0-8.479-3.681-2.637-8.626l2.498-0.295
						L378.783,186.722z"/>
				</g>
				<path style="fill:#263238;" d="M391.548,143.965c3.671-3.531,0.153-20.128,9.816-14.636c12.28,6.98,20.203-2.155,16.103-5.644
					c8.623,0.614,7.778,10.427,4.195,15.698c-9.11,13.404-27.494,0.653-27.602,7.464
					C393.952,153.658,391.548,143.965,391.548,143.965z"/>
				<g>
					<path style="fill:#407BFF;" d="M386.253,141.609c4.203-3.324,18.592-0.554,8.731,12.854L386.253,141.609z"/>
					<path style="opacity:0.3;" d="M386.253,141.609c4.203-3.324,18.592-0.554,8.731,12.854L386.253,141.609z"/>
				</g>
				<path style="fill:#263238;" d="M388.469,147.835c12.262,1.832,13.117,21.758-5.911,24.849L388.469,147.835z"/>
				<path style="fill:#E58A7B;" d="M387.212,167.905c-0.9,4.592-1.799,13.006,1.414,16.071c0,0-1.255,4.658-9.788,4.658
					c-9.383,0-4.484-4.658-4.484-4.658c5.121-1.223,4.989-5.022,4.097-8.59L387.212,167.905z"/>
				<path style="fill:#CF6F64;" d="M383.64,170.957l-5.186,4.424c0.214,0.844,0.381,1.701,0.44,2.533
					c1.956-0.283,4.644-2.43,4.851-4.479C383.85,172.415,383.807,171.433,383.64,170.957z"/>
				<path style="fill:#263238;" d="M367.86,162.588c-4.233-5.446-9.739-19.506,6.749-20.854L367.86,162.588z"/>
				<path style="fill:#E58A7B;" d="M386.897,156.193c1.015,7.613,1.607,10.814-1.435,15.421c-4.575,6.93-14.148,6.511-17.417-0.646
					c-2.942-6.442-4.108-17.81,2.668-22.249C377.39,144.346,385.883,148.58,386.897,156.193z"/>
				<g>
					<path style="fill:#407BFF;" d="M364.971,232.667c0,0-6.104,59.615-5.597,83.215c0.527,24.548,9.523,80.534,9.523,80.534h10.465
						c0,0-1.656-54.552-0.731-78.66c1.008-26.283,9.357-85.089,9.357-85.089H364.971z"/>
					<path style="opacity:0.6;fill:#FAFAFA;" d="M364.971,232.667c0,0-6.104,59.615-5.597,83.215
						c0.527,24.548,9.523,80.534,9.523,80.534h10.465c0,0-1.656-54.552-0.731-78.66c1.008-26.283,9.357-85.089,9.357-85.089H364.971
						z"/>
				</g>
				<g>
					<polygon style="fill:#407BFF;" points="380.268,396.792 367.989,396.792 367.089,392.875 380.839,392.396 					"/>
					<polygon style="opacity:0.4;fill:#FAFAFA;" points="380.268,396.792 367.989,396.792 367.089,392.875 380.839,392.396 					"/>
				</g>
				<g>
					<path style="fill:#407BFF;" d="M378.528,247.5c-7.72,15.53-1.55,43.86,1.18,54.4c1.4-15.83,3.76-35.18,5.6-49.39
						C384.138,244.47,382.089,240.34,378.528,247.5z"/>
					<path style="opacity:0.4;fill:#FAFAFA;" d="M378.528,247.5c-7.72,15.53-1.55,43.86,1.18,54.4c1.4-15.83,3.76-35.18,5.6-49.39
						C384.138,244.47,382.089,240.34,378.528,247.5z"/>
				</g>
				<g>
					<path style="fill:#407BFF;" d="M373.271,232.667c0,0,7.12,61.977,12.497,81.875c6.384,23.623,46.036,55.415,46.036,55.415
						l8.043-6.832c0,0-28.74-34.535-33.621-46.98c-10.417-26.561-1.5-66.145-9.825-83.478H373.271z"/>
					<path style="opacity:0.6;fill:#FAFAFA;" d="M373.271,232.667c0,0,7.12,61.977,12.497,81.875
						c6.384,23.623,46.036,55.415,46.036,55.415l8.043-6.832c0,0-28.74-34.535-33.621-46.98c-10.417-26.561-1.5-66.145-9.825-83.478
						H373.271z"/>
				</g>
				<g>
					<polygon style="fill:#407BFF;" points="441.131,362.758 431.153,371.234 427.425,369 438.714,358.5 					"/>
					<polygon style="opacity:0.4;fill:#FAFAFA;" points="441.131,362.758 431.153,371.234 427.425,369 438.714,358.5 					"/>
				</g>
				<path style="fill:#263238;" d="M375.9,160.536c0.12,0.613-0.107,1.173-0.507,1.251s-0.822-0.354-0.943-0.967
					s0.107-1.173,0.507-1.251S375.779,159.923,375.9,160.536z"/>
				<path style="fill:#263238;" d="M368.976,161.895c0.12,0.613-0.107,1.173-0.507,1.251c-0.4,0.079-0.822-0.354-0.943-0.967
					c-0.12-0.613,0.107-1.173,0.507-1.251C368.434,160.85,368.856,161.283,368.976,161.895z"/>
				<path style="fill:#263238;" d="M368.217,160.928l-1.555-0.135C366.663,160.792,367.643,161.793,368.217,160.928z"/>
				<path style="fill:#DF5753;" d="M371.013,162.588c0,0-0.522,2.841-1.416,4.338c0.957,0.596,2.264-0.019,2.264-0.019
					L371.013,162.588z"/>
				<path style="fill:#263238;" d="M374.455,168.9c-0.086,0-0.163-0.061-0.18-0.148c-0.02-0.099,0.045-0.195,0.145-0.215
					c2.689-0.528,3.574-2.652,3.583-2.673c0.037-0.094,0.144-0.14,0.238-0.102c0.094,0.038,0.14,0.144,0.102,0.238
					c-0.038,0.095-0.971,2.33-3.853,2.896C374.478,168.899,374.467,168.9,374.455,168.9z"/>
				<path style="fill:#263238;" d="M367.989,151.422c0,0,6.507,9.866,18.507,11.166c0,0,12.399-11.245,4.778-19.047
					C378.94,130.917,364.217,146.956,367.989,151.422z"/>
				<path style="fill:#E58A7B;" d="M389.515,162.077c-0.028,1.592-0.789,3.023-1.745,3.916c-1.438,1.344-3.061,0.277-3.418-1.554
					c-0.322-1.647,0.039-4.332,1.846-4.98C387.979,158.82,389.547,160.256,389.515,162.077z"/>
				<path style="fill:#263238;" d="M377.477,157.9c-0.087,0-0.174-0.031-0.244-0.093c-1.22-1.09-2.528-0.752-2.541-0.749
					c-0.2,0.05-0.397-0.063-0.449-0.258c-0.053-0.195,0.063-0.397,0.258-0.45c0.07-0.018,1.709-0.442,3.221,0.91
					c0.151,0.135,0.164,0.367,0.029,0.518C377.679,157.859,377.578,157.9,377.477,157.9z"/>
				<path style="fill:#263238;" d="M365.136,159.329c-0.047,0-0.095-0.009-0.141-0.028c-0.186-0.078-0.275-0.292-0.198-0.479
					c0.778-1.873,2.439-2.201,2.509-2.214c0.213-0.04,0.391,0.096,0.428,0.294c0.037,0.198-0.094,0.389-0.292,0.427l0,0
					c-0.055,0.011-1.346,0.281-1.967,1.775C365.416,159.244,365.279,159.329,365.136,159.329z"/>
				<path style="fill:#E58A7B;" d="M412.949,224.333l-0.041-0.892c-0.032-1.204-0.17-2.352-0.287-3.514
					c-0.578-4.596-1.625-8.971-2.862-13.265c-1.242-4.309-2.661-8.451-4.39-12.655L398.045,197
					c1.487,3.859,2.898,7.933,4.181,11.929c0.623,2.01,1.218,4.03,1.729,6.046c0.549,2.014,0.98,4.027,1.345,6.023
					c0.07,0.443,0.145,0.888,0.214,1.331c-0.69-0.227-1.403-0.482-2.125-0.776c-3.78-1.544-7.643-3.545-11.444-5.465l-2.218,3.232
					c3.405,2.91,6.925,5.517,10.922,7.839c1.012,0.569,2.053,1.124,3.227,1.607c0.59,0.242,1.209,0.473,1.924,0.669
					c0.366,0.095,0.743,0.186,1.195,0.247c0.443,0.061,0.942,0.107,1.602,0.043c0.638-0.071,1.514-0.246,2.448-0.921
					c0.949-0.663,1.592-1.846,1.763-2.69C413.013,225.281,412.956,224.481,412.949,224.333z M407.57,222.837
					c0.08-0.016,0.147-0.024,0.181-0.026C407.908,222.828,407.773,222.847,407.57,222.837z"/>
				<g>
					<path style="fill:#407BFF;" d="M401.973,185.734c3.149,0.958,6.931,11.801,6.931,11.801l-12.217,8.735
						c0,0-4.455-9.051-3.132-13.122C394.933,188.909,398.38,184.641,401.973,185.734z"/>
					<path style="opacity:0.5;" d="M401.973,185.734c3.149,0.958,6.931,11.801,6.931,11.801l-12.217,8.735
						c0,0-4.455-9.051-3.132-13.122C394.933,188.909,398.38,184.641,401.973,185.734z"/>
				</g>
				<path style="fill:#407BFF;" d="M437.191,379.083c-0.303,0-0.578-0.141-0.818-0.419c-0.204-0.236-0.193-0.465-0.147-0.614
					c0.286-0.946,2.974-1.718,3.279-1.803c0.067-0.017,0.146,0.005,0.191,0.061c0.046,0.058,0.054,0.136,0.02,0.201
					c-0.48,0.91-1.432,2.454-2.409,2.566C437.268,379.08,437.229,379.083,437.191,379.083z M439.178,376.728
					c-1.066,0.34-2.451,0.931-2.602,1.429c-0.02,0.063-0.027,0.149,0.074,0.267c0.189,0.22,0.386,0.316,0.615,0.288
					C437.793,378.651,438.494,377.919,439.178,376.728z"/>
				<path style="fill:#407BFF;" d="M438.328,376.759c-0.893,0-1.897-0.179-2.24-0.626c-0.104-0.135-0.238-0.419,0.021-0.802
					c0.165-0.242,0.398-0.385,0.694-0.423c1.099-0.124,2.799,1.315,2.87,1.378c0.05,0.043,0.072,0.108,0.06,0.173
					c-0.012,0.063-0.058,0.116-0.119,0.138C439.321,376.699,438.843,376.759,438.328,376.759z M436.968,375.265
					c-0.04,0-0.079,0.003-0.117,0.008c-0.19,0.024-0.333,0.111-0.439,0.266c-0.133,0.194-0.087,0.301-0.033,0.371
					c0.329,0.429,1.848,0.592,2.778,0.427C438.604,375.906,437.634,375.265,436.968,375.265z"/>
				<path style="fill:#407BFF;" d="M367.62,407.342c-0.77,0-1.479-0.119-1.878-0.478c-0.252-0.227-0.364-0.527-0.331-0.893
					c0.02-0.218,0.127-0.387,0.311-0.487c0.95-0.517,4.034,1.057,4.383,1.238c0.068,0.035,0.107,0.111,0.097,0.188
					c-0.011,0.076-0.069,0.139-0.145,0.153C369.398,407.195,368.473,407.342,367.62,407.342z M366.239,405.74
					c-0.142,0-0.258,0.021-0.342,0.066c-0.075,0.041-0.112,0.103-0.121,0.198c-0.023,0.247,0.047,0.439,0.211,0.587
					c0.471,0.423,1.746,0.495,3.459,0.212C368.384,406.294,366.973,405.74,366.239,405.74z"/>
				<path style="fill:#407BFF;" d="M370.02,407.068c-0.025,0-0.052-0.006-0.075-0.017c-0.923-0.417-2.747-2.086-2.604-2.963
					c0.034-0.207,0.181-0.466,0.689-0.518c0.377-0.037,0.717,0.069,1.016,0.316c0.973,0.811,1.151,2.895,1.158,2.982
					c0.005,0.065-0.024,0.127-0.077,0.164C370.094,407.057,370.057,407.068,370.02,407.068z M368.176,403.931
					c-0.036,0-0.073,0.002-0.11,0.006c-0.335,0.034-0.356,0.168-0.364,0.212c-0.085,0.526,1.153,1.839,2.094,2.409
					c-0.09-0.607-0.348-1.856-0.986-2.388C368.616,404.01,368.408,403.931,368.176,403.931z"/>
				<path style="fill:#E58A7B;" d="M392.972,216.909l-2.598-7.947l-4.144,6.69c0,0,2.439,4.329,5.656,4.261L392.972,216.909z"/>
				<polygon style="fill:#E58A7B;" points="384.971,205.337 381.805,211.126 386.23,215.652 390.374,208.962 				"/>
				<path style="fill:#263238;" d="M375.141,159.568l-1.555-0.135C373.586,159.433,374.566,160.434,375.141,159.568z"/>
				<path style="fill:#263238;" d="M396.872,230.823l0.804,2.813c0.11,0.218-0.149,0.441-0.512,0.441h-32.349
					c-0.283,0-0.518-0.139-0.536-0.317l-0.283-2.813c-0.02-0.195,0.226-0.36,0.536-0.36h31.828
					C396.594,230.587,396.801,230.682,396.872,230.823z"/>
				<g>
					<path style="fill:#407BFF;" d="M392.598,234.382h0.852c0.17,0,0.299-0.088,0.287-0.195l-0.4-3.655
						c-0.012-0.107-0.16-0.195-0.33-0.195h-0.853c-0.17,0-0.299,0.087-0.287,0.195l0.4,3.655
						C392.279,234.294,392.428,234.382,392.598,234.382z"/>
					<path style="opacity:0.6;fill:#FAFAFA;" d="M392.598,234.382h0.852c0.17,0,0.299-0.088,0.287-0.195l-0.4-3.655
						c-0.012-0.107-0.16-0.195-0.33-0.195h-0.853c-0.17,0-0.299,0.087-0.287,0.195l0.4,3.655
						C392.279,234.294,392.428,234.382,392.598,234.382z"/>
				</g>
				<g>
					<path style="fill:#407BFF;" d="M367.211,234.382h0.852c0.17,0,0.299-0.088,0.287-0.195l-0.4-3.655
						c-0.012-0.107-0.16-0.195-0.33-0.195h-0.852c-0.17,0-0.299,0.087-0.287,0.195l0.4,3.655
						C366.893,234.294,367.041,234.382,367.211,234.382z"/>
					<path style="opacity:0.6;fill:#FAFAFA;" d="M367.211,234.382h0.852c0.17,0,0.299-0.088,0.287-0.195l-0.4-3.655
						c-0.012-0.107-0.16-0.195-0.33-0.195h-0.852c-0.17,0-0.299,0.087-0.287,0.195l0.4,3.655
						C366.893,234.294,367.041,234.382,367.211,234.382z"/>
				</g>
				<g>
					<path style="fill:#407BFF;" d="M379.904,234.382h0.852c0.17,0,0.299-0.088,0.287-0.195l-0.4-3.655
						c-0.012-0.107-0.16-0.195-0.33-0.195h-0.852c-0.17,0-0.299,0.087-0.287,0.195l0.4,3.655
						C379.586,234.294,379.735,234.382,379.904,234.382z"/>
					<path style="opacity:0.6;fill:#FAFAFA;" d="M379.904,234.382h0.852c0.17,0,0.299-0.088,0.287-0.195l-0.4-3.655
						c-0.012-0.107-0.16-0.195-0.33-0.195h-0.852c-0.17,0-0.299,0.087-0.287,0.195l0.4,3.655
						C379.586,234.294,379.735,234.382,379.904,234.382z"/>
				</g>
			</g>
			<g>
				<g>
					<path style="fill:#407BFF;" d="M279.602,416.238h66.147c6.6,0,11.622-5.4,11.161-12l-15.821-226.252
						c-0.462-6.6-6.239-12-12.839-12h-66.147c-6.6,0-11.622,5.4-11.161,12l15.821,226.252
						C267.224,410.838,273.002,416.238,279.602,416.238z"/>
					<path style="opacity:0.2;" d="M279.602,416.238h66.147c6.6,0,11.622-5.4,11.161-12l-15.821-226.252
						c-0.462-6.6-6.239-12-12.839-12h-66.147c-6.6,0-11.622,5.4-11.161,12l15.821,226.252
						C267.224,410.838,273.002,416.238,279.602,416.238z"/>
				</g>
				<g>
					
						<rect x="244.201" y="247.779" transform="matrix(0.9976 -0.0697 0.0697 0.9976 -17.2347 17.6872)" style="fill:#407BFF;" width="1" height="15.802"/>
					
						<rect x="244.201" y="247.779" transform="matrix(0.9976 -0.0697 0.0697 0.9976 -17.2347 17.6872)" style="opacity:0.5;" width="1" height="15.802"/>
				</g>
				<g>
					<path style="fill:#407BFF;" d="M270.935,416.238h66.147c6.6,0,11.622-5.4,11.161-12l-15.821-226.252
						c-0.461-6.6-6.239-12-12.839-12h-66.147c-6.6,0-11.622,5.4-11.161,12l15.821,226.252
						C258.558,410.838,264.335,416.238,270.935,416.238z"/>
					<path style="opacity:0.5;" d="M270.935,416.238h66.147c6.6,0,11.622-5.4,11.161-12l-15.821-226.252
						c-0.461-6.6-6.239-12-12.839-12h-66.147c-6.6,0-11.622,5.4-11.161,12l15.821,226.252
						C258.558,410.838,264.335,416.238,270.935,416.238z"/>
				</g>
				<g>
					<path style="fill:#407BFF;" d="M283.215,238.061h12.249c1.222,0,2.152-1,2.067-2.222l-2.93-41.898
						c-0.085-1.222-1.155-2.222-2.378-2.222h-12.249c-1.222,0-2.152,1-2.067,2.222l2.93,41.898
						C280.923,237.061,281.993,238.061,283.215,238.061z"/>
					<path style="opacity:0.2;" d="M283.215,238.061h12.249c1.222,0,2.152-1,2.067-2.222l-2.93-41.898
						c-0.085-1.222-1.155-2.222-2.378-2.222h-12.249c-1.222,0-2.152,1-2.067,2.222l2.93,41.898
						C280.923,237.061,281.993,238.061,283.215,238.061z"/>
				</g>
			</g>
		</g>
	</g>
</g>
<g id="Character">
	<g>
		<g>
			<g>
				<path style="fill:#407BFF;" d="M208.251,416.238h-66.147c-6.6,0-11.622-5.4-11.161-12l15.821-226.252
					c0.462-6.6,6.239-12,12.839-12h66.147c6.6,0,11.622,5.4,11.161,12L221.09,404.238
					C220.629,410.838,214.851,416.238,208.251,416.238z"/>
				<path style="opacity:0.5;" d="M208.251,416.238h-66.147c-6.6,0-11.622-5.4-11.161-12l15.821-226.252
					c0.462-6.6,6.239-12,12.839-12h66.147c6.6,0,11.622,5.4,11.161,12L221.09,404.238
					C220.629,410.838,214.851,416.238,208.251,416.238z"/>
			</g>
			<g>
				<rect x="176.7" y="162.486" style="fill:#407BFF;" width="3.728" height="1"/>
				<rect x="176.7" y="162.486" style="opacity:0.3;" width="3.728" height="1"/>
			</g>
			<g>
				<rect x="158.281" y="162.486" style="fill:#407BFF;" width="11.73" height="1"/>
				<rect x="158.281" y="162.486" style="opacity:0.3;" width="11.73" height="1"/>
			</g>
			<g>
				<path style="fill:#407BFF;" d="M199.584,416.238h-66.147c-6.6,0-11.622-5.4-11.161-12l15.821-226.252
					c0.462-6.6,6.239-12,12.839-12h66.147c6.6,0,11.622,5.4,11.161,12l-15.821,226.252
					C211.962,410.838,206.184,416.238,199.584,416.238z"/>
				<path style="opacity:0.3;" d="M199.584,416.238h-66.147c-6.6,0-11.622-5.4-11.161-12l15.821-226.252
					c0.462-6.6,6.239-12,12.839-12h66.147c6.6,0,11.622,5.4,11.161,12l-15.821,226.252
					C211.962,410.838,206.184,416.238,199.584,416.238z"/>
			</g>
			<g>
				<path style="fill:#407BFF;" d="M209.501,403.222h-87.086c-0.885,0-1.585-0.75-1.523-1.633l15.411-220.391
					c0.056-0.8,0.721-1.42,1.523-1.42h87.086c0.885,0,1.585,0.75,1.523,1.633l-15.411,220.391
					C210.968,402.602,210.303,403.222,209.501,403.222z"/>
				<path style="opacity:0.9;fill:#FAFAFA;" d="M209.501,403.222h-87.086c-0.885,0-1.585-0.75-1.523-1.633l15.411-220.391
					c0.056-0.8,0.721-1.42,1.523-1.42h87.086c0.885,0,1.585,0.75,1.523,1.633l-15.411,220.391
					C210.968,402.602,210.303,403.222,209.501,403.222z"/>
			</g>
			<g>
				<path style="fill:#407BFF;" d="M207.381,202.343h-56.533c-3.125,0-5.86,2.557-6.079,5.681l-5.888,84.197
					c-0.218,3.125,2.159,5.681,5.284,5.681h3.926l-1.959,6.168c0,0,6.702-0.218,11.82-6.168h42.747c3.125,0,5.86-2.557,6.079-5.681
					l5.888-84.197C212.884,204.9,210.506,202.343,207.381,202.343z"/>
				<path style="opacity:0.6;fill:#FAFAFA;" d="M207.381,202.343h-56.533c-3.125,0-5.86,2.557-6.079,5.681l-5.888,84.197
					c-0.218,3.125,2.159,5.681,5.284,5.681h3.926l-1.959,6.168c0,0,6.702-0.218,11.82-6.168h42.747c3.125,0,5.86-2.557,6.079-5.681
					l5.888-84.197C212.884,204.9,210.506,202.343,207.381,202.343z"/>
			</g>
			<g>
				<path style="fill:#407BFF;" d="M142.981,314.847h56.533c3.125,0,5.502,2.557,5.284,5.681l-2.529,36.174
					c-0.219,3.125-2.954,5.681-6.079,5.681h-3.926l1.097,6.168c0,0-6.671-0.218-10.957-6.168h-42.747
					c-3.125,0-5.503-2.557-5.284-5.681l2.529-36.174C137.121,317.404,139.856,314.847,142.981,314.847z"/>
				<path style="opacity:0.6;fill:#FAFAFA;" d="M142.981,314.847h56.533c3.125,0,5.502,2.557,5.284,5.681l-2.529,36.174
					c-0.219,3.125-2.954,5.681-6.079,5.681h-3.926l1.097,6.168c0,0-6.671-0.218-10.957-6.168h-42.747
					c-3.125,0-5.503-2.557-5.284-5.681l2.529-36.174C137.121,317.404,139.856,314.847,142.981,314.847z"/>
			</g>
			<g>
				<path style="fill:#407BFF;" d="M194.051,172.333c-0.073,1.043-0.978,1.889-2.021,1.889s-1.83-0.846-1.757-1.889
					c0.073-1.043,0.978-1.889,2.021-1.889C193.337,170.444,194.123,171.29,194.051,172.333z"/>
				<path style="opacity:0.5;" d="M194.051,172.333c-0.073,1.043-0.978,1.889-2.021,1.889s-1.83-0.846-1.757-1.889
					c0.073-1.043,0.978-1.889,2.021-1.889C193.337,170.444,194.123,171.29,194.051,172.333z"/>
			</g>
			<g>
				<path style="fill:#407BFF;" d="M184.307,174.222h-13.191c-1.039,0-1.829-0.85-1.757-1.889l0,0
					c0.073-1.039,0.982-1.889,2.021-1.889h13.191c1.039,0,1.83,0.85,1.757,1.889l0,0
					C186.256,173.372,185.346,174.222,184.307,174.222z"/>
				<path style="opacity:0.5;" d="M184.307,174.222h-13.191c-1.039,0-1.829-0.85-1.757-1.889l0,0
					c0.073-1.039,0.982-1.889,2.021-1.889h13.191c1.039,0,1.83,0.85,1.757,1.889l0,0
					C186.256,173.372,185.346,174.222,184.307,174.222z"/>
			</g>
		</g>
		<g>
			<path style="fill:#E58A7B;" d="M113.886,217.674l1.578,3.071c0.546,1.046,1.11,2.089,1.69,3.119
				c1.159,2.063,2.332,4.117,3.58,6.102c2.456,3.998,5.153,7.793,8.099,11.06c0.748,0.751,1.56,1.651,2.073,2.063
				c0.637,0.523,1.436,1.065,2.324,1.561c1.792,0.984,3.888,1.844,6.058,2.598c4.349,1.492,9.109,2.689,13.75,3.695l-0.318,5.507
				c-5.236,0.28-10.316,0.03-15.572-0.91c-2.619-0.497-5.265-1.143-7.965-2.254c-1.351-0.559-2.729-1.221-4.101-2.147
				c-0.661-0.43-1.454-1.059-1.906-1.472l-1.576-1.386c-4.008-3.796-7.277-7.979-10.175-12.307
				c-1.448-2.169-2.816-4.371-4.068-6.634c-0.632-1.129-1.244-2.266-1.841-3.417c-0.613-1.165-1.15-2.275-1.739-3.577
				L113.886,217.674z"/>
			<path style="fill:#E58A7B;" d="M150.987,250.944l4.453-3.146l2.347,9.086c0,0-3.921,1.376-6.868-0.618L150.987,250.944z"/>
			<polygon style="fill:#E58A7B;" points="161.585,245.737 163.173,253.337 157.787,256.884 155.439,247.798 			"/>
			<g>
				<g>
					<path style="fill:#407BFF;" d="M189.865,237.69l-1.216-0.217c-1.262-0.225-2.54-0.148-3.784,0.229l-3.494,1.058
						c1.042-2.139,2.652-6.483,1.916-11.859c-0.419-3.058-2.72-2.362-2.72-2.362s-3.364,12.716-10.361,17.601l-2.242,1.526
						l3.136,22.41l2.585-0.238v-0.001c0.993,0.039,6.699,0.031,10.366,0.022c2.01-0.005,3.955-1.044,5.5-2.937
						c1.751-2.145,2.853-5.223,3.065-8.559l0.665-10.438C193.478,240.829,191.964,238.065,189.865,237.69z"/>
					<path style="opacity:0.9;fill:#FAFAFA;" d="M189.865,237.69l-1.216-0.217c-1.262-0.225-2.54-0.148-3.784,0.229l-3.494,1.058
						c1.042-2.139,2.652-6.483,1.916-11.859c-0.419-3.058-2.72-2.362-2.72-2.362s-3.364,12.716-10.361,17.601l-2.242,1.526
						l3.136,22.41l2.585-0.238v-0.001c0.993,0.039,6.699,0.031,10.366,0.022c2.01-0.005,3.955-1.044,5.5-2.937
						c1.751-2.145,2.853-5.223,3.065-8.559l0.665-10.438C193.478,240.829,191.964,238.065,189.865,237.69z"/>
				</g>
				<path style="fill:#407BFF;" d="M161.415,271.277l9.868-2.143c0.767-0.167,1.302-1.226,1.189-2.355l-2.577-25.668
					c-0.113-1.128-0.834-1.915-1.601-1.749l-9.868,2.143c-0.767,0.167-1.302,1.226-1.189,2.355l2.577,25.668
					C159.928,270.657,160.648,271.444,161.415,271.277z"/>
			</g>
			<path style="fill:#263238;" d="M142.423,186.66c-0.121,0.58,0.088,1.114,0.468,1.193c0.379,0.079,0.785-0.327,0.906-0.907
				c0.121-0.58-0.088-1.114-0.468-1.194C142.949,185.673,142.544,186.079,142.423,186.66z"/>
			<path style="fill:#DF5753;" d="M142.458,187.763c0,0,0.622,3.622,1.737,5.539c-1.226,0.744-2.88-0.058-2.88-0.058
				L142.458,187.763z"/>
			<path style="fill:#263238;" d="M143.951,183.11c-0.064,0-0.129-0.018-0.188-0.055c-0.051-0.033-1.114-0.684-2.514-0.061
				c-0.175,0.078-0.381,0-0.46-0.176c-0.078-0.176,0.001-0.381,0.176-0.46c1.76-0.782,3.118,0.075,3.174,0.111
				c0.162,0.105,0.208,0.32,0.103,0.481C144.177,183.054,144.065,183.11,143.951,183.11z"/>
			<path style="fill:#E58A7B;" d="M121.836,188.516c1.054,5.374,2.105,15.222-1.655,18.808c0,0,1.469,5.452,11.455,5.452
				c10.981,0,5.248-5.451,5.248-5.451c-5.993-1.431-5.838-5.878-4.794-10.053L121.836,188.516z"/>
			<path style="fill:#407BFF;" d="M118.662,208.858c-0.724-1.753-0.599-5.009-0.069-5.046c2.081-0.144,13.173-0.177,16.846,1.235
				c3.673,1.412,2.492,4.871,2.492,4.871L118.662,208.858z"/>
			<path style="fill:#407BFF;" d="M94.128,410.021c-0.758,0-1.541-0.117-1.918-0.208c-0.066-0.016-0.118-0.069-0.13-0.137
				c-0.013-0.068,0.016-0.137,0.072-0.176c0.085-0.059,2.113-1.44,3.187-1.196c0.247,0.059,0.43,0.195,0.546,0.405
				c0.22,0.401,0.125,0.671,0.006,0.826C95.609,409.905,94.881,410.021,94.128,410.021z M92.704,409.558
				c1.097,0.186,2.597,0.179,2.912-0.233c0.03-0.04,0.123-0.161-0.034-0.447c-0.067-0.122-0.172-0.199-0.321-0.234
				C94.624,408.49,93.409,409.123,92.704,409.558z"/>
			<path style="fill:#407BFF;" d="M92.252,409.817c-0.033,0-0.066-0.009-0.095-0.028c-0.054-0.034-0.084-0.096-0.079-0.159
				c0.007-0.09,0.183-2.21,1.036-2.907c0.222-0.181,0.473-0.254,0.741-0.224c0.417,0.052,0.526,0.309,0.554,0.457
				c0.155,0.819-1.315,2.429-2.075,2.841C92.309,409.81,92.28,409.817,92.252,409.817z M93.734,406.84
				c-0.143,0-0.274,0.05-0.399,0.152c-0.511,0.418-0.771,1.593-0.869,2.303c0.756-0.572,1.693-1.789,1.602-2.274
				c-0.008-0.044-0.028-0.148-0.254-0.176C93.787,406.841,93.76,406.84,93.734,406.84z"/>
			<polygon style="fill:#E58A7B;" points="83.774,409.644 91.12,409.644 97.894,392.632 90.547,392.632 			"/>
			<path style="fill:#263238;" d="M91.704,408.793H83.45c-0.3,0-0.56,0.209-0.625,0.502l-1.451,6.53
				c-0.15,0.677,0.382,1.318,1.076,1.306c2.881-0.049,4.281-0.219,7.911-0.219c2.233,0,6.833,0.232,9.917,0.232
				c3.016,0,3.486-3.049,2.224-3.325c-5.66-1.238-7.792-2.946-9.605-4.575C92.569,408.951,92.143,408.793,91.704,408.793z"/>
			<path style="fill:#E58A7B;" d="M151.513,214.467c2.184,4.018,4.345,8.099,6.48,12.163l6.376,12.193l1.596,3.026
				c0.663,1.22,0.732,1.464,1.201,2.081c0.83,1.151,2.294,2.299,3.956,3.333c3.355,2.042,7.615,3.675,11.698,4.974l-0.621,5.481
				c-1.337,0.033-2.514-0.021-3.763-0.115c-1.234-0.086-2.469-0.221-3.702-0.43c-2.467-0.406-4.951-1.014-7.437-2.005
				c-2.484-0.985-5.009-2.342-7.336-4.59c-1.132-1.063-2.273-2.811-2.749-3.6l-1.88-2.979c-2.461-3.988-4.818-8.008-7.11-12.061
				c-2.277-4.066-4.476-8.144-6.583-12.322L151.513,214.467z"/>
			<g>
				<path style="fill:#407BFF;" d="M101.536,213.413c-2.977,6.406,6.595,26.648,6.595,26.648l16.377-7.596
					c0,0-2.574-8.633-6.66-16.739C113.567,207.231,104.581,206.863,101.536,213.413z"/>
				<path style="opacity:0.8;fill:#FAFAFA;" d="M101.536,213.413c-2.977,6.406,6.595,26.648,6.595,26.648l16.377-7.596
					c0,0-2.574-8.633-6.66-16.739C113.567,207.231,104.581,206.863,101.536,213.413z"/>
			</g>
			<g>
				<path style="fill:#407BFF;" d="M110.333,214.722l-3.703,21.948c0.88,2.07,1.5,3.39,1.5,3.39l16.38-7.6
					C124.51,232.46,117.111,219.667,110.333,214.722z"/>
				<path style="opacity:0.7;fill:#FAFAFA;" d="M110.333,214.722l-3.703,21.948c0.88,2.07,1.5,3.39,1.5,3.39l16.38-7.6
					C124.51,232.46,117.111,219.667,110.333,214.722z"/>
			</g>
			<g>
				<path style="fill:#407BFF;" d="M148.184,209.364c0,0,7.819,8.832,0.435,63.497c-11.839,0-33.532,0-39.293,0
					c-0.271-6.032,3.519-35.456-2.298-63.876c0,0,6.735-1.352,13.154-1.661c5.021-0.242,12.289-0.402,16.703,0.001
					C142.703,207.856,148.184,209.364,148.184,209.364z"/>
				<path style="opacity:0.8;fill:#FAFAFA;" d="M148.184,209.364c0,0,7.819,8.832,0.435,63.497c-11.839,0-33.532,0-39.293,0
					c-0.271-6.032,3.519-35.456-2.298-63.876c0,0,6.735-1.352,13.154-1.661c5.021-0.242,12.289-0.402,16.703,0.001
					C142.703,207.856,148.184,209.364,148.184,209.364z"/>
			</g>
			<g>
				<path style="fill:#407BFF;" d="M151.35,222.37l-6.072,15.019l6.072,8.831C152.02,235.55,151.85,227.87,151.35,222.37z"/>
				<path style="opacity:0.7;fill:#FAFAFA;" d="M151.35,222.37l-6.072,15.019l6.072,8.831
					C152.02,235.55,151.85,227.87,151.35,222.37z"/>
			</g>
			<g>
				<path style="fill:#407BFF;" d="M138.622,214.213c-2.423,6.592,7.295,26.62,7.295,26.62l17.607-8.869
					c0,0-3.502-9.627-8.627-17.13C149.635,207.13,141.281,206.978,138.622,214.213z"/>
				<path style="opacity:0.8;fill:#FAFAFA;" d="M138.622,214.213c-2.423,6.592,7.295,26.62,7.295,26.62l17.607-8.869
					c0,0-3.502-9.627-8.627-17.13C149.635,207.13,141.281,206.978,138.622,214.213z"/>
			</g>
			<path style="fill:#E58A7B;" d="M181.413,252.49l7.197-2.877l1.989,8.676c0,0-5.718,2.07-9.879-0.937L181.413,252.49z"/>
			<polygon style="fill:#E58A7B;" points="196.549,249.697 195.437,257.461 190.6,258.289 188.61,249.613 			"/>
			<g>
				<polygon style="fill:#CF6F64;" points="90.544,392.636 97.893,392.636 93.02,404.863 86.224,403.476 				"/>
			</g>
			<path style="fill:#E58A7B;" d="M123.331,181.397c-1.048,7.215-2.027,11.385,0.808,15.792c4.266,6.629,13.74,5.199,16.922-1.558
				c2.864-6.082,4.096-16.86-2.286-21.148C132.488,170.257,124.379,174.181,123.331,181.397z"/>
			<path style="fill:#263238;" d="M151.047,169.275c-6.215-5.742-1.294-7.202-1.294-7.202s-6.826-2.82-4.124,3.214
				c3.774,8.426-6.79,5.828-11.848-0.004c-3.125-3.603-11.335,0.089-10.931,3.6c0.414,3.606-12.503,0.783-6.663,8.45
				c0.111,8,3.222,15.778,7.357,17.887c7.079,3.611,12.385-6.487,14.363-14.577C148.585,185.779,157.494,175.231,151.047,169.275z"
				/>
			<path style="fill:#E58A7B;" d="M132.513,185.472c0.014,1.91,0.804,3.747,1.806,4.974c1.507,1.846,3.233,0.836,3.629-1.295
				c0.356-1.918,0.002-5.19-1.903-6.264C134.169,181.829,132.498,183.289,132.513,185.472z"/>
			<path style="fill:#263238;" d="M116.262,169.855c3.021-0.313,6.73,1.145,8.875,2.889
				C125.138,172.743,123.325,164.958,116.262,169.855z"/>
			<g>
				<path style="fill:#407BFF;" d="M131.409,272.861c0,0,1.468,29.762,6.906,55.972c1.723,8.305,0.596,17.21-4.273,24.154
					c-14.314,20.417-36.966,47.594-36.966,47.594l-11.885-1.331c0,0,19.249-35.689,29.107-53.418
					c2.245-4.037,4.222-7.667,2.528-11.968c-16.324-41.448-7.5-61.005-7.5-61.005H131.409z"/>
				<path style="opacity:0.3;" d="M131.409,272.861c0,0,1.468,29.762,6.906,55.972c1.723,8.305,0.596,17.21-4.273,24.154
					c-14.314,20.417-36.966,47.594-36.966,47.594l-11.885-1.331c0,0,19.249-35.689,29.107-53.418
					c2.245-4.037,4.222-7.667,2.528-11.968c-16.324-41.448-7.5-61.005-7.5-61.005H131.409z"/>
			</g>
			<g>
				<path style="fill:#407BFF;" d="M133.624,298.58L122.244,285c-0.43,6.09,3.25,28.87,15.87,42.87
					C136.104,317.96,134.654,307.59,133.624,298.58z"/>
				<path style="opacity:0.4;" d="M133.624,298.58L122.244,285c-0.43,6.09,3.25,28.87,15.87,42.87
					C136.104,317.96,134.654,307.59,133.624,298.58z"/>
			</g>
			<g>
				<polygon style="fill:#407BFF;" points="100.385,398.801 98.055,403.618 83.732,399.944 84.866,395.466 				"/>
				<polygon style="opacity:0.1;" points="100.385,398.801 98.055,403.618 83.732,399.944 84.866,395.466 				"/>
			</g>
			<polygon style="fill:#E58A7B;" points="143.088,409.644 150.434,409.644 152.584,392.632 145.238,392.632 			"/>
			<path style="fill:#407BFF;" d="M153.645,410.022c-0.879,0-1.786-0.113-2.255-0.207c-0.071-0.015-0.126-0.071-0.138-0.143
				c-0.012-0.072,0.022-0.144,0.085-0.179c0.109-0.064,2.673-1.52,3.899-1.193c0.25,0.068,0.437,0.205,0.551,0.407
				c0.206,0.359,0.122,0.612,0.014,0.761C155.497,409.892,154.587,410.022,153.645,410.022z M151.953,409.556
				c1.376,0.194,3.235,0.167,3.567-0.292c0.045-0.062,0.089-0.168-0.034-0.385c-0.069-0.12-0.18-0.199-0.341-0.243
				C154.393,408.43,152.851,409.096,151.953,409.556z"/>
			<path style="fill:#407BFF;" d="M151.424,409.817c-0.036,0-0.071-0.011-0.101-0.032c-0.05-0.036-0.078-0.097-0.072-0.158
				c0.008-0.084,0.206-2.063,1.141-2.83c0.285-0.234,0.611-0.336,0.965-0.298c0.479,0.049,0.616,0.291,0.648,0.486
				c0.134,0.832-1.623,2.42-2.509,2.817C151.473,409.813,151.448,409.817,151.424,409.817z M153.217,406.84
				c-0.221,0-0.419,0.074-0.605,0.227c-0.614,0.504-0.876,1.688-0.97,2.265c0.905-0.543,2.099-1.791,2.018-2.29
				c-0.006-0.041-0.026-0.164-0.339-0.196C153.286,406.842,153.251,406.84,153.217,406.84z"/>
			<path style="fill:#263238;" d="M150.644,408.793h-8.023c-0.3,0-0.56,0.209-0.625,0.502l-1.451,6.53
				c-0.15,0.677,0.364,1.318,1.057,1.307c2.894-0.049,7.076-0.219,10.713-0.219c4.253,0,7.926,0.232,12.914,0.232
				c3.016,0,3.853-3.049,2.59-3.325c-5.747-1.257-10.439-1.392-15.406-4.454C151.874,409.033,151.278,408.793,150.644,408.793z"/>
			<polygon style="fill:#CF6F64;" points="145.236,392.636 152.585,392.636 151.013,405.03 143.805,403.922 			"/>
			<g>
				<path style="fill:#407BFF;" d="M148.619,272.861c0,0,6.147,20.556,16.314,46.972c3.308,8.594,4.588,16.873,2.29,24.154
					c-7.132,22.603-13.296,56.594-13.296,56.594l-12.247-1.331c0,0-0.474-34.674,3.87-52.54c2.229-9.167,1.466-12.51-0.815-15.544
					c-31.202-41.503-22.826-58.306-22.826-58.306H148.619z"/>
				<path style="opacity:0.3;" d="M148.619,272.861c0,0,6.147,20.556,16.314,46.972c3.308,8.594,4.588,16.873,2.29,24.154
					c-7.132,22.603-13.296,56.594-13.296,56.594l-12.247-1.331c0,0-0.474-34.674,3.87-52.54c2.229-9.167,1.466-12.51-0.815-15.544
					c-31.202-41.503-22.826-58.306-22.826-58.306H148.619z"/>
			</g>
			<g>
				<polygon style="fill:#407BFF;" points="156.048,398.532 155.41,403.414 140.954,400.958 140.518,396.5 				"/>
				<polygon style="opacity:0.1;" points="156.048,398.532 155.41,403.414 140.954,400.958 140.518,396.5 				"/>
			</g>
		</g>
	</g>
</g>
<g id="Speech_Bubbles">
	<g>
		<g>
			<rect x="249.833" y="148.74" style="fill:#407BFF;" width="12.5" height="1"/>
			<rect x="249.833" y="148.74" style="opacity:0.2;" width="12.5" height="1"/>
		</g>
		<g>
			<path style="fill:#407BFF;" d="M225.84,107.48h67.733c3.744,0,6.807,3.063,6.807,6.807v25.146c0,3.744-3.063,6.807-6.807,6.807
				h-4.704l1.831,7.39c0,0-8.011-0.261-13.645-7.39H225.84c-3.744,0-6.807-3.063-6.807-6.807v-25.146
				C219.033,110.544,222.096,107.48,225.84,107.48z"/>
			<path style="opacity:0.2;" d="M225.84,107.48h67.733c3.744,0,6.807,3.063,6.807,6.807v25.146c0,3.744-3.063,6.807-6.807,6.807
				h-4.704l1.831,7.39c0,0-8.011-0.261-13.645-7.39H225.84c-3.744,0-6.807-3.063-6.807-6.807v-25.146
				C219.033,110.544,222.096,107.48,225.84,107.48z"/>
		</g>
		<g>
			<rect x="262.206" y="72.166" style="fill:#407BFF;" width="1" height="8.333"/>
			<rect x="262.206" y="72.166" style="opacity:0.1;fill:#FAFAFA;" width="1" height="8.333"/>
		</g>
		<g>
			<path style="fill:#407BFF;" d="M252.899,61.208h-67.733c-3.744,0-6.807,3.063-6.807,6.807v25.146
				c0,3.744,3.063,6.807,6.807,6.807h4.704l-1.831,7.39c0,0,8.011-0.261,13.644-7.39h51.215c3.744,0,6.807-3.063,6.807-6.807V68.015
				C259.706,64.272,256.643,61.208,252.899,61.208z"/>
			<path style="opacity:0.1;fill:#FAFAFA;" d="M252.899,61.208h-67.733c-3.744,0-6.807,3.063-6.807,6.807v25.146
				c0,3.744,3.063,6.807,6.807,6.807h4.704l-1.831,7.39c0,0,8.011-0.261,13.644-7.39h51.215c3.744,0,6.807-3.063,6.807-6.807V68.015
				C259.706,64.272,256.643,61.208,252.899,61.208z"/>
		</g>
	</g>
</g>
</svg>
