<?xml version="1.0" encoding="utf-8"?>
<!-- Generator: Adobe Illustrator 27.5.0, SVG Export Plug-In . SVG Version: 6.00 Build 0)  -->
<svg version="1.1" xmlns="http://www.w3.org/2000/svg" xmlns:xlink="http://www.w3.org/1999/xlink" x="0px" y="0px"
	 viewBox="0 0 500 500" style="enable-background:new 0 0 500 500;" xml:space="preserve">
<g id="Background_complete">
	<g>
		<g>
			<g>
				<g>
					<rect y="382.398" style="fill:#E6E6E6;" width="500" height="0.25"/>
					<rect x="427.325" y="391.055" style="fill:#E6E6E6;" width="18.527" height="0.25"/>
					<rect x="394.586" y="391.055" style="fill:#E6E6E6;" width="26.155" height="0.25"/>
					<rect x="330.03" y="391.305" style="fill:#E6E6E6;" width="19.359" height="0.25"/>
					<rect x="41.576" y="389.029" style="fill:#E6E6E6;" width="43.193" height="0.25"/>
					<rect x="26.339" y="389.029" style="fill:#E6E6E6;" width="6.333" height="0.25"/>
					<rect x="101.972" y="396.556" style="fill:#E6E6E6;" width="62.978" height="0.25"/>
					<path style="fill:#E6E6E6;" d="M237.014,337.8H43.915c-3.147,0-5.708-2.561-5.708-5.708V60.66c0-3.147,2.561-5.708,5.708-5.708
						h193.099c3.146,0,5.707,2.561,5.707,5.708v271.432C242.721,335.239,240.16,337.8,237.014,337.8z M43.915,55.203
						c-3.01,0-5.458,2.448-5.458,5.458v271.432c0,3.01,2.448,5.458,5.458,5.458h193.099c3.009,0,5.457-2.448,5.457-5.458V60.66
						c0-3.009-2.448-5.458-5.457-5.458H43.915z"/>
					<path style="fill:#E6E6E6;" d="M453.31,337.8H260.212c-3.146,0-5.707-2.561-5.707-5.708V60.66c0-3.147,2.561-5.708,5.707-5.708
						H453.31c3.148,0,5.708,2.561,5.708,5.708v271.432C459.019,335.239,456.458,337.8,453.31,337.8z M260.212,55.203
						c-3.009,0-5.457,2.448-5.457,5.458v271.432c0,3.01,2.448,5.458,5.457,5.458H453.31c3.01,0,5.458-2.448,5.458-5.458V60.66
						c0-3.009-2.448-5.458-5.458-5.458H260.212z"/>
				</g>
			</g>
		</g>
		<g>
			<g>
				<g>
					<g>
						<rect x="285.318" y="85.564" style="fill:#E0E0E0;" width="135.699" height="129.559"/>
						<rect x="288.334" y="85.564" style="fill:#F5F5F5;" width="135.699" height="129.559"/>
						
							<rect x="297.484" y="87.907" transform="matrix(-1.836970e-16 1 -1 -1.836970e-16 506.5271 -205.8399)" style="fill:#FFFFFF;" width="117.399" height="124.873"/>
						
							<rect x="358.781" y="149.204" transform="matrix(-1.836970e-16 1 -1 -1.836970e-16 567.8239 -267.1366)" style="fill:#E0E0E0;" width="117.399" height="2.28"/>
						<rect x="290.573" y="172.553" style="fill:#F5F5F5;" width="131.221" height="8.163"/>
					</g>
				</g>
			</g>
			<g>
				<g>
					<rect x="226.473" y="319.25" style="fill:#E6E6E6;" width="26.784" height="59.386"/>
					<rect x="231.616" y="378.636" style="fill:#E6E6E6;" width="117.917" height="3.763"/>
					
						<rect x="253.257" y="319.25" transform="matrix(-1 -1.224647e-16 1.224647e-16 -1 607.9333 697.8855)" style="fill:#FAFAFA;" width="101.418" height="59.386"/>
					
						<rect x="263.788" y="326.559" transform="matrix(-1 -1.224647e-16 1.224647e-16 -1 607.9333 672.5951)" style="fill:#E6E6E6;" width="80.357" height="19.476"/>
					
						<rect x="263.788" y="351.849" transform="matrix(-1 -1.224647e-16 1.224647e-16 -1 607.9333 723.175)" style="fill:#E6E6E6;" width="80.357" height="19.476"/>
					<path style="fill:#FAFAFA;" d="M316.011,337.633h-24.089c-0.649,0-1.18-0.531-1.18-1.18v-0.311c0-0.649,0.531-1.18,1.18-1.18
						h24.089c0.649,0,1.18,0.531,1.18,1.18v0.311C317.191,337.102,316.66,337.633,316.011,337.633z"/>
					<path style="fill:#FAFAFA;" d="M316.011,362.923h-24.089c-0.649,0-1.18-0.531-1.18-1.18v-0.311c0-0.649,0.531-1.18,1.18-1.18
						h24.089c0.649,0,1.18,0.531,1.18,1.18v0.311C317.191,362.392,316.66,362.923,316.011,362.923z"/>
				</g>
			</g>
			<g>
				<rect x="62.373" y="256.417" style="fill:#E6E6E6;" width="27.318" height="118.475"/>
				<rect x="67.618" y="374.892" style="fill:#E6E6E6;" width="134.719" height="7.507"/>
				
					<rect x="89.691" y="256.417" transform="matrix(-1 -1.224647e-16 1.224647e-16 -1 297.2729 631.3082)" style="fill:#FAFAFA;" width="117.891" height="118.475"/>
				
					<rect x="100.431" y="270.999" transform="matrix(-1 -1.224647e-16 1.224647e-16 -1 297.2729 580.8538)" style="fill:#E6E6E6;" width="96.411" height="38.855"/>
				
					<rect x="100.431" y="321.453" transform="matrix(-1 -1.224647e-16 1.224647e-16 -1 297.2729 681.761)" style="fill:#E6E6E6;" width="96.411" height="38.855"/>
				<path style="fill:#FAFAFA;" d="M159.46,293.091h-21.647c-1.465,0-2.664-1.199-2.664-2.664l0,0c0-1.465,1.199-2.664,2.664-2.664
					h21.647c1.465,0,2.664,1.199,2.664,2.664l0,0C162.124,291.892,160.925,293.091,159.46,293.091z"/>
				<path style="fill:#FAFAFA;" d="M159.46,343.545h-21.647c-1.465,0-2.664-1.199-2.664-2.664l0,0c0-1.465,1.199-2.664,2.664-2.664
					h21.647c1.465,0,2.664,1.199,2.664,2.664l0,0C162.124,342.346,160.925,343.545,159.46,343.545z"/>
			</g>
			<g>
				<path style="fill:#FAFAFA;" d="M314.99,309.826c0,0-20.122-34.688,7.794-62.3c0,0,7.286,4.749,7.174,11.133
					c-0.112,6.384-7.803,8-6.15,13.327c1.653,5.328,8.914,10.555,4.148,14.96s0.768,8.325,0.446,13.722
					C328.079,306.064,314.99,309.826,314.99,309.826z"/>
				<path style="fill:#E6E6E6;" d="M285.583,299.917c0,0,0.688,19.333,27.063,19.333c26.375,0,27.063-19.333,27.063-19.333H285.583z
					"/>
				<path style="fill:#E6E6E6;" d="M316.516,312.997c0,0,8.157-39.263-27.042-56.664c0,0-5.417,6.804-3.298,12.827
					c2.119,6.023,9.927,5.131,10.039,10.708c0.112,5.577-5.131,12.827,0.781,15.504c5.912,2.677,1.896,8.143,3.904,13.162
					C302.908,313.555,316.516,312.997,316.516,312.997z"/>
			</g>
			<g>
				<path style="fill:#F0F0F0;" d="M156.05,145.839c0,0,0.688,11.62,27.063,11.62s27.063-11.62,27.063-11.62H156.05z"/>
				<g>
					<g>
						<polygon style="fill:#F5F5F5;" points="84.53,165.918 80.196,194.807 84.53,194.807 111.093,165.918 						"/>
						<polygon style="fill:#E0E0E0;" points="80.196,165.918 80.196,194.807 106.759,165.918 						"/>
					</g>
					<g>
						<polygon style="fill:#F5F5F5;" points="188.696,165.918 184.363,194.807 188.696,194.807 215.259,165.918 						"/>
						<polygon style="fill:#E0E0E0;" points="184.363,165.918 184.363,194.807 210.926,165.918 						"/>
					</g>
					<g>
						
							<rect x="60.696" y="157.459" transform="matrix(-1 -1.224647e-16 1.224647e-16 -1 150.2817 323.9321)" style="fill:#E0E0E0;" width="28.889" height="9.015"/>
						<rect x="89.585" y="157.459" style="fill:#F5F5F5;" width="143.63" height="9.015"/>
					</g>
				</g>
				<g>
					<path style="fill:#E0E0E0;" d="M119.104,120.442c7.465,1.03,12.085-15.196-4.405-28.935
						C115.59,107.412,106.089,118.647,119.104,120.442z"/>
					<path style="fill:#E0E0E0;" d="M124.585,141.695c10.824-7.586,3.416-34.099-30.086-32.178
						C108.995,129.033,105.714,154.921,124.585,141.695z"/>
					<path style="fill:#E0E0E0;" d="M120.766,141.517c-7.196-7.749,3.046-27.248,28.931-20.127
						C135.085,134.225,133.311,155.027,120.766,141.517z"/>
					<path style="fill:#F5F5F5;" d="M129.993,130.217c2.488-3.03,5.429-6.439,4.715-10.04c-0.738-3.635-2.494-6.287-1.077-10.123
						c1.698-4.599,1.368-10.091-1.501-9.632c-2.864,0.462-6.088,3.824-6.001,8.283c0.052,4.316-2.768,5.694-5.421,7.992
						c-2.644,2.278-3.679,5.646-4.154,8.96c-0.837,5.226-7.601,4.235-9.4,8.777c-1.853,4.377,1.848,10.215,7.771,11.557
						c5.944,1.346,10.141,2.178,14.178-2.44C133.208,138.639,126.314,134.558,129.993,130.217z"/>
					<g>
						<polygon style="fill:#E6E6E6;" points="109.622,157.459 131.867,157.459 133.546,142.666 107.942,142.666 						"/>
						
							<rect x="106.285" y="142.045" transform="matrix(-1 -1.224647e-16 1.224647e-16 -1 241.4891 287.3553)" style="fill:#E6E6E6;" width="28.92" height="3.265"/>
					</g>
				</g>
			</g>
			<g>
				<rect x="157.705" y="240.482" style="fill:#F5F5F5;" width="24.163" height="15.935"/>
				
					<rect x="139.568" y="240.482" transform="matrix(-1 -1.224647e-16 1.224647e-16 -1 297.2729 496.8986)" style="fill:#E0E0E0;" width="18.136" height="15.935"/>
			</g>
			<g>
				<rect x="122.12" y="232" style="fill:#F5F5F5;" width="10.36" height="24.417"/>
				
					<rect x="114.344" y="232" transform="matrix(-1 -1.224647e-16 1.224647e-16 -1 236.4648 488.4167)" style="fill:#E0E0E0;" width="7.776" height="24.417"/>
			</g>
		</g>
	</g>
</g>
<g id="Background_simple" style="display:none;">
	<g style="display:inline;">
		<path style="fill:#407BFF;" d="M362.76,90.868c-48.235-41.889-63.603,21.283-86.249,49.301
			c-25.882,32.022-50.167,30.438-87.531,30.217c-45.874-0.271-101.433,7.479-113.864,61.771
			c-8.208,35.851,13.737,76.111,46.233,91.223c43.238,20.108,69.649-4.281,103.646-27.59c34.353-23.552,49.091-20.544,88.591-27.212
			C397.605,254.393,428.826,148.243,362.76,90.868z"/>
		<path style="opacity:0.8;fill:#FFFFFF;" d="M362.76,90.868c-48.235-41.889-63.603,21.283-86.249,49.301
			c-25.882,32.022-50.167,30.438-87.531,30.217c-45.874-0.271-101.433,7.479-113.864,61.771
			c-8.208,35.851,13.737,76.111,46.233,91.223c43.238,20.108,69.649-4.281,103.646-27.59c34.353-23.552,49.091-20.544,88.591-27.212
			C397.605,254.393,428.826,148.243,362.76,90.868z"/>
	</g>
</g>
<g id="Shadow">
	<g>
		<ellipse style="fill:#F5F5F5;" cx="250" cy="416.238" rx="193.889" ry="11.323"/>
	</g>
</g>
<g id="Plant_3">
	<g>
		<g>
			<path style="fill:#407BFF;" d="M157.179,231.825c1.203,0.521,2.418,0.87,3.622,1.011c2.575,0.303,5.097-0.262,7.325-1.7
				c3.434-2.216,5.515-6.106,5.179-9.681c-0.035-0.364-0.328-0.632-0.708-0.636c-8.652-0.112-14.057,4.961-16.265,7.576
				c-0.941-4-1.768-8.23-2.373-12.581c2.002,1.409,3.889,2.222,5.692,2.434c0.872,0.103,1.725,0.067,2.563-0.105
				c4.474-0.92,8.04-5.718,11.228-10.765c0.121-0.191,0.157-0.417,0.099-0.622c-0.058-0.205-0.204-0.369-0.402-0.451
				c-8.147-3.392-16.786,3.95-19.546,6.607c-0.415-3.647-0.66-7.356-0.675-11.063c1.871,0.578,3.664,0.976,5.35,1.175
				c4.388,0.516,8.08-0.249,10.721-2.281c3.131-2.409,4.581-6.393,4.195-11.521c-0.032-0.417-0.406-0.702-0.836-0.641
				c-9.279,1.342-16.414,7.285-19.383,10.151c0.021-0.66,0.041-1.319,0.078-1.977c0.01-0.176-0.049-0.328-0.134-0.462
				c-0.364-2.875-1.579-5.069-3.544-6.342c-2.322-1.508-5.585-1.713-9.693-0.611c-0.245,0.066-0.452,0.239-0.559,0.467
				c-0.106,0.228-0.099,0.484,0.019,0.688c0.171,0.295,3.758,6.354,10.085,7.098c0.658,0.077,1.347,0.093,2.064,0.043
				c-0.084,1.824-0.11,3.653-0.079,5.482c-2.527-2.188-8.085-5.825-16.181-4.632c-0.225,0.033-0.431,0.157-0.568,0.342
				c-0.136,0.184-0.19,0.411-0.147,0.622c1.26,6.191,4.313,10.355,8.165,11.138c0.171,0.035,0.349,0.064,0.536,0.086
				c1.989,0.234,4.863-0.355,8.338-3.669c0.242,4.277,0.748,8.516,1.433,12.621c-3.358-2.168-11.07-6.135-17.933-2.283
				c-0.381,0.214-0.542,0.673-0.363,1.034c2.787,5.64,5.833,8.583,9.312,8.992c0.029,0.003,0.058,0.006,0.088,0.01
				c2.898,0.305,6.021-1.128,9.509-4.362c0.788,4.085,1.725,8,2.724,11.643c-3.236-2.711-7.379-2.828-12.781-0.398
				c-0.243,0.109-0.424,0.326-0.484,0.578c-0.059,0.252,0.012,0.506,0.189,0.678c0.23,0.225,4.16,3.98,8.979,4.547
				c1.725,0.203,3.564-0.009,5.389-0.932c3.491,11.501,7.165,19.366,7.239,19.523c0.118,0.25,0.355,0.404,0.621,0.436
				c0.17,0.02,0.351-0.01,0.521-0.098c0.437-0.223,0.634-0.737,0.44-1.148C166.142,257.664,161.042,246.741,157.179,231.825z"/>
		</g>
		<g style="opacity:0.6;">
			<path d="M157.179,231.825c1.203,0.521,2.418,0.87,3.622,1.011c2.575,0.303,5.097-0.262,7.325-1.7
				c3.434-2.216,5.515-6.106,5.179-9.681c-0.035-0.364-0.328-0.632-0.708-0.636c-8.652-0.112-14.057,4.961-16.265,7.576
				c-0.941-4-1.768-8.23-2.373-12.581c2.002,1.409,3.889,2.222,5.692,2.434c0.872,0.103,1.725,0.067,2.563-0.105
				c4.474-0.92,8.04-5.718,11.228-10.765c0.121-0.191,0.157-0.417,0.099-0.622c-0.058-0.205-0.204-0.369-0.402-0.451
				c-8.147-3.392-16.786,3.95-19.546,6.607c-0.415-3.647-0.66-7.356-0.675-11.063c1.871,0.578,3.664,0.976,5.35,1.175
				c4.388,0.516,8.08-0.249,10.721-2.281c3.131-2.409,4.581-6.393,4.195-11.521c-0.032-0.417-0.406-0.702-0.836-0.641
				c-9.279,1.342-16.414,7.285-19.383,10.151c0.021-0.66,0.041-1.319,0.078-1.977c0.01-0.176-0.049-0.328-0.134-0.462
				c-0.364-2.875-1.579-5.069-3.544-6.342c-2.322-1.508-5.585-1.713-9.693-0.611c-0.245,0.066-0.452,0.239-0.559,0.467
				c-0.106,0.228-0.099,0.484,0.019,0.688c0.171,0.295,3.758,6.354,10.085,7.098c0.658,0.077,1.347,0.093,2.064,0.043
				c-0.084,1.824-0.11,3.653-0.079,5.482c-2.527-2.188-8.085-5.825-16.181-4.632c-0.225,0.033-0.431,0.157-0.568,0.342
				c-0.136,0.184-0.19,0.411-0.147,0.622c1.26,6.191,4.313,10.355,8.165,11.138c0.171,0.035,0.349,0.064,0.536,0.086
				c1.989,0.234,4.863-0.355,8.338-3.669c0.242,4.277,0.748,8.516,1.433,12.621c-3.358-2.168-11.07-6.135-17.933-2.283
				c-0.381,0.214-0.542,0.673-0.363,1.034c2.787,5.64,5.833,8.583,9.312,8.992c0.029,0.003,0.058,0.006,0.088,0.01
				c2.898,0.305,6.021-1.128,9.509-4.362c0.788,4.085,1.725,8,2.724,11.643c-3.236-2.711-7.379-2.828-12.781-0.398
				c-0.243,0.109-0.424,0.326-0.484,0.578c-0.059,0.252,0.012,0.506,0.189,0.678c0.23,0.225,4.16,3.98,8.979,4.547
				c1.725,0.203,3.564-0.009,5.389-0.932c3.491,11.501,7.165,19.366,7.239,19.523c0.118,0.25,0.355,0.404,0.621,0.436
				c0.17,0.02,0.351-0.01,0.521-0.098c0.437-0.223,0.634-0.737,0.44-1.148C166.142,257.664,161.042,246.741,157.179,231.825z"/>
		</g>
	</g>
</g>
<g id="Computer">
	<g>
		<g>
			<path style="fill:#407BFF;" d="M417.844,371.629H176.05c-3.955,0-7.191-3.236-7.191-7.191V215.524
				c0-3.955,3.236-7.191,7.191-7.191h241.794c3.955,0,7.191,3.236,7.191,7.191v148.915
				C425.035,368.394,421.799,371.629,417.844,371.629z"/>
			<path style="opacity:0.6;" d="M417.844,371.629H176.05c-3.955,0-7.191-3.236-7.191-7.191V215.524
				c0-3.955,3.236-7.191,7.191-7.191h241.794c3.955,0,7.191,3.236,7.191,7.191v148.915
				C425.035,368.394,421.799,371.629,417.844,371.629z"/>
		</g>
		<g>
			<g>
				<path style="fill:#407BFF;" d="M329.719,416.238c-19.941,0-39.882,0-59.823,0c5.86-22.1,2.353-45.906-10.521-68.006
					c19.94,0,39.882,0,59.823,0C332.072,370.332,335.579,394.138,329.719,416.238z"/>
				<path style="fill:#407BFF;" d="M326.596,416.238c-19.94,0-39.882,0-59.823,0c5.86-22.1,2.353-45.906-10.521-68.006
					c19.94,0,39.882,0,59.823,0C328.949,370.332,332.456,394.138,326.596,416.238z"/>
				<path style="fill:#407BFF;" d="M328.635,379.971c-20.158,0-40.315,0-60.473,0c-1.926-10.72-5.895-21.416-11.909-31.74
					c20.158,0,40.315,0,60.473,0C322.739,358.555,326.709,369.251,328.635,379.971z"/>
			</g>
			<g style="opacity:0.4;">
				<path d="M329.719,416.238c-19.941,0-39.882,0-59.823,0c5.86-22.1,2.353-45.906-10.521-68.006c19.94,0,39.882,0,59.823,0
					C332.072,370.332,335.579,394.138,329.719,416.238z"/>
				<path d="M326.596,416.238c-19.94,0-39.882,0-59.823,0c5.86-22.1,2.353-45.906-10.521-68.006c19.94,0,39.882,0,59.823,0
					C328.949,370.332,332.456,394.138,326.596,416.238z"/>
				<path d="M328.635,379.971c-20.158,0-40.315,0-60.473,0c-1.926-10.72-5.895-21.416-11.909-31.74c20.158,0,40.315,0,60.473,0
					C322.739,358.555,326.709,369.251,328.635,379.971z"/>
			</g>
			<path style="fill:#407BFF;" d="M326.596,416.238c-19.94,0-39.882,0-59.823,0c5.86-22.1,2.353-45.906-10.521-68.006
				c19.94,0,39.882,0,59.823,0C328.949,370.332,332.456,394.138,326.596,416.238z"/>
			<path style="opacity:0.2;" d="M326.596,416.238c-19.94,0-39.882,0-59.823,0c5.86-22.1,2.353-45.906-10.521-68.006
				c19.94,0,39.882,0,59.823,0C328.949,370.332,332.456,394.138,326.596,416.238z"/>
			<path style="opacity:0.2;" d="M327.946,379.971c-19.966,0-39.931,0-59.897,0c-1.908-10.72-5.839-21.416-11.796-31.74
				c19.966,0,39.931,0,59.897,0C322.106,358.555,326.038,369.251,327.946,379.971z"/>
		</g>
		<path style="fill:#407BFF;" d="M414.447,371.629H172.652c-3.955,0-7.191-3.236-7.191-7.191V215.524
			c0-3.955,3.236-7.191,7.191-7.191h241.794c3.955,0,7.191,3.236,7.191,7.191v148.915
			C421.637,368.394,418.402,371.629,414.447,371.629z"/>
		<path style="opacity:0.3;" d="M414.447,371.629H172.652c-3.955,0-7.191-3.236-7.191-7.191V215.524
			c0-3.955,3.236-7.191,7.191-7.191h241.794c3.955,0,7.191,3.236,7.191,7.191v148.915
			C421.637,368.394,418.402,371.629,414.447,371.629z"/>
		<g>
			<path style="fill:#407BFF;" d="M315.496,411.509h-68.293c-2.612,0-4.729,2.117-4.729,4.729l0,0h77.751l0,0
				C320.225,413.626,318.108,411.509,315.496,411.509z"/>
			<path style="opacity:0.3;" d="M315.496,411.509h-68.293c-2.612,0-4.729,2.117-4.729,4.729l0,0h77.751l0,0
				C320.225,413.626,318.108,411.509,315.496,411.509z"/>
		</g>
		<rect x="165.462" y="216.597" style="fill:#407BFF;" width="256.176" height="131.635"/>
		<rect x="165.375" y="216.597" style="opacity:0.84;fill:#FAFAFA;" width="256.176" height="131.635"/>
		<g>
			<path style="opacity:0.23;fill:#407BFF;" d="M211.821,333.412h172.598c1.561,0,2.838-1.277,2.838-2.838V229.613
				c0-1.561-1.277-2.838-2.838-2.838H211.821c-1.561,0-2.838,1.277-2.838,2.838v100.961
				C208.984,332.135,210.261,333.412,211.821,333.412z"/>
			<path style="opacity:0.67;fill:#FAFAFA;" d="M386.502,234.113v96.461c0,1.561-1.277,2.838-2.838,2.838H211.067
				c-1.561,0-2.838-1.277-2.838-2.838v-96.461H386.502z"/>
			<rect x="208.753" y="237.886" style="opacity:0.41;fill:#FFFFFF;" width="177.225" height="91.752"/>
			<path style="opacity:0.19;fill:#407BFF;" d="M349.792,301.228c-12.986,0-23.552-10.565-23.552-23.552
				s10.566-23.551,23.552-23.551s23.551,10.564,23.551,23.551S362.779,301.228,349.792,301.228z M349.792,254.376
				c-12.849,0-23.302,10.453-23.302,23.301c0,12.849,10.453,23.302,23.302,23.302c12.848,0,23.301-10.453,23.301-23.302
				C373.093,264.829,362.64,254.376,349.792,254.376z"/>
			<path style="opacity:0.19;fill:#407BFF;" d="M310.197,301.228c-12.986,0-23.552-10.565-23.552-23.552
				s10.566-23.551,23.552-23.551s23.551,10.564,23.551,23.551S323.183,301.228,310.197,301.228z M310.197,254.376
				c-12.849,0-23.302,10.453-23.302,23.301c0,12.849,10.453,23.302,23.302,23.302c12.848,0,23.301-10.453,23.301-23.302
				C333.497,264.829,323.044,254.376,310.197,254.376z"/>
			<path style="opacity:0.19;fill:#407BFF;" d="M373.218,314.388H234.181c-0.069,0-0.125-0.056-0.125-0.125v-3.878
				c0-0.069,0.056-0.125,0.125-0.125h139.037c0.069,0,0.125,0.056,0.125,0.125v3.878
				C373.343,314.333,373.287,314.388,373.218,314.388z M234.306,314.138h138.787v-3.628H234.306V314.138z"/>
			<path style="opacity:0.19;fill:#407BFF;" d="M380.969,321.15H213.762c-0.069,0-0.125-0.056-0.125-0.125V246.5
				c0-0.069,0.056-0.125,0.125-0.125h167.207c0.069,0,0.125,0.056,0.125,0.125v74.525
				C381.094,321.094,381.038,321.15,380.969,321.15z M213.887,320.9h166.957v-74.275H213.887V320.9z"/>
			<path style="fill:#FFFFFF;" d="M378.767,230.465c0,0.834,0.676,1.509,1.509,1.509c0.834,0,1.509-0.676,1.509-1.509
				c0-0.834-0.676-1.509-1.509-1.509C379.442,228.956,378.767,229.631,378.767,230.465z"/>
			<circle style="fill:#FFFFFF;" cx="374.928" cy="230.465" r="1.509"/>
			<circle style="fill:#FFFFFF;" cx="369.58" cy="230.465" r="1.509"/>
			<rect x="208.229" y="233.924" style="fill:#407BFF;" width="178.273" height="0.377"/>
		</g>
		<polygon style="opacity:0.47;fill:#FAFAFA;" points="233.925,216.597 210.401,348.232 233.694,348.232 257.217,216.597 		"/>
		<polygon style="opacity:0.47;fill:#FAFAFA;" points="262.9,216.597 239.377,348.232 251.023,348.232 274.546,216.597 		"/>
		<polygon style="opacity:0.4;fill:#FFFFFF;" points="393.057,216.597 369.533,348.232 375.356,348.232 398.88,216.597 		"/>
		<polygon style="opacity:0.4;fill:#FFFFFF;" points="382.807,216.597 359.283,348.232 365.106,348.232 388.63,216.597 		"/>
		<g>
			<path style="fill:#407BFF;" d="M331.765,411.509h-12.229c-2.612,0-4.729,2.117-4.729,4.729l0,0h21.687l0,0
				C336.494,413.626,334.377,411.509,331.765,411.509z"/>
			<path style="opacity:0.4;" d="M331.765,411.509h-12.229c-2.612,0-4.729,2.117-4.729,4.729l0,0h21.687l0,0
				C336.494,413.626,334.377,411.509,331.765,411.509z"/>
		</g>
		<g>
			<path style="fill:#407BFF;" d="M298.448,360.229c0,2.706-2.193,4.899-4.899,4.899c-2.706,0-4.899-2.193-4.899-4.899
				c0-2.706,2.193-4.899,4.899-4.899C296.255,355.33,298.448,357.523,298.448,360.229z"/>
			<g>
				<path style="opacity:0.5;" d="M298.448,360.229c0,2.706-2.193,4.899-4.899,4.899c-2.706,0-4.899-2.193-4.899-4.899
					c0-2.706,2.193-4.899,4.899-4.899C296.255,355.33,298.448,357.523,298.448,360.229z"/>
			</g>
		</g>
	</g>
</g>
<g id="Plant_2">
	<g>
		<path style="fill:#407BFF;" d="M251.682,399.345c-0.693-23.95-0.63-169.934,0.756-181.923l1.888-2.613
			c0,0-0.862,2.326-1.079,43.355s-0.487,135.085-0.256,141.182H251.682z"/>
		<path style="fill:#407BFF;" d="M262.915,310.548c8.013-13.323,16.757-22.792,23.093-27.964
			c6.336-5.172-10.278,28.617-16.774,41.208c-6.496,12.592-14.509,26.51-17.09,38.267
			C251.643,338.109,254.902,323.871,262.915,310.548z"/>
		<path style="fill:#407BFF;" d="M252.301,219.105c1.634-15.144-0.584-29.135,7.656-46.867
			c8.241-17.732,14.513-31.647,22.464-38.119c1.91-1.555-4.622,29.266-12.207,46.625c-5.352,12.251-7.075,21.043-12.756,29.256
			C256.128,211.924,252.301,219.105,252.301,219.105z"/>
		<path style="fill:#407BFF;" d="M252.259,299.879c1.664-18.686,3.165-36.684,13.889-63.276
			c2.614-6.482,26.797-51.766,33.108-56.666c3.097-2.405-7.719,27.687-18.273,53.047c-7.913,19.014-11.191,24.434-19.989,46.478
			C257.526,288.148,252.259,299.879,252.259,299.879z"/>
		<path style="fill:#407BFF;" d="M238.18,207.653c-8.998-12.197-17.702-20.436-24.089-24.738
			c-6.387-4.302,11.028,25.658,19.357,38.734c8.329,13.077,15.93,24.427,19.39,35.77C251.175,233.553,247.178,219.85,238.18,207.653
			z"/>
		<path style="fill:#407BFF;" d="M252.259,332.963c-1.699-12.98-5.201-28.27-10.202-39.592
			c-5.001-11.322-12.695-28.685-18.819-34.575c-1.471-1.415,6.403,32.356,11.457,41.337c5.053,8.98,8.764,17.443,11.945,22.533
			C247.698,324.36,252.259,332.963,252.259,332.963z"/>
		<path style="opacity:0.5;fill:#FFFFFF;" d="M251.682,399.345c-0.693-23.95-0.63-169.934,0.756-181.923l1.888-2.613
			c0,0-0.862,2.326-1.079,43.355s-0.487,135.085-0.256,141.182H251.682z"/>
		<path style="opacity:0.5;fill:#FFFFFF;" d="M262.915,310.548c8.013-13.323,16.757-22.792,23.093-27.964
			c6.336-5.172-10.278,28.617-16.774,41.208c-6.496,12.592-14.509,26.51-17.09,38.267
			C251.643,338.109,254.902,323.871,262.915,310.548z"/>
		<path style="opacity:0.5;fill:#FFFFFF;" d="M252.301,219.105c1.634-15.144-0.584-29.135,7.656-46.867
			c8.241-17.732,14.513-31.647,22.464-38.119c1.91-1.555-4.622,29.266-12.207,46.625c-5.352,12.251-7.075,21.043-12.756,29.256
			C256.128,211.924,252.301,219.105,252.301,219.105z"/>
		<path style="opacity:0.5;fill:#FFFFFF;" d="M252.259,299.879c1.664-18.686,3.165-36.684,13.889-63.276
			c2.614-6.482,26.797-51.766,33.108-56.666c3.097-2.405-7.719,27.687-18.273,53.047c-7.913,19.014-11.191,24.434-19.989,46.478
			C257.526,288.148,252.259,299.879,252.259,299.879z"/>
		<path style="opacity:0.5;fill:#FFFFFF;" d="M238.18,207.653c-8.998-12.197-17.702-20.436-24.089-24.738
			c-6.387-4.302,11.028,25.658,19.357,38.734c8.329,13.077,15.93,24.427,19.39,35.77C251.175,233.553,247.178,219.85,238.18,207.653
			z"/>
		<path style="opacity:0.5;fill:#FFFFFF;" d="M252.259,332.963c-1.699-12.98-5.201-28.27-10.202-39.592
			c-5.001-11.322-12.695-28.685-18.819-34.575c-1.471-1.415,6.403,32.356,11.457,41.337c5.053,8.98,8.764,17.443,11.945,22.533
			C247.698,324.36,252.259,332.963,252.259,332.963z"/>
	</g>
	<g>
		<polygon style="fill:#263238;" points="271.298,416.238 233.399,416.238 230.539,394.458 274.158,394.458 		"/>
		<polygon style="fill:#263238;" points="276.983,396.996 227.714,396.996 226.303,389.647 278.394,389.647 		"/>
	</g>
</g>
<g id="Ipad">
	<g>
		<g>
			<path style="fill:#407BFF;" d="M229.947,416.238H117.191c-3.842,0-6.985-3.143-6.985-6.985V238.551
				c0-3.842,3.143-6.985,6.985-6.985h112.756c3.842,0,6.985,3.143,6.985,6.985v170.702
				C236.932,413.095,233.789,416.238,229.947,416.238z"/>
			<path style="opacity:0.6;" d="M229.947,416.238H117.191c-3.842,0-6.985-3.143-6.985-6.985V238.551
				c0-3.842,3.143-6.985,6.985-6.985h112.756c3.842,0,6.985,3.143,6.985,6.985v170.702
				C236.932,413.095,233.789,416.238,229.947,416.238z"/>
		</g>
		<g>
			<path style="fill:#407BFF;" d="M226.599,416.238H113.843c-3.842,0-6.985-3.143-6.985-6.985V238.551
				c0-3.842,3.143-6.985,6.985-6.985h112.756c3.842,0,6.985,3.143,6.985,6.985v170.702
				C233.584,413.095,230.441,416.238,226.599,416.238z"/>
			<path style="opacity:0.3;" d="M226.599,416.238H113.843c-3.842,0-6.985-3.143-6.985-6.985V238.551
				c0-3.842,3.143-6.985,6.985-6.985h112.756c3.842,0,6.985,3.143,6.985,6.985v170.702
				C233.584,413.095,230.441,416.238,226.599,416.238z"/>
		</g>
		<rect x="106.857" y="239.594" style="fill:#FAFAFA;" width="126.726" height="160.304"/>
		<rect x="106.857" y="239.594" style="opacity:0.1;fill:#407BFF;" width="126.726" height="160.304"/>
		<polygon style="opacity:0.48;fill:#FAFAFA;" points="151.789,239.985 122.789,400.289 144.94,400.289 173.94,239.985 		"/>
		<polygon style="opacity:0.48;fill:#FAFAFA;" points="180.518,239.594 151.518,399.898 162.594,399.898 191.594,239.594 		"/>
		<g>
			<circle style="fill:#407BFF;" cx="170.221" cy="407.966" r="4.759"/>
			<circle style="opacity:0.5;" cx="170.221" cy="407.966" r="4.759"/>
		</g>
		<g>
			<path style="fill:#407BFF;" d="M171.32,235.26c0,0.607-0.492,1.1-1.1,1.1c-0.607,0-1.1-0.492-1.1-1.1c0-0.607,0.492-1.1,1.1-1.1
				C170.828,234.161,171.32,234.653,171.32,235.26z"/>
			<path style="opacity:0.5;" d="M171.32,235.26c0,0.607-0.492,1.1-1.1,1.1c-0.607,0-1.1-0.492-1.1-1.1c0-0.607,0.492-1.1,1.1-1.1
				C170.828,234.161,171.32,234.653,171.32,235.26z"/>
		</g>
	</g>
</g>
<g id="Character">
	<g>
		<g>
			<path style="fill:#407BFF;" d="M328.512,204.039l7.625-1.426c0.533-0.1,0.825-0.605,0.65-1.124l-6.007-17.772
				c-0.175-0.518-0.754-0.861-1.287-0.761l-7.625,1.426c-0.533,0.1-0.825,0.605-0.65,1.124l6.007,17.772
				C327.401,203.796,327.98,204.139,328.512,204.039z"/>
			<path style="opacity:0.6;" d="M328.512,204.039l7.625-1.426c0.533-0.1,0.825-0.605,0.65-1.124l-6.007-17.772
				c-0.175-0.518-0.754-0.861-1.287-0.761l-7.625,1.426c-0.533,0.1-0.825,0.605-0.65,1.124l6.007,17.772
				C327.401,203.796,327.98,204.139,328.512,204.039z"/>
		</g>
		<g>
			<path style="fill:#407BFF;" d="M329.449,203.864l7.625-1.426c0.533-0.1,0.825-0.605,0.65-1.124l-6.007-17.772
				c-0.175-0.519-0.754-0.861-1.287-0.762l-7.625,1.426c-0.533,0.1-0.825,0.605-0.65,1.124l6.007,17.772
				C328.338,203.621,328.917,203.964,329.449,203.864z"/>
			<path style="opacity:0.3;" d="M329.449,203.864l7.625-1.426c0.533-0.1,0.825-0.605,0.65-1.124l-6.007-17.772
				c-0.175-0.519-0.754-0.861-1.287-0.762l-7.625,1.426c-0.533,0.1-0.825,0.605-0.65,1.124l6.007,17.772
				C328.338,203.621,328.917,203.964,329.449,203.864z"/>
		</g>
		<polygon style="fill:#FAFAFA;" points="327.752,201.889 337.314,200.1 331.925,184.158 322.364,185.947 		"/>
		<polygon style="opacity:0.14;fill:#407BFF;" points="327.752,201.889 337.314,200.1 331.925,184.158 322.364,185.947 		"/>
	</g>
	<polygon style="fill:#E58A7B;" points="322.364,192.838 323.108,191.096 330.314,199.186 324.079,199.668 	"/>
	<g>
		<circle style="fill:#407BFF;" cx="199.347" cy="114.667" r="15.432"/>
		<path style="fill:#407BFF;" d="M199.347,132.958c-1.061,0-2.123-0.091-3.157-0.271l0.172-0.985
			c1.965,0.343,4.033,0.341,6.003-0.006l0.173,0.985C201.491,132.864,200.417,132.958,199.347,132.958z M190.22,130.522
			c-1.85-1.067-3.487-2.439-4.868-4.076l0.765-0.645c1.305,1.549,2.854,2.846,4.603,3.855L190.22,130.522z M208.503,130.504
			l-0.501-0.865c1.748-1.013,3.294-2.313,4.595-3.862l0.766,0.643C211.987,128.059,210.352,129.433,208.503,130.504z
			 M182.165,120.956c-0.732-2-1.105-4.104-1.109-6.251l1-0.002c0.004,2.031,0.356,4.019,1.049,5.909L182.165,120.956z
			 M216.541,120.921l-0.939-0.342c0.688-1.892,1.037-3.881,1.037-5.913l0.684-0.05l0.316,0.04
			C217.639,116.815,217.269,118.919,216.541,120.921z M183.081,108.787l-0.941-0.34c0.726-2.008,1.791-3.86,3.166-5.505l0.767,0.642
			C184.773,105.138,183.767,106.889,183.081,108.787z M215.578,108.689c-0.698-1.893-1.715-3.637-3.023-5.184l0.764-0.646
			c1.384,1.636,2.459,3.48,3.198,5.483L215.578,108.689z M190.661,99.712l-0.503-0.864c1.851-1.078,3.856-1.813,5.961-2.188
			l0.175,0.984C194.305,97.998,192.41,98.694,190.661,99.712z M207.943,99.66c-1.755-1.007-3.654-1.692-5.646-2.034l0.169-0.985
			c2.108,0.362,4.118,1.087,5.975,2.152L207.943,99.66z"/>
		<g>
			<rect x="316.395" y="192.691" style="fill:#407BFF;" width="3" height="1"/>
			<path style="fill:#407BFF;" d="M310.385,193.691h-6.01v-1h6.01V193.691z M298.297,192.967c-1.983-0.548-3.866-1.396-5.597-2.522
				l0.545-0.838c1.645,1.07,3.434,1.876,5.317,2.396L298.297,192.967z M288.125,186.354c-1.313-1.593-2.368-3.368-3.137-5.274
				l0.928-0.374c0.73,1.812,1.732,3.498,2.98,5.013L288.125,186.354z M283.595,175.102c-0.039-0.509-0.059-1.024-0.058-1.543
				c0-1.542,0.176-3.082,0.523-4.576l0.975,0.227c-0.33,1.419-0.497,2.883-0.497,4.35c-0.001,0.494,0.019,0.982,0.055,1.466
				L283.595,175.102z M287.211,163.799l-0.859-0.511c1.053-1.77,2.365-3.364,3.902-4.738l0.666,0.745
				C289.459,160.602,288.211,162.117,287.211,163.799z M295.808,156.114l-0.412-0.911c1.877-0.847,3.867-1.398,5.916-1.637
				l0.115,0.993C299.481,154.786,297.59,155.309,295.808,156.114z M320.049,154.429h-0.656v-1h0.656c1.75,0,3.483-0.236,5.153-0.701
				l0.268,0.963C323.713,154.18,321.89,154.429,320.049,154.429z M313.383,154.429h-6.01v-1h6.01V154.429z M331.059,151.153
				l-0.547-0.837c1.637-1.071,3.097-2.383,4.34-3.899l0.773,0.634C334.317,148.646,332.781,150.026,331.059,151.153z
				 M338.747,141.769l-0.928-0.371c0.725-1.814,1.165-3.726,1.309-5.683l0.998,0.073
				C339.975,137.848,339.511,139.86,338.747,141.769z M338.672,129.899c-0.447-1.902-1.185-3.721-2.191-5.405l0.859-0.513
				c1.059,1.772,1.834,3.687,2.305,5.689L338.672,129.899z M332.761,120.001c-1.466-1.304-3.113-2.37-4.896-3.17l0.408-0.912
				c1.877,0.841,3.609,1.963,5.151,3.334L332.761,120.001z M322.241,115.29c-0.722-0.082-1.455-0.124-2.18-0.124
				c-0.004,0-0.008,0-0.013,0h-3.756v-1h3.756c0.808-0.005,1.542,0.044,2.306,0.13L322.241,115.29z M310.283,115.166h-6.01v-1h6.01
				V115.166z M298.264,115.166h-6.011v-1h6.011V115.166z M286.243,115.166h-6.01v-1h6.01V115.166z M274.224,115.166h-6.011v-1h6.011
				V115.166z M262.203,115.166h-6.01v-1h6.01V115.166z M250.183,115.166h-6.01v-1h6.01V115.166z M238.163,115.166h-6.01v-1h6.01
				V115.166z"/>
			<rect x="223.058" y="114.166" style="fill:#407BFF;" width="3" height="1"/>
		</g>
		<g>
			<rect x="198.928" y="136.224" style="fill:#407BFF;" width="0.837" height="2.51"/>
			<path style="fill:#407BFF;" d="M94.983,302.279h-0.837v-5.025h0.837V302.279z M94.983,292.228h-0.837v-5.025h0.837V292.228z
				 M186.249,289.655c-0.981,0-1.959-0.105-2.907-0.314l0.18-0.816c1.571,0.344,3.242,0.386,4.834,0.12l0.138,0.824
				C187.757,289.593,187.002,289.655,186.249,289.655z M134.71,289.631l-0.052-0.836c1.633-0.102,3.207-0.511,4.678-1.216
				l0.361,0.754C138.129,289.085,136.451,289.522,134.71,289.631z M129.599,288.971c-1.648-0.548-3.159-1.398-4.49-2.529
				l0.542-0.637c1.249,1.061,2.665,1.858,4.212,2.371L129.599,288.971z M193.32,287.66l-0.439-0.713
				c1.392-0.855,2.59-1.955,3.564-3.269l0.672,0.498C196.08,285.576,194.803,286.748,193.32,287.66z M178.614,287.294
				c-1.437-0.985-2.655-2.219-3.62-3.667l0.696-0.465c0.906,1.359,2.048,2.518,3.396,3.442L178.614,287.294z M143.834,285.26
				l-0.617-0.564c1.106-1.21,1.955-2.597,2.524-4.124l0.784,0.293C145.918,282.492,145.013,283.971,143.834,285.26z
				 M121.886,282.419c-0.811-1.54-1.308-3.201-1.479-4.937l0.833-0.082c0.16,1.627,0.626,3.185,1.386,4.63L121.886,282.419z
				 M94.983,282.177h-0.837v-5.026h0.837V282.177z M199.337,279.525l-0.811-0.209c0.267-1.032,0.401-2.102,0.401-3.177v-1.708h0.837
				v1.708C199.765,277.285,199.621,278.425,199.337,279.525z M173.009,278.869c-0.184-0.894-0.276-1.813-0.276-2.73v-2.361h0.837
				v2.361c-0.001,0.861,0.087,1.723,0.258,2.562L173.009,278.869z M147.374,275.79h-0.837v-5.025h0.837V275.79z M121.179,272.418
				h-0.837v-5.026h0.837V272.418z M94.983,272.125h-0.837v-5.026h0.837V272.125z M199.765,269.405h-0.837v-5.025h0.837V269.405z
				 M173.57,268.753h-0.837v-3.542c0-0.478-0.027-0.96-0.08-1.434l0.831-0.094c0.057,0.504,0.086,1.018,0.086,1.527V268.753z
				 M147.374,265.738h-0.837v-0.527c0-1.563,0.264-3.094,0.785-4.551l0.788,0.281c-0.489,1.367-0.736,2.803-0.736,4.27V265.738z
				 M120.047,262.479c-0.35-1.594-0.997-3.086-1.923-4.436l0.689-0.473c0.988,1.439,1.678,3.029,2.051,4.729L120.047,262.479z
				 M95.342,262.201l-0.813-0.197c0.411-1.689,1.136-3.265,2.156-4.681l0.679,0.488C96.408,259.141,95.727,260.617,95.342,262.201z
				 M199.765,259.354h-0.837v-5.026h0.837V259.354z M171.203,259.166c-0.779-1.435-1.814-2.69-3.074-3.733l0.533-0.645
				c1.343,1.111,2.445,2.449,3.276,3.977L171.203,259.166z M150.578,256.786l-0.625-0.557c1.159-1.304,2.537-2.356,4.095-3.131
				l0.372,0.75C152.958,254.574,151.666,255.563,150.578,256.786z M114.681,254.649c-1.363-0.908-2.864-1.534-4.461-1.859
				l0.167-0.82c1.704,0.348,3.304,1.015,4.758,1.982L114.681,254.649z M100.883,254.495l-0.448-0.707
				c1.474-0.934,3.089-1.564,4.801-1.875l0.149,0.822C103.78,253.027,102.265,253.619,100.883,254.495z M163.884,253.119
				c-1.231-0.39-2.517-0.588-3.821-0.588c-0.368-0.002-0.658,0.013-0.982,0.037l-0.063-0.834c0.342-0.026,0.688-0.039,1.036-0.039
				c0.003,0,0.007,0,0.01,0c1.39,0,2.76,0.211,4.073,0.627L163.884,253.119z M199.765,249.302h-0.837v-5.026h0.837V249.302z
				 M199.765,239.251h-0.837v-5.026h0.837V239.251z M199.765,229.199h-0.837v-5.026h0.837V229.199z M199.765,219.147h-0.837v-5.026
				h0.837V219.147z M199.765,209.095h-0.837v-5.026h0.837V209.095z M199.765,199.044h-0.837v-5.026h0.837V199.044z M199.765,188.992
				h-0.837v-5.026h0.837V188.992z M199.765,178.94h-0.837v-5.026h0.837V178.94z M199.765,168.889h-0.837v-5.026h0.837V168.889z
				 M199.765,158.837h-0.837v-5.026h0.837V158.837z M199.765,148.785h-0.837v-5.026h0.837V148.785z"/>
			<rect x="94.146" y="307.41" style="fill:#407BFF;" width="0.837" height="2.51"/>
		</g>
		<path style="fill:#FFFFFF;" d="M197.463,122.188c-0.384,0-0.768-0.146-1.061-0.439l-5.24-5.24c-0.586-0.585-0.586-1.536,0-2.121
			c0.586-0.586,1.535-0.586,2.121,0l4.18,4.18l7.947-7.947c0.586-0.586,1.535-0.586,2.121,0c0.586,0.586,0.586,1.536,0,2.121
			l-9.007,9.007C198.231,122.042,197.847,122.188,197.463,122.188z"/>
		<g>
			<path style="fill:#E58A7B;" d="M385.5,152.11c-0.974,4.97-3.176,15.037,0.301,18.354c0,0-1.359,5.042-10.594,5.042
				c-10.155,0-4.853-5.041-4.853-5.041c5.543-1.324,5.4-5.436,4.434-9.298L385.5,152.11z"/>
			<g>
				<g>
					<path style="fill:#407BFF;" d="M365.276,172.17c0.025-0.751,1.146-1.519,2.803-2.125c0.895-0.327,1.764-1.576,3.109-1.801
						c1.024-0.171,2.294,0.685,3.57,0.593c1.071-0.076,2.19-1.12,3.434-1.128c1.095-0.007,2.237,1.014,3.461,1.068
						c0.758,0.033,1.521-0.917,2.156-0.857c0.776,0.073,1.332,1.154,1.941,1.258c0.81,0.139,1.718-0.667,2.273-0.488
						c0.881,0.283,1,1.466,1.389,1.785c1.118,0.917,2.016,1.775,0.984,1.936c-2.466,0.385-2.568-1.018-5.064-1.042
						c-2.494-0.024-2.504,0.976-4.998,0.952c-2.496-0.024-2.487-1.024-4.983-1.048c-2.498-0.024-2.464,0.69-4.949,0.949
						C367.848,172.489,367.742,172.567,365.276,172.17z"/>
				</g>
				<g style="opacity:0.6;">
					<path d="M365.276,172.17c0.025-0.751,1.146-1.519,2.803-2.125c0.895-0.327,1.764-1.576,3.109-1.801
						c1.024-0.171,2.294,0.685,3.57,0.593c1.071-0.076,2.19-1.12,3.434-1.128c1.095-0.007,2.237,1.014,3.461,1.068
						c0.758,0.033,1.521-0.917,2.156-0.857c0.776,0.073,1.332,1.154,1.941,1.258c0.81,0.139,1.718-0.667,2.273-0.488
						c0.881,0.283,1,1.466,1.389,1.785c1.118,0.917,2.016,1.775,0.984,1.936c-2.466,0.385-2.568-1.018-5.064-1.042
						c-2.494-0.024-2.504,0.976-4.998,0.952c-2.496-0.024-2.487-1.024-4.983-1.048c-2.498-0.024-2.464,0.69-4.949,0.949
						C367.848,172.489,367.742,172.567,365.276,172.17z"/>
				</g>
			</g>
			<path style="fill:#E58A7B;" d="M403.661,181.229c1.302,2.754,2.321,5.384,3.347,8.121c0.994,2.723,1.858,5.496,2.659,8.295
				c0.816,2.794,1.457,5.657,1.981,8.552c0.247,1.454,0.491,2.908,0.655,4.389c0.097,0.735,0.187,1.472,0.235,2.223l0.175,2.301
				c0.062,2.266-0.449,3.996-1.026,5.566c-0.593,1.562-1.297,2.96-2.043,4.297c-1.499,2.662-3.21,5.05-4.982,7.355
				c-3.605,4.57-7.433,8.763-11.657,12.698l-3.111-2.884c1.65-2.179,3.331-4.421,4.911-6.678c1.612-2.241,3.159-4.519,4.59-6.831
				c1.447-2.295,2.79-4.638,3.887-6.959c0.542-1.158,1.013-2.319,1.336-3.413c0.32-1.079,0.486-2.135,0.403-2.685l-0.248-1.891
				c-0.073-0.649-0.188-1.301-0.309-1.954c-0.211-1.303-0.5-2.607-0.79-3.91c-0.313-1.301-0.629-2.603-1.004-3.897
				c-0.343-1.301-0.718-2.597-1.116-3.89c-0.796-2.586-1.7-5.148-2.647-7.696c-0.923-2.531-1.99-5.12-3.007-7.483L403.661,181.229z"
				/>
			<g>
				<path style="fill:#407BFF;" d="M400.248,172.367c3.48,0.763,7.196,13.281,7.196,13.281l-13.704,8.743
					c0,0-4.298-10.038-2.635-14.362C392.837,175.527,396.135,171.466,400.248,172.367z"/>
				<path style="opacity:0.6;fill:#FFFFFF;" d="M400.248,172.367c3.48,0.763,7.196,13.281,7.196,13.281l-13.704,8.743
					c0,0-4.298-10.038-2.635-14.362C392.837,175.527,396.135,171.466,400.248,172.367z"/>
			</g>
			<path style="opacity:0.28;fill:#407BFF;" d="M398.39,176.63l-4.68,17.68c0.02,0.05,0.03,0.08,0.03,0.08l5.48-3.5L398.39,176.63z"
				/>
			<g>
				<path style="fill:#407BFF;" d="M356.195,172.61c0,0-3.99,1.406,4.003,50.555c13.499,0,27.451,0,34.019,0
					c-0.571-13.846-0.587-22.383,6.03-50.798c0,0-7.128-1.551-14.446-1.903c-5.725-0.276-10.415-0.459-15.448,0.001
					C363.719,171.07,356.195,172.61,356.195,172.61z"/>
				<path style="opacity:0.6;fill:#FFFFFF;" d="M356.195,172.61c0,0-3.99,1.406,4.003,50.555c13.499,0,27.451,0,34.019,0
					c-0.571-13.846-0.587-22.383,6.03-50.798c0,0-7.128-1.551-14.446-1.903c-5.725-0.276-10.415-0.459-15.448,0.001
					C363.719,171.07,356.195,172.61,356.195,172.61z"/>
			</g>
			<path style="fill:#E58A7B;" d="M391.502,241.024l-8.1-2.44l3.377,7.82c0,0,5.354,0.513,7.284-2.386L391.502,241.024z"/>
			<polygon style="fill:#E58A7B;" points="376.84,241.139 380.022,247.533 386.779,246.403 383.402,238.583 			"/>
			<polygon style="fill:#E58A7B;" points="412.931,411.729 404.555,411.729 401.862,392.331 410.238,392.331 			"/>
			<polygon style="fill:#E58A7B;" points="374.873,411.729 366.497,411.729 365.938,392.331 374.314,392.331 			"/>
			<g>
				<polygon style="fill:#CF6F64;" points="365.939,392.336 366.226,402.335 374.606,402.335 374.319,392.336 				"/>
				<polygon style="fill:#CF6F64;" points="410.241,392.336 401.861,392.336 403.253,402.335 411.633,402.335 				"/>
			</g>
			<g>
				<g>
					<path style="fill:#407BFF;" d="M369.182,223.165c0,0,4.861,57.491,9.905,89.892c4.074,26.17,22.143,87.342,22.143,87.342
						h11.422c0,0-9.415-59.077-11.482-84.961c-5.233-65.498,3.945-77.089-6.953-92.272H369.182z"/>
					<path style="opacity:0.6;" d="M369.182,223.165c0,0,4.861,57.491,9.905,89.892c4.074,26.17,22.143,87.342,22.143,87.342h11.422
						c0,0-9.415-59.077-11.482-84.961c-5.233-65.498,3.945-77.089-6.953-92.272H369.182z"/>
				</g>
				<path style="opacity:0.4;" d="M379.56,245.78c0,0-4.68,14.58-4.61,35.61c0.81,7.11,1.67,14.17,2.55,20.71
					C380.18,295.95,385.109,278.222,379.56,245.78z"/>
				<g>
					<path style="fill:#407BFF;" d="M360.198,223.165c0,0-6.607,64.524-6.058,90.068c0.571,26.569,10.307,87.165,10.307,87.165
						h11.326c0,0-1.792-59.044-0.791-85.138c1.091-28.447,10.127-92.096,10.127-92.096H360.198z"/>
					<path style="opacity:0.6;" d="M360.198,223.165c0,0-6.607,64.524-6.058,90.068c0.571,26.569,10.307,87.165,10.307,87.165
						h11.326c0,0-1.792-59.044-0.791-85.138c1.091-28.447,10.127-92.096,10.127-92.096H360.198z"/>
				</g>
			</g>
			<path style="fill:#407BFF;" d="M401.168,412.222c-0.645,0-1.239-0.11-1.597-0.437c-0.28-0.256-0.391-0.61-0.328-1.054
				c0.047-0.335,0.241-0.488,0.395-0.558c0.975-0.438,3.518,1.2,3.806,1.389c0.065,0.044,0.1,0.122,0.086,0.2
				s-0.072,0.141-0.149,0.159C402.788,412.061,401.941,412.222,401.168,412.222z M400.054,410.49c-0.099,0-0.184,0.014-0.252,0.045
				c-0.065,0.029-0.143,0.084-0.166,0.251c-0.044,0.311,0.022,0.542,0.203,0.706c0.424,0.387,1.52,0.438,2.979,0.147
				C401.92,411.095,400.697,410.49,400.054,410.49z"/>
			<path style="fill:#407BFF;" d="M403.334,411.927c-0.034,0-0.067-0.009-0.098-0.025c-0.799-0.454-2.321-2.261-2.133-3.205
				c0.036-0.181,0.171-0.493,0.667-0.554c0.318-0.04,0.599,0.052,0.84,0.266c0.911,0.807,0.922,3.218,0.922,3.32
				c0,0.07-0.037,0.136-0.099,0.172C403.403,411.918,403.368,411.927,403.334,411.927z M401.909,408.531
				c-0.03,0-0.06,0.002-0.091,0.006c-0.253,0.03-0.307,0.143-0.326,0.237c-0.114,0.574,0.835,1.933,1.631,2.568
				c-0.046-0.803-0.232-2.157-0.775-2.638C402.216,408.589,402.071,408.531,401.909,408.531z"/>
			<path style="fill:#407BFF;" d="M363.064,412.223c-0.833,0-1.601-0.129-2.031-0.516c-0.273-0.245-0.394-0.57-0.357-0.966
				c0.021-0.236,0.138-0.419,0.336-0.527c1.031-0.563,4.365,1.143,4.742,1.339c0.074,0.039,0.116,0.12,0.105,0.204
				c-0.012,0.083-0.075,0.15-0.157,0.166C364.989,412.065,363.986,412.223,363.064,412.223z M361.572,410.489
				c-0.153,0-0.279,0.022-0.37,0.072c-0.082,0.045-0.122,0.111-0.132,0.215c-0.023,0.268,0.051,0.476,0.229,0.636
				c0.508,0.458,1.889,0.537,3.742,0.228C363.893,411.089,362.366,410.489,361.572,410.489z"/>
			<path style="fill:#407BFF;" d="M365.662,411.927c-0.027,0-0.056-0.006-0.082-0.018c-0.998-0.451-2.973-2.258-2.817-3.206
				c0.036-0.226,0.195-0.505,0.744-0.56c0.406-0.042,0.776,0.074,1.099,0.343c1.053,0.877,1.247,3.132,1.254,3.227
				c0.006,0.069-0.025,0.138-0.083,0.178C365.742,411.915,365.702,411.927,365.662,411.927z M363.666,408.531
				c-0.039,0-0.078,0.002-0.119,0.006c-0.361,0.037-0.385,0.182-0.393,0.229c-0.093,0.569,1.247,1.99,2.265,2.607
				c-0.098-0.656-0.377-2.009-1.067-2.584C364.144,408.616,363.918,408.531,363.666,408.531z"/>
			<path style="fill:#263238;" d="M365.367,143.297c-0.127,0.018-0.26-0.026-0.352-0.129c-1.168-1.305-2.585-1.119-2.645-1.111
				c-0.217,0.031-0.418-0.119-0.449-0.335c-0.032-0.216,0.115-0.417,0.331-0.451c0.092-0.014,1.898-0.261,3.354,1.367
				c0.147,0.163,0.132,0.414-0.031,0.56C365.515,143.254,365.443,143.286,365.367,143.297z"/>
			<path style="fill:#DF5753;" d="M363.633,148.273c0,0-0.722,3.042-1.772,4.61c1.001,0.697,2.448,0.105,2.448,0.105
				L363.633,148.273z"/>
			<path style="fill:#263238;" d="M364.067,147.038c0.096,0.669-0.181,1.262-0.618,1.325s-0.869-0.429-0.965-1.097
				c-0.096-0.669,0.181-1.262,0.618-1.324C363.539,145.878,363.971,146.369,364.067,147.038z"/>
			<path style="fill:#263238;" d="M363.3,145.95l-1.673-0.232C361.627,145.717,362.632,146.854,363.3,145.95z"/>
			<path style="fill:#263238;" d="M404.035,410.759h9.41c0.342,0,0.62,0.238,0.669,0.572l1.072,7.445
				c0.111,0.772-0.553,1.503-1.343,1.49c-3.281-0.056-4.862-0.249-9-0.249c-2.546,0-6.266,0.264-9.781,0.264
				c-3.439,0-3.703-3.477-2.239-3.791c6.564-1.412,7.601-3.359,9.813-5.216C403.034,410.939,403.534,410.759,404.035,410.759z"/>
			<path style="fill:#263238;" d="M366.21,410.759h9.41c0.342,0,0.62,0.238,0.668,0.572l1.072,7.445
				c0.111,0.772-0.553,1.503-1.343,1.49c-3.281-0.056-4.862-0.249-9-0.249c-2.546,0-7.812,0.264-11.328,0.264
				c-3.439,0-3.703-3.477-2.239-3.791c6.564-1.412,9.148-3.359,11.359-5.216C365.208,410.939,365.709,410.759,366.21,410.759z"/>
			<path style="opacity:0.28;fill:#407BFF;" d="M355.21,180.55v0.2c0.1,5.59,0.87,14.99,3.19,30.82l4.74-18.55L355.21,180.55z"/>
			<path style="fill:#E58A7B;" d="M361.944,183.42c-0.947,4.754-2.031,9.404-3.264,14.071c-1.215,4.668-2.541,9.305-4.201,13.965
				l-0.647,1.75l-0.714,1.767c-0.09,0.226-0.3,0.742-0.566,1.211c-0.253,0.468-0.594,0.963-1.01,1.434
				c-0.82,0.952-2.14,1.781-3.416,2.054c-1.286,0.307-2.406,0.204-3.336,0.021c-0.94-0.19-1.717-0.485-2.43-0.803
				c-1.416-0.643-2.562-1.42-3.639-2.211c-2.141-1.587-3.913-3.374-5.626-5.172c-0.857-0.898-1.658-1.838-2.438-2.792
				c-0.786-0.957-1.532-1.9-2.27-2.943l3.174-2.814c3.477,2.976,7.163,6.038,10.851,8.143c0.907,0.519,1.83,0.943,2.618,1.202
				c0.771,0.291,1.462,0.208,1.189,0.158c-0.118-0.011-0.396,0.131-0.444,0.182c-0.035,0.015-0.034,0.018-0.02-0.046
				c0.016-0.054,0.024-0.095,0.138-0.426l0.53-1.579l0.494-1.632c1.299-4.387,2.413-8.958,3.51-13.522l3.132-13.758L361.944,183.42z
				"/>
			<path style="fill:#E58A7B;" d="M328.662,206.151l-4.583-6.483l6.235-0.482c0,0,3.518,4.069,2.271,7.32L328.662,206.151z"/>
			<polygon style="fill:#E58A7B;" points="328.282,198.002 329.596,197.187 330.207,194.121 331.219,195.382 331.967,202.593 			"/>
			<path style="fill:#E58A7B;" d="M386.224,141.516c0.674,8.286,1.136,11.778-2.407,16.589c-5.33,7.237-15.655,6.252-18.791-1.665
				c-2.823-7.126-3.451-19.479,4.12-23.901C376.604,128.182,385.549,133.23,386.224,141.516z"/>
			<path style="fill:#263238;" d="M367.714,131.608c-6.216,3.076-4.578,8.941-4.578,8.941s6.511-2.811,6.772,7.625
				c0.189,7.525-4.968,17.685-4.968,17.685s12.07,2.5,29.435-2.82C401.74,160.782,398.406,116.421,367.714,131.608z"/>
			<path style="fill:#263238;" d="M367.092,136.223c-1.178,2.839-0.876,8.461,3.775,7.855c4.651-0.606,3.292-5.288,3.292-5.288
				L367.092,136.223z"/>
			<path style="fill:#E58A7B;" d="M372.265,147.438c0.076,1.722-0.651,3.318-1.624,4.347c-1.464,1.548-3.288,0.503-3.796-1.451
				c-0.457-1.758-0.247-4.683,1.663-5.503C370.389,144.023,372.178,145.47,372.265,147.438z"/>
			<polygon style="fill:#407BFF;" points="413.504,400.773 400.446,400.773 399.056,396.222 413.953,396.57 			"/>
			<g>
				<path style="fill:#407BFF;" d="M390.1,225.021h0.923c0.184,0,0.324-0.095,0.311-0.21l-0.433-3.956
					c-0.013-0.116-0.173-0.211-0.357-0.211h-0.923c-0.184,0-0.324,0.095-0.311,0.211l0.433,3.956
					C389.755,224.926,389.916,225.021,390.1,225.021z"/>
				<path style="fill:#407BFF;" d="M367.736,225.021h0.923c0.184,0,0.324-0.095,0.311-0.21l-0.433-3.956
					c-0.013-0.116-0.173-0.211-0.357-0.211h-0.923c-0.184,0-0.324,0.095-0.311,0.211l0.433,3.956
					C367.392,224.926,367.552,225.021,367.736,225.021z"/>
			</g>
			<polygon style="fill:#407BFF;" points="376.639,400.773 363.581,400.773 362.639,396.875 377.125,396.222 			"/>
			<g>
				<path style="fill:#407BFF;" d="M394.727,221.169l1.534,3.045c0.119,0.236-0.161,0.477-0.554,0.477H360.03
					c-0.307,0-0.561-0.15-0.58-0.343l-0.307-3.045c-0.021-0.211,0.245-0.39,0.58-0.39h34.45
					C394.426,220.913,394.65,221.016,394.727,221.169z"/>
				<path style="opacity:0.1;" d="M394.727,221.169l1.534,3.045c0.119,0.236-0.161,0.477-0.554,0.477H360.03
					c-0.307,0-0.561-0.15-0.58-0.343l-0.307-3.045c-0.021-0.211,0.245-0.39,0.58-0.39h34.45
					C394.426,220.913,394.65,221.016,394.727,221.169z"/>
			</g>
			<g>
				<path style="opacity:0.6;" d="M390.1,225.021h0.923c0.184,0,0.324-0.095,0.311-0.21l-0.433-3.956
					c-0.013-0.116-0.173-0.211-0.357-0.211h-0.923c-0.184,0-0.324,0.095-0.311,0.211l0.433,3.956
					C389.755,224.926,389.916,225.021,390.1,225.021z"/>
				<path style="opacity:0.6;" d="M367.736,225.021h0.923c0.184,0,0.324-0.095,0.311-0.21l-0.433-3.956
					c-0.013-0.116-0.173-0.211-0.357-0.211h-0.923c-0.184,0-0.324,0.095-0.311,0.211l0.433,3.956
					C367.392,224.926,367.552,225.021,367.736,225.021z"/>
			</g>
			<g>
				<path style="fill:#407BFF;" d="M356.195,172.61c-3.452,0.879-5.867,15.086-5.867,15.086l13.318,9.057
					c0,0,5.317-16.919,2.661-20.715C363.541,172.085,361.233,171.327,356.195,172.61z"/>
				<path style="opacity:0.6;fill:#FFFFFF;" d="M356.195,172.61c-3.452,0.879-5.867,15.086-5.867,15.086l13.318,9.057
					c0,0,5.317-16.919,2.661-20.715C363.541,172.085,361.233,171.327,356.195,172.61z"/>
			</g>
		</g>
	</g>
</g>
<g id="Plant_1">
	<g>
		<g>
			<path style="fill:#407BFF;" d="M167.262,355.83c0.009-0.031-0.002-0.065,0.003-0.098c0.278-1.609,0.516-3.235,0.712-4.873
				c2.83,3.152,5.295,3.948,7.055,3.948c0.195,0,0.382-0.01,0.56-0.027c3.446-0.337,6.362-3.719,7.803-9.045
				c0.054-0.2,0.015-0.424-0.106-0.616s-0.314-0.333-0.529-0.387c-7.005-1.77-12.066,0.859-14.431,2.552
				c0.118-1.542,0.188-3.088,0.212-4.635c0.582,0.101,1.148,0.152,1.692,0.152c5.695,0,9.231-5.073,9.398-5.319
				c0.127-0.186,0.149-0.432,0.059-0.663c-0.089-0.231-0.28-0.419-0.513-0.508c-3.563-1.344-6.45-1.46-8.586-0.345
				c-1.319,0.69-2.307,1.852-2.934,3.397c-1.691-3.671-6.186-10.678-16.417-12.652c-0.218-0.045-0.434,0.01-0.588,0.143
				c-0.155,0.133-0.235,0.334-0.22,0.55c0.361,5.169,1.322,11.487,5.582,14.501c1.615,1.143,3.535,1.714,5.798,1.714
				c1.564,0,3.304-0.289,5.208-0.835c-0.074,3.706-0.429,7.412-0.997,11.04c-2.369-2.682-8.401-8.662-16.635-10.722
				c-0.411-0.106-0.792,0.134-0.846,0.535c-0.611,4.446,0.446,8.057,3.055,10.443c2.151,1.966,5.253,2.97,9.015,2.97
				c1.542,0,3.2-0.178,4.944-0.518c-0.564,3.044-1.258,6.017-2.033,8.872c-2.593-2.06-10.082-7.266-17.217-5.093
				c-0.197,0.059-0.348,0.203-0.416,0.396c-0.068,0.191-0.047,0.414,0.06,0.61c2.644,4.923,5.278,7.655,8.287,8.596
				c0.786,0.245,1.59,0.369,2.424,0.369c1.828,0,3.795-0.606,5.988-1.821c-1.127,3.771-2.364,7.293-3.582,10.438
				c-1.999-1.892-7.266-5.772-15.473-3.975c-0.362,0.08-0.571,0.423-0.49,0.802c0.662,3.067,3.208,5.989,6.335,7.271
				c0.867,0.356,2.1,0.711,3.568,0.711c1.373,0,2.952-0.326,4.624-1.238c-2.884,6.91-5.327,11.304-5.387,11.41
				c-0.192,0.342-0.046,0.809,0.324,1.045c0.142,0.089,0.295,0.133,0.442,0.133c0.239,0,0.459-0.114,0.578-0.325
				c0.067-0.12,3.119-5.616,6.449-14.01c0.047-0.073,0.079-0.151,0.094-0.237c0.369-0.936,0.741-1.905,1.113-2.909
				c2.406,2.785,5.332,4.319,8.276,4.319c0.317,0,0.634-0.017,0.95-0.053c3.398-0.384,6.236-2.845,6.899-5.985
				c0.072-0.343-0.12-0.72-0.459-0.896c-6.45-3.369-11.809-1.848-14.527-0.57c0.79-2.294,1.557-4.721,2.269-7.247
				c0.059-0.1,0.095-0.213,0.095-0.338l0-0.001c0.197-0.708,0.39-1.422,0.577-2.144c2.889,3.138,5.556,4.673,8.125,4.673
				c0.003,0,0.006,0,0.009,0c3.125-0.004,5.994-2.309,8.771-7.048c0.195-0.331,0.065-0.791-0.291-1.036
				c-5.807-3.988-12.753-1.272-15.855,0.329c0.433-1.873,0.823-3.783,1.16-5.72C167.247,355.849,167.258,355.842,167.262,355.83z"/>
			<path style="opacity:0.3;" d="M167.262,355.83c0.009-0.031-0.002-0.065,0.003-0.098c0.278-1.609,0.516-3.235,0.712-4.873
				c2.83,3.152,5.295,3.948,7.055,3.948c0.195,0,0.382-0.01,0.56-0.027c3.446-0.337,6.362-3.719,7.803-9.045
				c0.054-0.2,0.015-0.424-0.106-0.616s-0.314-0.333-0.529-0.387c-7.005-1.77-12.066,0.859-14.431,2.552
				c0.118-1.542,0.188-3.088,0.212-4.635c0.582,0.101,1.148,0.152,1.692,0.152c5.695,0,9.231-5.073,9.398-5.319
				c0.127-0.186,0.149-0.432,0.059-0.663c-0.089-0.231-0.28-0.419-0.513-0.508c-3.563-1.344-6.45-1.46-8.586-0.345
				c-1.319,0.69-2.307,1.852-2.934,3.397c-1.691-3.671-6.186-10.678-16.417-12.652c-0.218-0.045-0.434,0.01-0.588,0.143
				c-0.155,0.133-0.235,0.334-0.22,0.55c0.361,5.169,1.322,11.487,5.582,14.501c1.615,1.143,3.535,1.714,5.798,1.714
				c1.564,0,3.304-0.289,5.208-0.835c-0.074,3.706-0.429,7.412-0.997,11.04c-2.369-2.682-8.401-8.662-16.635-10.722
				c-0.411-0.106-0.792,0.134-0.846,0.535c-0.611,4.446,0.446,8.057,3.055,10.443c2.151,1.966,5.253,2.97,9.015,2.97
				c1.542,0,3.2-0.178,4.944-0.518c-0.564,3.044-1.258,6.017-2.033,8.872c-2.593-2.06-10.082-7.266-17.217-5.093
				c-0.197,0.059-0.348,0.203-0.416,0.396c-0.068,0.191-0.047,0.414,0.06,0.61c2.644,4.923,5.278,7.655,8.287,8.596
				c0.786,0.245,1.59,0.369,2.424,0.369c1.828,0,3.795-0.606,5.988-1.821c-1.127,3.771-2.364,7.293-3.582,10.438
				c-1.999-1.892-7.266-5.772-15.473-3.975c-0.362,0.08-0.571,0.423-0.49,0.802c0.662,3.067,3.208,5.989,6.335,7.271
				c0.867,0.356,2.1,0.711,3.568,0.711c1.373,0,2.952-0.326,4.624-1.238c-2.884,6.91-5.327,11.304-5.387,11.41
				c-0.192,0.342-0.046,0.809,0.324,1.045c0.142,0.089,0.295,0.133,0.442,0.133c0.239,0,0.459-0.114,0.578-0.325
				c0.067-0.12,3.119-5.616,6.449-14.01c0.047-0.073,0.079-0.151,0.094-0.237c0.369-0.936,0.741-1.905,1.113-2.909
				c2.406,2.785,5.332,4.319,8.276,4.319c0.317,0,0.634-0.017,0.95-0.053c3.398-0.384,6.236-2.845,6.899-5.985
				c0.072-0.343-0.12-0.72-0.459-0.896c-6.45-3.369-11.809-1.848-14.527-0.57c0.79-2.294,1.557-4.721,2.269-7.247
				c0.059-0.1,0.095-0.213,0.095-0.338l0-0.001c0.197-0.708,0.39-1.422,0.577-2.144c2.889,3.138,5.556,4.673,8.125,4.673
				c0.003,0,0.006,0,0.009,0c3.125-0.004,5.994-2.309,8.771-7.048c0.195-0.331,0.065-0.791-0.291-1.036
				c-5.807-3.988-12.753-1.272-15.855,0.329c0.433-1.873,0.823-3.783,1.16-5.72C167.247,355.849,167.258,355.842,167.262,355.83z"/>
		</g>
		<g>
			<path style="fill:#407BFF;" d="M130.951,376.104c1.125,0.338,2.243,0.521,3.33,0.521c2.324,0,4.51-0.767,6.342-2.28
				c2.824-2.332,4.27-6.013,3.597-9.16c-0.069-0.32-0.359-0.528-0.697-0.492c-7.713,0.806-11.994,5.888-13.685,8.446
				c-1.256-3.462-2.436-7.141-3.429-10.95c1.93,1.045,3.694,1.571,5.322,1.571c0.787,0,1.542-0.121,2.271-0.362
				c3.886-1.287,6.558-5.931,8.868-10.757c0.088-0.183,0.096-0.388,0.023-0.564c-0.073-0.176-0.22-0.307-0.405-0.359
				c-7.607-2.167-14.529,5.273-16.707,7.927c-0.751-3.203-1.357-6.479-1.759-9.776c1.726,0.318,3.364,0.486,4.885,0.486
				c3.96,0,7.167-1.068,9.304-3.152c2.535-2.472,3.409-6.17,2.528-10.694c-0.072-0.367-0.435-0.582-0.811-0.483
				c-8.119,2.166-13.848,8.203-16.191,11.065c-0.05-0.589-0.102-1.179-0.137-1.768c-0.009-0.158-0.078-0.287-0.168-0.397
				c-0.625-2.521-1.936-4.347-3.819-5.275c-2.225-1.1-5.151-0.94-8.692,0.471c-0.211,0.084-0.378,0.26-0.449,0.474
				c-0.071,0.214-0.038,0.441,0.089,0.611c0.183,0.245,4.01,5.263,9.72,5.263c0.594,0,1.209-0.059,1.841-0.178
				c0.116,1.632,0.285,3.263,0.503,4.888c-2.478-1.683-7.806-4.339-14.889-2.429c-0.196,0.053-0.367,0.185-0.469,0.364
				c-0.102,0.178-0.126,0.386-0.066,0.569c1.77,5.379,4.923,8.766,8.434,9.06c0.156,0.013,0.318,0.02,0.486,0.02
				c1.795,0,4.292-0.825,7.038-4.139c0.663,3.782,1.557,7.502,2.596,11.084c-3.216-1.578-10.496-4.303-16.202-0.155
				c-0.317,0.23-0.412,0.655-0.215,0.959c3.071,4.729,6.09,7.029,9.23,7.029c0.026,0,0.053-0.001,0.079-0.001
				c2.612-0.032,5.241-1.634,8.008-4.878c1.129,3.553,2.373,6.941,3.644,10.079c-3.164-2.075-6.865-1.745-11.418,0.984
				c-0.205,0.123-0.344,0.335-0.37,0.566c-0.026,0.23,0.063,0.449,0.239,0.584c0.229,0.176,4.12,3.108,8.469,3.108
				c1.556,0,3.172-0.382,4.699-1.394c4.312,9.872,8.405,16.488,8.488,16.62c0.132,0.21,0.358,0.323,0.598,0.323
				c0.154,0,0.312-0.046,0.454-0.142c0.366-0.244,0.487-0.723,0.271-1.068C141.633,398.167,135.95,388.978,130.951,376.104z"/>
			<path style="opacity:0.5;fill:#FFFFFF;" d="M130.951,376.104c1.125,0.338,2.243,0.521,3.33,0.521c2.324,0,4.51-0.767,6.342-2.28
				c2.824-2.332,4.27-6.013,3.597-9.16c-0.069-0.32-0.359-0.528-0.697-0.492c-7.713,0.806-11.994,5.888-13.685,8.446
				c-1.256-3.462-2.436-7.141-3.429-10.95c1.93,1.045,3.694,1.571,5.322,1.571c0.787,0,1.542-0.121,2.271-0.362
				c3.886-1.287,6.558-5.931,8.868-10.757c0.088-0.183,0.096-0.388,0.023-0.564c-0.073-0.176-0.22-0.307-0.405-0.359
				c-7.607-2.167-14.529,5.273-16.707,7.927c-0.751-3.203-1.357-6.479-1.759-9.776c1.726,0.318,3.364,0.486,4.885,0.486
				c3.96,0,7.167-1.068,9.304-3.152c2.535-2.472,3.409-6.17,2.528-10.694c-0.072-0.367-0.435-0.582-0.811-0.483
				c-8.119,2.166-13.848,8.203-16.191,11.065c-0.05-0.589-0.102-1.179-0.137-1.768c-0.009-0.158-0.078-0.287-0.168-0.397
				c-0.625-2.521-1.936-4.347-3.819-5.275c-2.225-1.1-5.151-0.94-8.692,0.471c-0.211,0.084-0.378,0.26-0.449,0.474
				c-0.071,0.214-0.038,0.441,0.089,0.611c0.183,0.245,4.01,5.263,9.72,5.263c0.594,0,1.209-0.059,1.841-0.178
				c0.116,1.632,0.285,3.263,0.503,4.888c-2.478-1.683-7.806-4.339-14.889-2.429c-0.196,0.053-0.367,0.185-0.469,0.364
				c-0.102,0.178-0.126,0.386-0.066,0.569c1.77,5.379,4.923,8.766,8.434,9.06c0.156,0.013,0.318,0.02,0.486,0.02
				c1.795,0,4.292-0.825,7.038-4.139c0.663,3.782,1.557,7.502,2.596,11.084c-3.216-1.578-10.496-4.303-16.202-0.155
				c-0.317,0.23-0.412,0.655-0.215,0.959c3.071,4.729,6.09,7.029,9.23,7.029c0.026,0,0.053-0.001,0.079-0.001
				c2.612-0.032,5.241-1.634,8.008-4.878c1.129,3.553,2.373,6.941,3.644,10.079c-3.164-2.075-6.865-1.745-11.418,0.984
				c-0.205,0.123-0.344,0.335-0.37,0.566c-0.026,0.23,0.063,0.449,0.239,0.584c0.229,0.176,4.12,3.108,8.469,3.108
				c1.556,0,3.172-0.382,4.699-1.394c4.312,9.872,8.405,16.488,8.488,16.62c0.132,0.21,0.358,0.323,0.598,0.323
				c0.154,0,0.312-0.046,0.454-0.142c0.366-0.244,0.487-0.723,0.271-1.068C141.633,398.167,135.95,388.978,130.951,376.104z"/>
		</g>
		<g>
			<polygon style="fill:#263238;" points="158.499,416.238 134.675,416.238 132.877,391.608 160.298,391.608 			"/>
			<rect x="131.101" y="389.947" style="fill:#263238;" width="30.972" height="4.171"/>
		</g>
	</g>
</g>
<g id="Mobile">
	<g>
		<g>
			<path style="fill:#407BFF;" d="M148.012,416.238H93.008c-3.842,0-6.985-3.143-6.985-6.985V277.552
				c0-3.842,3.143-6.985,6.985-6.985h55.005c3.842,0,6.985,3.143,6.985,6.985v131.701
				C154.998,413.095,151.854,416.238,148.012,416.238z"/>
			<path style="opacity:0.6;" d="M148.012,416.238H93.008c-3.842,0-6.985-3.143-6.985-6.985V277.552
				c0-3.842,3.143-6.985,6.985-6.985h55.005c3.842,0,6.985,3.143,6.985,6.985v131.701
				C154.998,413.095,151.854,416.238,148.012,416.238z"/>
		</g>
		<g>
			<path style="fill:#407BFF;" d="M144.664,416.238H89.659c-3.842,0-6.985-3.143-6.985-6.985V277.552
				c0-3.842,3.143-6.985,6.985-6.985h55.005c3.842,0,6.985,3.143,6.985,6.985v131.701
				C151.649,413.095,148.506,416.238,144.664,416.238z"/>
			<path style="opacity:0.3;" d="M144.664,416.238H89.659c-3.842,0-6.985-3.143-6.985-6.985V277.552
				c0-3.842,3.143-6.985,6.985-6.985h55.005c3.842,0,6.985,3.143,6.985,6.985v131.701
				C151.649,413.095,148.506,416.238,144.664,416.238z"/>
		</g>
		<rect x="82.674" y="278.595" style="fill:#FAFAFA;" width="68.975" height="125.184"/>
		<rect x="82.707" y="278.334" style="opacity:0.18;fill:#407BFF;" width="68.975" height="125.184"/>
		<polygon style="opacity:0.4;fill:#FFFFFF;" points="107.705,278.595 85.334,403.778 107.485,403.778 129.856,278.595 		"/>
		<polygon style="opacity:0.4;fill:#FFFFFF;" points="135.26,278.595 112.89,403.778 123.965,403.778 146.336,278.595 		"/>
		<g>
			<path style="fill:#407BFF;" d="M120.27,409.567c0,1.717-1.392,3.109-3.109,3.109c-1.717,0-3.109-1.392-3.109-3.109
				c0-1.717,1.392-3.109,3.109-3.109C118.879,406.458,120.27,407.85,120.27,409.567z"/>
			<path style="opacity:0.5;" d="M120.27,409.567c0,1.717-1.392,3.109-3.109,3.109c-1.717,0-3.109-1.392-3.109-3.109
				c0-1.717,1.392-3.109,3.109-3.109C118.879,406.458,120.27,407.85,120.27,409.567z"/>
		</g>
		<g>
			<circle style="fill:#407BFF;" cx="125.311" cy="274.261" r="1.099"/>
			<path style="fill:#407BFF;" d="M120.816,275.361h-11.804c-0.605,0-1.099-0.495-1.099-1.099l0,0c0-0.605,0.495-1.099,1.099-1.099
				h11.804c0.605,0,1.1,0.495,1.1,1.099l0,0C121.916,274.866,121.421,275.361,120.816,275.361z"/>
			<circle style="opacity:0.5;" cx="125.311" cy="274.261" r="1.099"/>
			<path style="opacity:0.5;" d="M120.816,275.361h-11.804c-0.605,0-1.099-0.495-1.099-1.099l0,0c0-0.605,0.495-1.099,1.099-1.099
				h11.804c0.605,0,1.1,0.495,1.1,1.099l0,0C121.916,274.866,121.421,275.361,120.816,275.361z"/>
		</g>
	</g>
</g>
</svg>
