<?xml version="1.0" encoding="utf-8"?>
<!-- Generator: Adobe Illustrator 27.5.0, SVG Export Plug-In . SVG Version: 6.00 Build 0)  -->
<svg version="1.1" xmlns="http://www.w3.org/2000/svg" xmlns:xlink="http://www.w3.org/1999/xlink" x="0px" y="0px"
	 viewBox="0 0 500 500" style="enable-background:new 0 0 500 500;" xml:space="preserve">
<g id="Background_Complete">
	<g>
		<rect y="382.398" style="fill:#EBEBEB;" width="500" height="0.25"/>
		<rect x="416.779" y="398.494" style="fill:#EBEBEB;" width="33.122" height="0.25"/>
		<rect x="260.335" y="395.361" style="fill:#EBEBEB;" width="12.887" height="0.25"/>
		<rect x="322.527" y="396.417" style="fill:#EBEBEB;" width="27.14" height="0.25"/>
		<rect x="359.667" y="389.208" style="fill:#EBEBEB;" width="56.111" height="0.25"/>
		<rect x="52.459" y="400.778" style="fill:#EBEBEB;" width="26.527" height="0.25"/>
		<rect x="87.889" y="400.778" style="fill:#EBEBEB;" width="23" height="0.25"/>
		<rect x="131" y="395.236" style="fill:#EBEBEB;" width="60.814" height="0.25"/>
		<path style="fill:#EBEBEB;" d="M237.014,337.8H43.915c-3.147,0-5.708-2.561-5.708-5.708V60.66c0-3.147,2.561-5.708,5.708-5.708
			h193.099c3.146,0,5.707,2.561,5.707,5.708v271.432C242.721,335.239,240.16,337.8,237.014,337.8z M43.915,55.203
			c-3.01,0-5.458,2.448-5.458,5.458v271.432c0,3.01,2.448,5.458,5.458,5.458h193.099c3.009,0,5.457-2.448,5.457-5.458V60.66
			c0-3.009-2.448-5.458-5.457-5.458H43.915z"/>
		<path style="fill:#EBEBEB;" d="M453.31,337.8H260.212c-3.147,0-5.707-2.561-5.707-5.708V60.66c0-3.147,2.561-5.708,5.707-5.708
			H453.31c3.148,0,5.708,2.561,5.708,5.708v271.432C459.019,335.239,456.458,337.8,453.31,337.8z M260.212,55.203
			c-3.009,0-5.457,2.448-5.457,5.458v271.432c0,3.01,2.448,5.458,5.457,5.458H453.31c3.01,0,5.458-2.448,5.458-5.458V60.66
			c0-3.009-2.448-5.458-5.458-5.458H260.212z"/>
	</g>
	<g>
		<g>
			
				<rect x="64.809" y="75" transform="matrix(-1 -1.224647e-16 1.224647e-16 -1 136.8392 457.3984)" style="fill:#E0E0E0;" width="7.222" height="307.398"/>
			
				<rect x="68.42" y="85.222" transform="matrix(-1 -1.224647e-16 1.224647e-16 -1 326.8784 467.6206)" style="fill:#F5F5F5;" width="190.039" height="297.176"/>
			<polygon style="fill:#E0E0E0;" points="89.444,266.447 169.945,266.447 169.945,140.562 90.667,140.083 			"/>
			
				<rect x="90.667" y="139.673" transform="matrix(-1 -1.224647e-16 1.224647e-16 -1 261.8345 405.2314)" style="fill:#FFFFFF;" width="80.501" height="125.885"/>
			<circle style="fill:#F5F5F5;" cx="130.917" cy="180.667" r="23.416"/>
			
				<ellipse transform="matrix(0.9239 -0.3827 0.3827 0.9239 -76.8687 67.3723)" style="fill:#F5F5F5;" cx="130.917" cy="226.909" rx="14.159" ry="14.159"/>
			
				<rect x="428.303" y="75" transform="matrix(-1 -1.224647e-16 1.224647e-16 -1 863.8276 457.3984)" style="fill:#E0E0E0;" width="7.222" height="307.398"/>
			<rect x="61.253" y="79" style="fill:#F0F0F0;" width="326.605" height="46.222"/>
			<rect x="220.747" y="91" style="fill:#FFFFFF;" width="153.667" height="22.222"/>
			
				<rect x="74.697" y="91" transform="matrix(-1 -1.224647e-16 1.224647e-16 -1 282.7777 204.2222)" style="fill:#FFFFFF;" width="133.383" height="22.222"/>
			
				<rect x="387.858" y="79" transform="matrix(-1 -1.224647e-16 1.224647e-16 -1 826.6053 204.2222)" style="fill:#E0E0E0;" width="50.889" height="46.222"/>
			<rect x="412.228" y="91" style="fill:#FFFFFF;" width="21.713" height="22.222"/>
			
				<rect x="395.414" y="91" transform="matrix(-1 -1.224647e-16 1.224647e-16 -1 805.8521 204.2222)" style="fill:#FFFFFF;" width="15.024" height="22.222"/>
		</g>
		<g>
			<g>
				<g>
					<path style="fill:#E0E0E0;" d="M228.646,235.158h153.119c5.483,0,9.969,4.486,9.969,9.969v137.272H218.677V245.127
						C218.677,239.644,223.163,235.158,228.646,235.158z"/>
					<path style="fill:#E0E0E0;" d="M208.57,235.158h153.12c5.483,0,9.969,4.486,9.969,9.969v137.272H198.601V245.127
						C198.601,239.644,203.087,235.158,208.57,235.158z"/>
					<path style="opacity:0.3;fill:#FFFFFF;" d="M368.335,382.398V245.127c0-3.665-2.981-6.646-6.646-6.646H208.57
						c-3.665,0-6.646,2.981-6.646,6.646v137.272H368.335z"/>
					<path style="opacity:0.9;fill:#FFFFFF;" d="M368.335,382.398V245.127c0-3.665-2.981-6.646-6.646-6.646H210.336
						c-3.664,0-6.646,2.981-6.646,6.646v137.272H368.335z"/>
				</g>
			</g>
			<g>
				<polygon style="fill:#E0E0E0;" points="336.65,235.158 324,235.158 320.228,215.533 332.878,215.533 				"/>
				<path style="fill:#E6E6E6;" d="M343.943,191.161h-17.013c-1.241,0-2.468,0.951-2.74,2.124l-7.312,31.5
					c-0.272,1.173,0.513,2.124,1.754,2.124h17.013c1.241,0,2.468-0.951,2.74-2.124l7.312-31.5
					C345.97,192.112,345.184,191.161,343.943,191.161z"/>
				<path style="fill:#FFFFFF;" d="M336.162,223.192h-16.321c-0.656,0-1.072-0.503-0.928-1.123l6.647-28.635
					c0.144-0.62,0.793-1.123,1.449-1.123h16.321c0.656,0,1.072,0.503,0.928,1.123l-6.647,28.635
					C337.467,222.689,336.819,223.192,336.162,223.192z"/>
			</g>
			<g>
				<polygon style="fill:#E0E0E0;" points="302.435,235.158 289.784,235.158 286.013,215.533 298.663,215.533 				"/>
				<path style="fill:#E6E6E6;" d="M313.236,187.386H291.82c-1.241,0-2.468,0.951-2.74,2.124l-8.188,35.276
					c-0.272,1.173,0.513,2.124,1.754,2.124h21.416c1.241,0,2.468-0.951,2.74-2.124l8.188-35.276
					C315.263,188.337,314.477,187.386,313.236,187.386z"/>
				<path style="fill:#FFFFFF;" d="M304.579,223.192h-20.724c-0.656,0-1.072-0.503-0.928-1.123l7.523-32.41
					c0.144-0.62,0.793-1.123,1.449-1.123h20.724c0.656,0,1.072,0.503,0.928,1.123l-7.523,32.41
					C305.884,222.689,305.235,223.192,304.579,223.192z"/>
			</g>
			<g>
				<polygon style="fill:#E0E0E0;" points="263.525,235.158 250.874,235.158 247.102,215.533 259.753,215.533 				"/>
				<path style="fill:#E6E6E6;" d="M277.25,182.667h-27.312c-1.241,0-2.468,0.951-2.74,2.124l-9.284,39.995
					c-0.272,1.173,0.513,2.124,1.754,2.124h27.312c1.241,0,2.468-0.951,2.74-2.124l9.284-39.995
					C279.276,183.617,278.491,182.667,277.25,182.667z"/>
				<path style="fill:#FFFFFF;" d="M267.497,223.192h-26.621c-0.656,0-1.072-0.503-0.928-1.123l8.619-37.129
					c0.144-0.62,0.793-1.123,1.449-1.123h26.621c0.656,0,1.072,0.503,0.928,1.123l-8.618,37.129
					C268.802,222.689,268.153,223.192,267.497,223.192z"/>
			</g>
			<rect x="213.304" y="266.333" style="fill:#F0F0F0;" width="123.347" height="10"/>
			<rect x="213.304" y="287.593" style="fill:#F0F0F0;" width="80.92" height="10"/>
			<rect x="213.304" y="308.853" style="fill:#F0F0F0;" width="105.581" height="10"/>
		</g>
	</g>
</g>
<g id="Background_Simple" style="display:none;">
	<g style="display:inline;">
		<path style="fill:#407BFF;" d="M358.141,297.515c94.415-60.069-53.692-83.816-78.707-111.524
			c-17.948-19.881,1.442-72.643-27.967-95.272c-30.907-23.78-86.1-14.09-117.639,7.466
			c-47.656,32.573-71.772,147.254-12.021,176.697c45.315,22.329,94.347-30.304,142.445-14.466
			C294.491,270.374,306.739,330.216,358.141,297.515z"/>
		<path style="opacity:0.9;fill:#FFFFFF;" d="M358.141,297.515c94.415-60.069-53.692-83.816-78.707-111.524
			c-17.948-19.881,1.442-72.643-27.967-95.272c-30.907-23.78-86.1-14.09-117.639,7.466
			c-47.656,32.573-71.772,147.254-12.021,176.697c45.315,22.329,94.347-30.304,142.445-14.466
			C294.491,270.374,306.739,330.216,358.141,297.515z"/>
	</g>
</g>
<g id="Shadow_1_">
	<ellipse id="_x3C_Path_x3E__336_" style="fill:#F5F5F5;" cx="250" cy="416.238" rx="193.889" ry="11.323"/>
</g>
<g id="Character_1">
	<g>
		<g>
			<g>
				<polygon style="fill:#CE7A63;" points="157.45,404.813 165.143,403.026 162.137,385.034 154.444,386.82 				"/>
				<path style="fill:#263238;" d="M165.346,402.044l-8.643,2.007c-0.314,0.073-0.503,0.346-0.452,0.656l1.118,6.914
					c0.116,0.717,0.933,1.232,1.654,1.051c2.997-0.751,4.395-1.261,8.196-2.144c2.338-0.543,12.335-2.61,15.564-3.36
					c3.158-0.733,2.419-3.912,0.986-3.882c-6.428,0.133-14.435,0.116-16.991-1.08C166.317,401.992,165.806,401.938,165.346,402.044z
					"/>
				<g>
					<polygon style="opacity:0.2;" points="154.443,386.826 162.14,385.038 163.685,394.313 155.989,396.101 					"/>
				</g>
				<g>
					<path style="fill:#407BFF;" d="M142.889,208.156c0,0,10.139,64.144,13.116,86.519c3.26,24.503,10.148,96.164,10.148,96.164
						l-13.942,3.843c0,0-13.209-69.443-18.652-93.263c-5.908-25.852-18.831-93.263-18.831-93.263H142.889z"/>
					<path style="opacity:0.5;fill:#FFFFFF;" d="M142.889,208.156c0,0,10.139,64.144,13.116,86.519
						c3.26,24.503,10.148,96.164,10.148,96.164l-13.942,3.843c0,0-13.209-69.443-18.652-93.263
						c-5.908-25.852-18.831-93.263-18.831-93.263H142.889z"/>
				</g>
				<path style="opacity:0.3;" d="M126.349,230.686c5.335,13.594,5.02,40.479,2.734,49.949c-3.215-15.55-6.895-34.151-9.725-48.617
					C120.44,228.309,123.109,222.417,126.349,230.686z"/>
				<polygon style="fill:#407BFF;" points="151.857,394.956 166.79,390.851 166.55,384.783 149.728,390.583 				"/>
				<path style="fill:#407BFF;" d="M168.374,402.747c-0.71,0.165-1.53,0.202-2.112,0.202c-0.072,0-0.138-0.042-0.167-0.108
					c-0.029-0.067-0.016-0.144,0.033-0.197c0.207-0.227,2.05-2.217,3.073-2.068c0.237,0.034,0.421,0.176,0.532,0.409
					c0.183,0.385,0.181,0.729-0.006,1.022C169.49,402.38,168.97,402.609,168.374,402.747z M166.697,402.575
					c1.438-0.046,2.442-0.324,2.721-0.764c0.116-0.182,0.11-0.4-0.017-0.668c-0.059-0.124-0.14-0.189-0.255-0.205
					C168.596,400.859,167.462,401.802,166.697,402.575z"/>
				<path style="fill:#407BFF;" d="M166.304,402.944c-0.028,0.007-0.058,0.007-0.087-0.001c-0.061-0.016-0.11-0.061-0.129-0.122
					c-0.029-0.092-0.699-2.257-0.091-3.183c0.164-0.25,0.401-0.392,0.704-0.426c0.364-0.04,0.638,0.099,0.772,0.39
					c0.366,0.795-0.42,2.662-1.084,3.296C166.365,402.921,166.336,402.937,166.304,402.944z M166.654,399.591
					c-0.149,0.035-0.264,0.116-0.35,0.247c-0.363,0.552-0.141,1.83,0.044,2.553c0.542-0.719,1.031-2.112,0.791-2.634
					c-0.045-0.1-0.133-0.21-0.401-0.181C166.71,399.58,166.681,399.585,166.654,399.591z"/>
			</g>
			<path style="fill:#CE7A63;" d="M145.679,148.102c0.76,2.093,1.571,4.384,2.418,6.556c0.851,2.195,1.706,4.383,2.611,6.535
				c1.786,4.308,3.747,8.519,5.958,12.254l0.853,1.333l0.327,0.513c0.072,0.105,0.139,0.213,0.2,0.284
				c0.267,0.32,0.305,0.411,0.455,0.528c0.147,0.115,0.564,0.194,1.225,0.089c0.655-0.095,1.482-0.375,2.333-0.78
				c3.486-1.652,7.211-4.846,10.504-7.903l4.764,3.508c-1.327,2.375-2.769,4.442-4.471,6.509c-1.702,2.043-3.604,3.998-6.043,5.736
				c-1.237,0.852-2.615,1.66-4.298,2.267c-1.666,0.594-3.745,0.963-5.999,0.6c-2.255-0.341-4.417-1.522-5.884-2.91
				c-0.386-0.344-0.718-0.699-1.041-1.058l-0.457-0.536l-0.317-0.41l-1.267-1.649c-3.158-4.419-5.567-8.97-7.714-13.584
				c-1.059-2.313-2.072-4.633-2.969-6.992c-0.903-2.381-1.775-4.67-2.55-7.207L145.679,148.102z"/>
			<path style="fill:#263238;" d="M140.344,140.008c-7.822-1.818-12.571,3.176-10.226,12.968c1.286,5.402,3.61,11.936,5.345,16.511
				c0.454,1.212,0.878,2.294,1.225,3.166l17.768-9.904C152.502,154.976,145.577,141.225,140.344,140.008z"/>
			<path style="opacity:0.3;" d="M140.679,149.286c-4.724-4.21,0.106,12.879,2.091,19.979l5.22-2.912
				C147.466,161.431,144.307,152.519,140.679,149.286z"/>
			<g>
				<polygon style="fill:#CE7A63;" points="99.118,408.192 106.998,408.192 108.165,389.944 100.285,389.944 				"/>
				<path style="fill:#263238;" d="M107.418,407.28l-8.853,0c-0.322,0-0.567,0.224-0.589,0.538l-0.484,7.004
					c-0.05,0.727,0.626,1.414,1.368,1.401c3.082-0.053,4.556-0.234,8.449-0.234c2.395,0,12.576,0.249,15.883,0.249
					c3.235,0,3.239-3.271,1.839-3.567c-6.275-1.328-14.05-3.16-16.261-4.907C108.373,407.449,107.89,407.28,107.418,407.28z"/>
				<g>
					<polygon style="opacity:0.2;" points="100.283,389.949 108.166,389.949 107.561,399.355 99.678,399.355 					"/>
				</g>
				<g>
					<path style="fill:#407BFF;" d="M127.504,208.156c0,0,0.273,59.817-1.183,82.377c-1.594,24.706-15.363,106.551-15.363,106.551
						H96.526c0,0,7.175-79.851,6.498-104.312c-0.734-26.548-2.279-84.617-2.279-84.617H127.504z"/>
					<path style="opacity:0.5;fill:#FFFFFF;" d="M127.504,208.156c0,0,0.273,59.817-1.183,82.377
						c-1.594,24.706-15.363,106.551-15.363,106.551H96.526c0,0,7.175-79.851,6.498-104.312c-0.734-26.548-2.279-84.617-2.279-84.617
						H127.504z"/>
				</g>
				<polygon style="fill:#407BFF;" points="95.944,397.085 111.54,397.085 112.449,391.608 95.229,392.464 				"/>
				<path style="fill:#407BFF;" d="M110.2,408.653c-0.728,0-1.532-0.15-2.098-0.282c-0.07-0.016-0.124-0.073-0.137-0.144
					c-0.013-0.072,0.017-0.144,0.077-0.185c0.253-0.175,2.496-1.7,3.455-1.322c0.222,0.087,0.369,0.267,0.424,0.52
					c0.09,0.417,0.01,0.753-0.238,0.996C111.367,408.547,110.811,408.653,110.2,408.653z M108.61,408.105
					c1.407,0.281,2.446,0.237,2.816-0.129c0.154-0.152,0.198-0.366,0.135-0.656c-0.029-0.134-0.093-0.216-0.201-0.258
					C110.845,406.859,109.528,407.523,108.61,408.105z"/>
				<path style="fill:#407BFF;" d="M108.144,408.375c-0.029,0-0.058-0.007-0.084-0.02c-0.056-0.029-0.093-0.085-0.097-0.148
					c-0.007-0.096-0.166-2.362,0.635-3.129c0.216-0.206,0.479-0.292,0.781-0.256c0.362,0.044,0.598,0.241,0.661,0.556
					c0.175,0.859-1.013,2.504-1.801,2.972C108.209,408.367,108.177,408.375,108.144,408.375z M109.246,405.182
					c-0.153,0-0.283,0.053-0.396,0.161c-0.479,0.457-0.553,1.755-0.537,2.503c0.69-0.579,1.482-1.828,1.367-2.392
					c-0.021-0.108-0.081-0.235-0.348-0.267C109.302,405.183,109.274,405.182,109.246,405.182z"/>
			</g>
			<path style="fill:#263238;" d="M142.889,208.156h-42.144c-0.268-3.763,0.7-16.007,0.175-31.6
				c-0.353-10.47-1.385-22.449-3.917-34.374c-0.185-0.851-0.369-1.69-0.564-2.54c0,0,2.14-0.436,5.205-0.882
				c2.543-0.372,5.735-0.755,8.861-0.903c5.38-0.255,13.173-0.425,17.91,0c2.751,0.255,5.437,0.712,7.58,1.127
				c2.738,0.553,4.35,1.026,4.35,1.026S150.541,163.844,142.889,208.156z"/>
			<path style="fill:#407BFF;" d="M127.388,163.333c-0.1,0-0.201-0.03-0.289-0.093c-0.174-0.123-17.455-12.489-23.586-24.569
				c-0.125-0.246-0.027-0.548,0.22-0.673c0.245-0.124,0.547-0.027,0.672,0.22c6.02,11.86,23.102,24.086,23.274,24.208
				c0.225,0.159,0.278,0.472,0.118,0.697C127.699,163.26,127.544,163.333,127.388,163.333z"/>
			<path style="fill:#407BFF;" d="M127.388,163.333c-0.098,0-0.196-0.028-0.283-0.089c-0.227-0.156-0.285-0.468-0.128-0.695
				c0.067-0.098,6.709-9.942,4.895-24.136c-0.035-0.274,0.159-0.524,0.433-0.56c0.275-0.035,0.525,0.159,0.56,0.433
				c1.865,14.589-4.995,24.73-5.064,24.831C127.703,163.258,127.547,163.333,127.388,163.333z"/>
			<g>
				<polygon style="fill:#407BFF;" points="134.372,178.294 122.696,178.294 121.477,161.509 133.154,161.509 				"/>
				<polygon style="fill:#FFFFFF;" points="133.845,177.363 123.502,177.363 122.394,162.107 132.737,162.107 				"/>
				<polygon style="fill:#407BFF;" points="128.048,169.815 123.715,169.815 123.314,164.294 127.647,164.294 				"/>
				<polygon style="fill:#407BFF;" points="132.288,172.107 123.881,172.107 123.819,171.252 132.226,171.252 				"/>
				<polygon style="fill:#407BFF;" points="132.429,174.045 124.022,174.045 123.96,173.191 132.367,173.191 				"/>
				<polygon style="fill:#407BFF;" points="131.788,175.983 124.163,175.983 124.101,175.129 131.726,175.129 				"/>
			</g>
			<path style="opacity:0.3;" d="M100.92,176.559c-0.353-10.47-1.385-22.449-3.917-34.374c2.819-0.244,7.631,0.032,8.393,4.581
				C106.218,151.655,105.044,163.156,100.92,176.559z"/>
			<path style="fill:#CE7A63;" d="M104.684,149.635l-4.224,14.537l-2.118,7.264l-2.036,7.25l-0.124,0.452l-0.062,0.226l-0.031,0.111
				l0.007-0.04c0.002-0.111,0-0.216-0.022-0.293c-0.044-0.16-0.087-0.144-0.059,0.004c0.04,0.311,0.441,1.036,1.025,1.742
				c1.191,1.446,2.936,3.009,4.8,4.423c3.732,2.889,8.051,5.557,12.256,8.109l-2.235,5.478c-2.639-0.71-5.093-1.569-7.589-2.552
				c-2.481-0.986-4.924-2.112-7.357-3.434c-2.409-1.378-4.836-2.838-7.185-5.091c-1.165-1.146-2.375-2.461-3.361-4.499
				c-0.473-1.023-0.88-2.256-0.971-3.697c-0.044-0.715-0.017-1.463,0.114-2.201l0.203-1.122c0.923-5.151,2.059-10.212,3.308-15.235
				c1.261-5.029,2.644-9.968,4.243-14.943L104.684,149.635z"/>
			<path style="fill:#263238;" d="M96.439,139.641c-5.251,1.218-11.138,15.052-13.215,22.826c-0.348,1.319-0.624,2.461-0.835,3.332
				c-0.275,1.153-0.426,1.837-0.426,1.837l17.617,5.017c0.36-0.872,0.801-1.954,1.274-3.166c1.808-4.574,4.234-11.109,5.606-16.511
				C108.96,143.184,104.29,137.823,96.439,139.641z"/>
			<path style="fill:#CE7A63;" d="M127.564,137.792c-5.198-1.233-6.087-4.453-5.709-7.992c0.082-0.861,0.237-1.754,0.436-2.636
				l-6.484-5.42l-4.762-3.976c1.283,5.772,2.699,16.284-1.233,20.131c0,0,4.576,7.574,14.243,7.102
				C128.541,140.111,127.564,137.792,127.564,137.792z"/>
			<path style="fill:#FFFFFF;" d="M106.639,137.833c0,0,1.611-0.389,3.389-0.583c1.889,3.222,9.974,7.771,12.752,7.771
				c0,0-2.747,1.2-3.442,5.534C115.116,148.194,107,142.123,106.639,137.833z"/>
			<path style="fill:#FFFFFF;" d="M129.517,137.861c0,0-0.819-0.319-2.434-0.264c0.056,3.153-0.938,4.612-2.465,6.77
				c0,0,3.354,0.821,4.048,5.154C131.75,146.208,130.697,140.229,129.517,137.861z"/>
			<path style="opacity:0.2;" d="M122.291,127.163c-0.198,0.882-0.354,1.776-0.436,2.636c-2.43-0.489-6.091-2.657-6.424-5.403
				c-0.113-0.936,0.307-2.006,0.376-2.654L122.291,127.163z"/>
			<path style="fill:#CE7A63;" d="M108.034,108.98c1.241,7.75,1.575,12.339,5.893,16.057c6.495,5.593,15.742,1.352,16.834-6.549
				c0.983-7.112-1.211-18.591-9.125-21.152C113.84,94.812,106.792,101.229,108.034,108.98z"/>
			<path style="fill:#263238;" d="M110.787,117.57c2.722-4.876,4.336-10.708,1.491-13.292c3.833,0.055,8.36-1.445,10.013-2.889
				c3.042,1.389,6.368,1.203,7.748-1.945c1.165-2.659-0.522-6.222-5.09-5.944c-7.283-5.778-20.004-4.556-15.983,0.389
				c-10.466-0.778-11.633,5.055-7.644,7C95,104.67,96.343,114.335,110.787,117.57z"/>
			<path style="fill:#CE7A63;" d="M105.837,116.62c1.275,1.714,3.101,2.778,4.687,3.13c2.385,0.53,3.05-1.685,1.945-3.909
				c-0.995-2.002-3.435-4.689-5.616-4.222C104.703,112.08,104.379,114.66,105.837,116.62z"/>
			<path style="fill:#263238;" d="M120.038,110.324c0.062,0.634,0.448,1.124,0.862,1.095c0.414-0.029,0.699-0.567,0.637-1.2
				c-0.062-0.634-0.448-1.124-0.862-1.095C120.261,109.152,119.976,109.69,120.038,110.324z"/>
			<path style="fill:#263238;" d="M127.193,109.819c0.062,0.634,0.448,1.124,0.862,1.095c0.414-0.029,0.699-0.567,0.637-1.201
				c-0.062-0.634-0.448-1.124-0.862-1.095C127.416,108.648,127.131,109.185,127.193,109.819z"/>
			<path style="fill:#BA4D3C;" d="M124.949,110.295c0,0,1.798,3.555,3.556,5.207c-1.017,1.126-2.968,0.782-2.968,0.782
				L124.949,110.295z"/>
			<path style="fill:#263238;" d="M123.119,118.173c-2.495-0.121-3.804-1.751-3.863-1.827c-0.063-0.081-0.049-0.198,0.031-0.262
				c0.081-0.065,0.198-0.051,0.261,0.03c0.015,0.019,1.504,1.877,4.286,1.678c0.104-0.008,0.191,0.07,0.197,0.174
				c0.007,0.103-0.071,0.192-0.174,0.199C123.601,118.183,123.354,118.185,123.119,118.173z"/>
			<path style="fill:#263238;" d="M117.598,108.167c-0.061-0.003-0.122-0.021-0.177-0.056c-0.174-0.109-0.227-0.34-0.117-0.515
				c1.084-1.738,2.813-1.758,2.885-1.757c0.194-0.019,0.371,0.166,0.37,0.374c-0.001,0.207-0.169,0.374-0.374,0.374
				c-0.072,0.001-1.399,0.038-2.25,1.404C117.86,108.11,117.729,108.173,117.598,108.167z"/>
			<path style="fill:#263238;" d="M130.027,107.139c-0.119-0.006-0.233-0.069-0.299-0.178c-0.876-1.45-2.258-1.542-2.272-1.543
				c-0.206-0.011-0.362-0.187-0.349-0.394c0.012-0.206,0.188-0.363,0.392-0.353c0.001,0,0.002,0,0.002,0
				c0.073,0.004,1.789,0.117,2.864,1.899c0.107,0.176,0.05,0.407-0.126,0.514C130.173,107.125,130.099,107.142,130.027,107.139z"/>
			<path style="fill:#CE7A63;" d="M112.101,193.055l9.427-1.029l-4.935,8.634c0,0-7.14-0.72-6.439-4.354L112.101,193.055z"/>
			<path style="fill:#CE7A63;" d="M128.356,194.359l-4.669,7.462c-0.005,0.007-0.013,0.011-0.021,0.01l-7.073-1.17l4.935-8.634
				L128.356,194.359z"/>
			<path style="fill:#CE7A63;" d="M175.241,172.194l7.661-1.63l-5.615-6.697c0,0-7.005,2.864-5.031,6.006L175.241,172.194z"/>
			<polygon style="fill:#CE7A63;" points="187.252,166.603 182.226,159.652 177.288,163.867 182.902,170.564 			"/>
		</g>
	</g>
</g>
<g id="Exposition">
	<g>
		<g>
			<path style="fill:#407BFF;" d="M241.507,232.498H128.162c-6.842,0-12.44,5.598-12.44,12.44v171.3h138.225v-171.3
				C253.947,238.096,248.349,232.498,241.507,232.498z"/>
			<rect x="281.5" y="244.939" style="fill:#407BFF;" width="1" height="22.95"/>
			<rect x="281.5" y="273.667" style="fill:#407BFF;" width="1" height="6.889"/>
			<path style="fill:#407BFF;" d="M266.56,232.498H153.216c-6.842,0-12.44,5.598-12.44,12.44v171.3H279v-171.3
				C279,238.096,273.402,232.498,266.56,232.498z"/>
			<path style="opacity:0.3;fill:#FFFFFF;" d="M144.922,416.238v-171.3c0-4.573,3.721-8.294,8.293-8.294H266.56
				c4.573,0,8.293,3.721,8.293,8.294v171.3H144.922z"/>
			<path style="opacity:0.9;fill:#FFFFFF;" d="M144.922,416.238v-171.3c0-4.573,3.721-8.294,8.293-8.294h111.14
				c4.573,0,8.294,3.721,8.294,8.294v171.3H144.922z"/>
		</g>
		<g>
			<path style="fill:#407BFF;" d="M196.418,206.661h-40.653c-4.046,0-7.357,3.31-7.357,7.357v11.124c0,4.046,3.31,7.356,7.357,7.356
				h40.653c4.046,0,7.357-3.31,7.357-7.356v-11.124C203.774,209.971,200.464,206.661,196.418,206.661z"/>
			<path style="fill:#263238;" d="M195.346,208.122h-27.721c-3.548,0-6.451,2.903-6.451,6.451v10.013
				c0,3.548,2.903,6.451,6.451,6.451h27.721c3.548,0,6.451-2.903,6.451-6.451v-10.013
				C201.797,211.025,198.894,208.122,195.346,208.122z"/>
			<path style="fill:#FFFFFF;" d="M153.176,214.555c0,0.679-0.551,1.23-1.23,1.23c-0.68,0-1.23-0.551-1.23-1.23
				c0-0.68,0.551-1.23,1.23-1.23C152.625,213.325,153.176,213.876,153.176,214.555z"/>
			<path style="fill:#FFFFFF;" d="M153.176,218.479c0,0.679-0.551,1.23-1.23,1.23c-0.68,0-1.23-0.551-1.23-1.23
				c0-0.68,0.551-1.23,1.23-1.23C152.625,217.249,153.176,217.799,153.176,218.479z"/>
		</g>
		<g>
			<polygon style="opacity:0.2;fill:#407BFF;" points="238.758,191.55 219.649,191.55 222.863,232.498 241.972,232.498 			"/>
			<g>
				<g>
					<polygon style="fill:#407BFF;" points="239.927,188.04 220.818,188.04 224.032,228.988 243.141,228.988 					"/>
					<polygon style="opacity:0.6;fill:#FFFFFF;" points="240.408,214.169 224.435,214.169 222.508,189.6 238.482,189.6 					"/>
					<polygon style="opacity:0.6;fill:#FFFFFF;" points="241.453,227.428 225.472,227.428 224.731,218.006 240.712,218.006 					"/>
				</g>
				<g>
					<polygon style="fill:#407BFF;" points="240.558,187.814 221.449,187.774 224.577,228.971 243.686,229.012 					"/>
					<polygon style="opacity:0.6;fill:#FFFFFF;" points="240.984,214.099 225.011,214.065 223.136,189.346 239.11,189.38 					"/>
					<polygon style="opacity:0.6;fill:#FFFFFF;" points="242.001,227.439 226.02,227.405 225.299,217.926 241.28,217.96 					"/>
				</g>
				<g>
					<polygon style="fill:#407BFF;" points="241.084,187.294 221.974,187.254 225.1,228.948 244.211,228.988 					"/>
					<polygon style="opacity:0.6;fill:#FFFFFF;" points="241.51,213.896 225.535,213.862 223.661,188.845 239.635,188.879 					"/>
					<polygon style="opacity:0.6;fill:#FFFFFF;" points="242.527,227.397 226.544,227.363 225.823,217.769 241.806,217.803 					"/>
				</g>
			</g>
			<polygon style="opacity:0.4;fill:#407BFF;" points="218.042,191.55 219.649,191.55 222.863,232.498 221.256,232.498 			"/>
		</g>
	</g>
</g>
<g id="Character_2">
	<g>
		<path style="fill:#B55B52;" d="M383.776,163.552c0.472,1.089,0.821,1.975,1.176,2.96c0.347,0.961,0.683,1.918,1,2.878
			c0.643,1.916,1.202,3.849,1.725,5.784c1.041,3.874,1.891,7.779,2.586,11.703l0.255,1.472l0.064,0.368l0.071,0.456
			c0.045,0.409,0.118,0.838,0.109,1.23c0.045,1.617-0.297,3.037-0.742,4.269c-0.905,2.47-2.233,4.323-3.61,6.013
			c-2.815,3.339-5.941,5.897-9.455,8.169l-2.831-3.481c2.426-2.767,4.842-5.781,6.615-8.754c0.877-1.478,1.592-3.01,1.863-4.268
			c0.135-0.625,0.14-1.155,0.078-1.488l-0.57-2.217c-0.961-3.694-1.975-7.366-3.097-10.985c-0.543-1.815-1.14-3.607-1.723-5.392
			c-0.293-0.893-0.6-1.776-0.913-2.649l-0.924-2.498L383.776,163.552z"/>
		<path style="fill:#B55B52;" d="M377.941,207.482l2.726,5.867l-3.746,2.191c0,0-7.351-10.728-1.809-11.082L377.941,207.482z"/>
		<path style="fill:#407BFF;" d="M362.843,407.715c0.819,0,1.713-0.169,2.339-0.317c0.082-0.019,0.144-0.085,0.158-0.168
			c0.015-0.082-0.021-0.166-0.091-0.212c-0.303-0.199-2.993-1.936-4.024-1.469c-0.163,0.074-0.367,0.236-0.417,0.59
			c-0.066,0.469,0.051,0.844,0.348,1.115C361.532,407.597,362.161,407.715,362.843,407.715z M364.588,407.097
			c-1.542,0.307-2.702,0.255-3.151-0.155c-0.191-0.174-0.261-0.418-0.215-0.746c0.025-0.177,0.107-0.235,0.175-0.266
			C361.94,405.685,363.491,406.434,364.588,407.097z"/>
		<path style="fill:#407BFF;" d="M365.133,407.403c0.037,0,0.073-0.01,0.106-0.029c0.065-0.038,0.104-0.107,0.104-0.181
			c0-0.108-0.012-2.659-0.975-3.511c-0.256-0.227-0.554-0.321-0.888-0.28c-0.525,0.064-0.668,0.394-0.706,0.585
			c-0.2,0.998,1.411,2.91,2.256,3.389C365.062,407.394,365.098,407.403,365.133,407.403z M363.626,403.812
			c0.172,0,0.325,0.061,0.464,0.184c0.575,0.509,0.772,1.941,0.82,2.79c-0.842-0.673-1.847-2.109-1.725-2.717
			c0.02-0.1,0.077-0.218,0.345-0.251C363.563,403.814,363.595,403.812,363.626,403.812z"/>
		<path style="fill:#B55B52;" d="M363.438,133.042c-1.031,5.257-3.202,15.903,0.476,19.411c0,0-1.437,5.332-11.204,5.332
			c-10.74,0-5.133-5.332-5.133-5.332c5.862-1.4,5.71-5.749,4.689-9.833L363.438,133.042z"/>
		<path style="fill:#263238;" d="M344.251,156.537c-1.483,0.196,1.988-4.513,2.587-4.991c1.384-1.106,19.397-2.049,19.303,0.702
			c-0.064,1.183-0.486,3.48-1.268,4.236C364.091,157.239,357.19,154.597,344.251,156.537z"/>
		<path style="fill:#263238;" d="M346.129,120.303c-0.129-0.015-0.25-0.089-0.318-0.211c-0.918-1.631-2.46-1.749-2.475-1.75
			c-0.234-0.016-0.407-0.215-0.391-0.446c0.015-0.231,0.215-0.407,0.446-0.392c0.081,0.005,2.013,0.153,3.152,2.176
			c0.114,0.202,0.042,0.458-0.16,0.571C346.303,120.296,346.214,120.312,346.129,120.303z"/>
		<path style="fill:#A02724;" d="M343.22,125.048c0,0-1.439,2.977-2.881,4.357c0.875,0.949,2.504,0.667,2.504,0.667L343.22,125.048z
			"/>
		<path style="fill:#263238;" d="M343.95,123.871c-0.053,0.713-0.474,1.262-0.94,1.227c-0.466-0.035-0.8-0.641-0.747-1.353
			c0.053-0.713,0.474-1.262,0.94-1.227C343.669,122.553,344.003,123.159,343.95,123.871z"/>
		<path style="fill:#263238;" d="M343.406,122.573l-1.674-0.621C341.731,121.952,342.509,123.354,343.406,122.573z"/>
		<polygon style="fill:#B55B52;" points="375.435,407.193 366.576,407.193 367.271,386.678 376.13,386.678 		"/>
		<path style="fill:#263238;" d="M365.875,406.167h9.952c0.362,0,0.656,0.251,0.707,0.605l1.134,7.874
			c0.118,0.817-0.585,1.59-1.42,1.575c-3.47-0.06-5.142-0.263-9.518-0.263c-2.693,0-6.626,0.28-10.345,0.28
			c-3.637,0-3.916-3.677-2.368-4.01c6.942-1.493,8.039-3.552,10.378-5.516C364.816,406.358,365.345,406.167,365.875,406.167z"/>
		<g style="opacity:0.2;">
			<polygon points="376.132,386.684 367.269,386.684 366.871,398.574 375.734,398.574 			"/>
		</g>
		<path style="fill:#B55B52;" d="M337.039,166.376c-1.754,4.422-3.649,8.631-5.776,12.835c-2.094,4.203-4.384,8.336-7.107,12.377
			c-0.708,1.006-1.409,2.007-2.21,3.001c-0.418,0.508-0.77,0.967-1.245,1.51c-0.561,0.622-1.184,1.189-1.85,1.699
			c-1.346,1.005-2.865,1.685-4.345,2.096c-1.486,0.418-2.947,0.566-4.339,0.566c-2.788,0.002-5.331-0.552-7.715-1.318
			c-1.194-0.382-2.346-0.839-3.465-1.352c-1.136-0.515-2.182-1.037-3.317-1.723l1.887-4.07c4.05,1.08,8.57,1.818,12.181,1.297
			c1.803-0.277,3.25-0.878,4.112-1.753c0.22-0.22,0.422-0.45,0.605-0.702l0.862-1.207c0.588-0.828,1.148-1.747,1.704-2.652
			c1.113-1.836,2.168-3.762,3.176-5.73c1.022-1.962,2.017-3.957,2.966-5.985c1.882-4.043,3.747-8.203,5.471-12.266L337.039,166.376z
			"/>
		<path style="fill:#407BFF;" d="M333.519,154.306c-4.402,1.074-9.821,13.162-9.821,13.162l10.481,13.426
			c0,0,10.825-15.317,9.379-19.998C342.051,156.021,338.86,153.003,333.519,154.306z"/>
		<path style="fill:#B55B52;" d="M299.57,192.628l-6.592-2.069l-1.444,6.899c0,0,6.456,1.261,8.998-1.558L299.57,192.628z"/>
		<polygon style="fill:#B55B52;" points="286.871,191.353 288.121,196.601 291.534,197.458 292.978,190.559 		"/>
		<path style="fill:#B55B52;" d="M368.09,123.22c-1.193,8.71-1.512,12.423-6.268,16.583c-7.154,6.258-17.592,2.888-19.026-6.004
			c-1.29-8.003,0.877-20.903,9.704-23.744C361.196,107.257,369.283,114.51,368.09,123.22z"/>
		<path style="fill:#263238;" d="M348.417,128.167c6.917,12.083,10.417,13.722,15.75,15.722c0,0,2.458-7.431,7.792-12.056
			c7.178-6.225,2.95-18.083-1.375-19.5c2.181-7.055-23.444-8.972-26.168,1.445C342.453,121.278,348.417,128.167,348.417,128.167z"/>
		<path style="fill:#B55B52;" d="M352.442,125.834c-0.364,1.996-1.6,3.796-2.966,4.924c-2.055,1.697-3.839,0.374-3.901-1.917
			c-0.057-2.062,0.945-5.43,3.312-6.259C351.219,121.765,352.859,123.552,352.442,125.834z"/>
		<path style="fill:#263238;" d="M347.253,207.772c0,0,5.141,60.801,10.475,95.067c4.309,27.677,7.706,92.371,7.706,92.371h12.08
			c0,0,5.756-62.479,3.569-89.853c-5.534-69.269,4.172-81.528-7.353-97.585H347.253z"/>
		<path style="opacity:0.2;" d="M350.95,247.01c1.63,16.01,3.66,34.21,5.78,49.07c3.41-7.96,7.046-18.95,7.686-41.58
			C364.846,239.23,356.43,236.25,350.95,247.01z"/>
		<path style="fill:#407BFF;" d="M319.144,403.913c0.073-0.001,0.141-0.041,0.178-0.106c0.044-0.077,0.034-0.174-0.024-0.241
			c-0.295-0.339-2.923-3.307-4.15-3.152c-0.238,0.03-0.423,0.165-0.535,0.389c-0.188,0.375-0.195,0.742-0.021,1.089
			c0.577,1.153,3.074,1.759,4.511,2.018C319.116,403.912,319.13,403.914,319.144,403.913z M315.249,400.826
			c0.695-0.013,2.244,1.4,3.314,2.55c-1.946-0.414-3.272-1.026-3.596-1.672c-0.113-0.226-0.106-0.459,0.021-0.714
			c0.049-0.099,0.115-0.148,0.213-0.161C315.216,400.828,315.233,400.827,315.249,400.826z"/>
		<path style="fill:#407BFF;" d="M319.144,403.913c0.015,0,0.031-0.002,0.046-0.006c0.072-0.017,0.13-0.072,0.151-0.143
			c0.029-0.097,0.711-2.391,0.014-3.662c-0.214-0.389-0.533-0.645-0.949-0.762c-0.562-0.158-0.827,0.056-0.95,0.263
			c-0.519,0.874,0.726,3.416,1.534,4.246C319.03,403.892,319.086,403.914,319.144,403.913z M318.042,399.706
			c0.064-0.001,0.145,0.009,0.25,0.038c0.308,0.086,0.535,0.27,0.694,0.56c0.458,0.835,0.209,2.273,0.051,2.956
			c-0.763-1-1.533-2.918-1.221-3.443C317.835,399.786,317.881,399.709,318.042,399.706z"/>
		<polygon style="fill:#B55B52;" points="328.039,409.967 319.756,406.392 322.102,395.798 324.47,385.145 324.742,383.904 
			333.333,386.069 333.029,387.468 330.74,397.787 		"/>
		<polygon style="opacity:0.2;" points="330.74,397.787 321.937,396.54 324.47,385.145 333.029,387.468 		"/>
		<path style="fill:#263238;" d="M337.752,207.772c0,0-6.035,65.48-8.246,96.5c-1.998,28.034-8.131,86.792-8.131,86.792
			l11.957,1.776c0,0,16.006-66.192,18.501-85.34c7.167-55,21.211-72,17.777-99.728L337.752,207.772z"/>
		<path style="fill:#263238;" d="M320.053,402.96l9.263,3.639c0.337,0.132,0.519,0.474,0.437,0.822l-1.824,7.743
			c-0.189,0.803-1.126,1.266-1.898,0.947c-3.208-1.324-4.689-2.126-8.763-3.726c-2.506-0.985-7.792-2.761-11.253-4.121
			c-3.385-1.33-2.301-4.854-0.738-4.598c7.007,1.149,10.303,0.232,13.198-0.741C318.998,402.75,319.56,402.767,320.053,402.96z"/>
		<polygon style="fill:#407BFF;" points="319.35,393.607 334.513,396.218 336.247,390.497 320.02,387.686 		"/>
		<polygon style="fill:#407BFF;" points="363.781,395.45 379.168,395.45 379.976,390.052 363.693,389.501 		"/>
		<path style="fill:#407BFF;" d="M387.722,168.097l-8.894,7.086l-5.341,4.262c0,0-0.56-1.491-1.237-3.627
			c-1.29-4.125-2.972-10.661-1.808-13.664c1.83-4.759,5.319-9.053,9.666-8.101C383.788,154.856,387.722,168.097,387.722,168.097z"/>
		<path style="opacity:0.2;" d="M377.568,176.188l-4.08,3.256c0,0-0.56-1.491-1.237-3.627l3.173-15.705L377.568,176.188z"/>
		<path style="fill:#407BFF;" d="M333.519,154.306c0,0-4.22,1.486,4.234,53.466c14.276,0,29.031,0,35.978,0
			c-0.604-14.643-0.621-23.672,6.378-53.723c0,0-7.538-1.64-15.278-2.013c-6.054-0.292-11.015-0.485-16.337,0.001
			C341.476,152.677,333.519,154.306,333.519,154.306z"/>
		<path style="fill:#263238;" d="M365.208,143.012l-3.427-0.076c-5.948,8.214,0.899,8.564,0.892,15.619
			c-0.007,7.056-7.66,11.223,1.77,16.195C357.5,167.448,376.917,163.208,365.208,143.012z"/>
		<path style="fill:#407BFF;" d="M358.014,140.395c0.246,1.366,0.421,2.704,0.478,3.803c0.03,0.577,0.449,1.015,0.974,1.012
			c1.731-0.008,5.18,0.003,6.839,0.009c0.532,0.002,0.984-0.449,1.036-1.034c0.103-1.162,0.242-3.057,0.188-4.399
			c-0.023-0.576-0.431-1.028-0.955-1.034c-2.634-0.03-5.892,0.164-7.613,0.284C358.34,139.08,357.893,139.727,358.014,140.395z"/>
		<g>
			<path style="fill:#407BFF;" d="M374.269,205.661l1.622,3.22c0.126,0.25-0.17,0.505-0.586,0.505h-37.731
				c-0.324,0-0.593-0.159-0.614-0.363l-0.324-3.22c-0.022-0.223,0.259-0.412,0.614-0.412h36.433
				C373.951,205.39,374.188,205.5,374.269,205.661z"/>
			<path style="opacity:0.5;fill:#FFFFFF;" d="M374.269,205.661l1.622,3.22c0.126,0.25-0.17,0.505-0.586,0.505h-37.731
				c-0.324,0-0.593-0.159-0.614-0.363l-0.324-3.22c-0.022-0.223,0.259-0.412,0.614-0.412h36.433
				C373.951,205.39,374.188,205.5,374.269,205.661z"/>
		</g>
		<path style="fill:#263238;" d="M369.376,209.734h0.976c0.194,0,0.342-0.1,0.329-0.223l-0.458-4.184
			c-0.013-0.122-0.183-0.223-0.378-0.223h-0.976c-0.194,0-0.342,0.1-0.329,0.223l0.458,4.184
			C369.012,209.634,369.181,209.734,369.376,209.734z"/>
		<path style="fill:#263238;" d="M345.724,209.734h0.976c0.194,0,0.342-0.1,0.329-0.223l-0.458-4.184
			c-0.013-0.122-0.183-0.223-0.378-0.223h-0.976c-0.194,0-0.342,0.1-0.329,0.223l0.458,4.184
			C345.36,209.634,345.53,209.734,345.724,209.734z"/>
	</g>
</g>
</svg>
